<?xml version="1.0" standalone="no"?>
<!DOCTYPE svg PUBLIC "-//W3C//DTD SVG 1.1//EN" "http://www.w3.org/Graphics/SVG/1.1/DTD/svg11.dtd" >
<svg>
<metadata>
Created by FontForge 20090622 at Mon Dec 11 10:24:18 2017
 By deploy user
Copyright 2011 The Quicksand Project Authors (https://github.com/andrew-paglinawan/QuicksandFamily), with Reserved Font Name &#226;&#128;&#156;Quicksand&#226;&#128;&#157;.
</metadata>
<defs>
<font id="Quicksand-Medium" horiz-adv-x="0" >
  <font-face 
    font-family="Quicksand Medium"
    font-weight="500"
    font-stretch="normal"
    units-per-em="1000"
    panose-1="0 0 6 0 0 0 0 0 0 0"
    ascent="800"
    descent="-200"
    x-height="522"
    cap-height="700"
    bbox="-436 -267 1324 1163"
    underline-thickness="50"
    underline-position="-50"
    unicode-range="U+000D-U+FB02"
  />
<missing-glyph horiz-adv-x="584" 
d="M75 700h434q35 0 35 -35v-630q0 -35 -35 -35h-434q-35 0 -35 35v630q0 35 35 35zM91 668q-1 -2 1 -4l416 -599q2 -3 4 -2.5t2 4.5v598q0 5 -5 5h-414q-3 0 -4 -2zM75 30h413q3 0 4 2t-1 4l-415 599q-2 3 -4 2.5t-2 -4.5v-598q0 -5 5 -5z" />
    <glyph glyph-name="f_f" unicode="ff" horiz-adv-x="780" 
d="M246.5 634q-15.5 -20 -15.5 -49v-70h99q20 0 32.5 -12.5t12.5 -31.5t-12.5 -31t-32.5 -12h-99v-380q0 -20 -13.5 -34t-34.5 -14q-20 0 -33.5 14t-13.5 34v380h-62q-19 0 -32 12t-13 31t13 31.5t32 12.5h62v70q0 70 45 111.5t127 41.5q34 0 60 -12.5t26 -37.5
q0 -19 -11.5 -31.5t-27.5 -12.5q-4 0 -22 4q-22 6 -38 6q-33 0 -48.5 -20zM636.5 634q-15.5 -20 -15.5 -49v-70h99q20 0 32.5 -12.5t12.5 -31.5t-12.5 -31t-32.5 -12h-99v-380q0 -20 -13.5 -34t-34.5 -14q-20 0 -33.5 14t-13.5 34v380h-62q-19 0 -32 12t-13 31t13 31.5
t32 12.5h62v70q0 70 45 111.5t127 41.5q34 0 60 -12.5t26 -37.5q0 -19 -11.5 -31.5t-27.5 -12.5q-4 0 -22 4q-22 6 -38 6q-33 0 -48.5 -20z" />
    <glyph glyph-name="f_f_i" unicode="ffi" horiz-adv-x="1007" 
d="M246.5 634q-15.5 -20 -15.5 -49v-70h99q20 0 32.5 -12.5t12.5 -31.5t-12.5 -31t-32.5 -12h-99v-380q0 -20 -13.5 -34t-34.5 -14q-20 0 -33.5 14t-13.5 34v380h-62q-19 0 -32 12t-13 31t13 31.5t32 12.5h62v70q0 70 45 111.5t127 41.5q34 0 60 -12.5t26 -37.5
q0 -19 -11.5 -31.5t-27.5 -12.5q-4 0 -22 4q-22 6 -38 6q-33 0 -48.5 -20zM636.5 634q-15.5 -20 -15.5 -49v-70h99q20 0 32.5 -12.5t12.5 -31.5t-12.5 -31t-32.5 -12h-99v-380q0 -20 -13.5 -34t-34.5 -14q-20 0 -33.5 14t-13.5 34v380h-62q-19 0 -32 12t-13 31t13 31.5
t32 12.5h62v70q0 70 45 111.5t127 41.5q34 0 60 -12.5t26 -37.5q0 -19 -11.5 -31.5t-27.5 -12.5q-4 0 -22 4q-22 6 -38 6q-33 0 -48.5 -20zM927.5 14q-13.5 -14 -34.5 -14q-20 0 -33.5 14t-13.5 34v433q0 20 13.5 34t33.5 14q21 0 34.5 -14t13.5 -34v-433q0 -20 -13.5 -34z
M851.5 605.5q-12.5 10.5 -12.5 33.5v16q0 24 13.5 34t41.5 10t40.5 -10.5t12.5 -33.5v-16q0 -24 -13 -34t-41 -10q-29 0 -41.5 10.5z" />
    <glyph glyph-name="f_f_l" unicode="ffl" horiz-adv-x="1033" 
d="M246.5 634q-15.5 -20 -15.5 -49v-70h99q20 0 32.5 -12.5t12.5 -31.5t-12.5 -31t-32.5 -12h-99v-380q0 -20 -13.5 -34t-34.5 -14q-20 0 -33.5 14t-13.5 34v380h-62q-19 0 -32 12t-13 31t13 31.5t32 12.5h62v70q0 70 45 111.5t127 41.5q34 0 60 -12.5t26 -37.5
q0 -19 -11.5 -31.5t-27.5 -12.5q-4 0 -22 4q-22 6 -38 6q-33 0 -48.5 -20zM636.5 634q-15.5 -20 -15.5 -49v-70h99q20 0 32.5 -12.5t12.5 -31.5t-12.5 -31t-32.5 -12h-99v-380q0 -20 -13.5 -34t-34.5 -14q-20 0 -33.5 14t-13.5 34v380h-62q-19 0 -32 12t-13 31t13 31.5
t32 12.5h62v70q0 70 45 111.5t127 41.5q34 0 60 -12.5t26 -37.5q0 -19 -11.5 -31.5t-27.5 -12.5q-4 0 -22 4q-22 6 -38 6q-33 0 -48.5 -20zM940 14q-14 -14 -34 -14t-33.5 14t-13.5 34v644q0 20 14 34t34 14t33.5 -14t13.5 -34v-644q0 -20 -14 -34z" />
    <glyph glyph-name="fi" unicode="fi" horiz-adv-x="617" 
d="M246.5 634q-15.5 -20 -15.5 -49v-70h99q20 0 32.5 -12.5t12.5 -31.5t-12.5 -31t-32.5 -12h-99v-380q0 -20 -13.5 -34t-34.5 -14q-20 0 -33.5 14t-13.5 34v380h-62q-19 0 -32 12t-13 31t13 31.5t32 12.5h62v70q0 70 45 111.5t127 41.5q34 0 60 -12.5t26 -37.5
q0 -19 -11.5 -31.5t-27.5 -12.5q-4 0 -22 4q-22 6 -38 6q-33 0 -48.5 -20zM537.5 14q-13.5 -14 -34.5 -14q-20 0 -33.5 14t-13.5 34v433q0 20 13.5 34t33.5 14q21 0 34.5 -14t13.5 -34v-433q0 -20 -13.5 -34zM461.5 605.5q-12.5 10.5 -12.5 33.5v16q0 24 13.5 34t41.5 10
t40.5 -10.5t12.5 -33.5v-16q0 -24 -13 -34t-41 -10q-29 0 -41.5 10.5z" />
    <glyph glyph-name="fl" unicode="fl" horiz-adv-x="643" 
d="M246.5 634q-15.5 -20 -15.5 -49v-70h99q20 0 32.5 -12.5t12.5 -31.5t-12.5 -31t-32.5 -12h-99v-380q0 -20 -13.5 -34t-34.5 -14q-20 0 -33.5 14t-13.5 34v380h-62q-19 0 -32 12t-13 31t13 31.5t32 12.5h62v70q0 70 45 111.5t127 41.5q34 0 60 -12.5t26 -37.5
q0 -19 -11.5 -31.5t-27.5 -12.5q-4 0 -22 4q-22 6 -38 6q-33 0 -48.5 -20zM550 14q-14 -14 -34 -14t-33.5 14t-13.5 34v644q0 20 14 34t34 14t33.5 -14t13.5 -34v-644q0 -20 -14 -34z" />
    <glyph glyph-name=".notdef" horiz-adv-x="584" 
d="M75 700h434q35 0 35 -35v-630q0 -35 -35 -35h-434q-35 0 -35 35v630q0 35 35 35zM91 668q-1 -2 1 -4l416 -599q2 -3 4 -2.5t2 4.5v598q0 5 -5 5h-414q-3 0 -4 -2zM75 30h413q3 0 4 2t-1 4l-415 599q-2 3 -4 2.5t-2 -4.5v-598q0 -5 5 -5z" />
    <glyph glyph-name="NULL" 
 />
    <glyph glyph-name="NULL" 
 />
    <glyph glyph-name="nonmarkingreturn" unicode="&#xd;" horiz-adv-x="277" 
 />
    <glyph glyph-name="space" unicode=" " horiz-adv-x="277" 
 />
    <glyph glyph-name="A" unicode="A" horiz-adv-x="642" 
d="M624 43q0 -20 -13.5 -33t-31.5 -13q-14 0 -25.5 8.5t-18.5 23.5l-62 147h-309l-61 -148q-5 -15 -16.5 -23t-25.5 -8q-21 0 -32 11t-11 30q0 4 2 16l255 618q7 16 19.5 24.5t28.5 6.5q15 0 27 -8t17 -23l254 -610q3 -9 3 -19zM202 267h233l-117 280z" />
    <glyph glyph-name="Aacute" unicode="&#xc1;" horiz-adv-x="642" 
d="M624 43q0 -20 -13.5 -33t-31.5 -13q-14 0 -25.5 8.5t-18.5 23.5l-62 147h-309l-61 -148q-5 -15 -16.5 -23t-25.5 -8q-21 0 -32 11t-11 30q0 4 2 16l255 618q7 16 19.5 24.5t28.5 6.5q15 0 27 -8t17 -23l254 -610q3 -9 3 -19zM202 267h233l-117 280zM300.5 748.5
q-8.5 7.5 -8.5 20.5t12 23l88 74q21 17 40 17q17 0 30.5 -12t13.5 -29q0 -13 -8 -25t-22 -19l-99 -51q-12 -6 -23 -6q-15 0 -23.5 7.5z" />
    <glyph glyph-name="Abreve" unicode="&#x102;" horiz-adv-x="642" 
d="M624 43q0 -20 -13.5 -33t-31.5 -13q-14 0 -25.5 8.5t-18.5 23.5l-62 147h-309l-61 -148q-5 -15 -16.5 -23t-25.5 -8q-21 0 -32 11t-11 30q0 4 2 16l255 618q7 16 19.5 24.5t28.5 6.5q15 0 27 -8t17 -23l254 -610q3 -9 3 -19zM202 267h233l-117 280zM229.5 790
q-39.5 25 -55.5 71q-4 9 -4 18q0 13 7.5 20t20.5 7q16 0 25 -7t23 -24q25 -40 77 -40q54 0 77 40q10 16 20.5 23t26.5 7q14 0 21.5 -6.5t7.5 -19.5q0 -8 -3 -17q-16 -46 -55.5 -71.5t-94.5 -25.5q-54 0 -93.5 25z" />
    <glyph glyph-name="uni1EAE" unicode="&#x1eae;" horiz-adv-x="642" 
d="M624 43q0 -20 -13.5 -33t-31.5 -13q-14 0 -25.5 8.5t-18.5 23.5l-62 147h-309l-61 -148q-5 -15 -16.5 -23t-25.5 -8q-21 0 -32 11t-11 30q0 4 2 16l255 618q7 16 19.5 24.5t28.5 6.5q15 0 27 -8t17 -23l254 -610q3 -9 3 -19zM202 267h233l-117 280zM229.5 790
q-39.5 25 -55.5 71q-4 9 -4 18q0 13 7.5 20t20.5 7q16 0 25 -7t23 -24q25 -40 77 -40q54 0 77 40q10 16 20.5 23t26.5 7q14 0 21.5 -6.5t7.5 -19.5q0 -8 -3 -17q-16 -46 -55.5 -71.5t-94.5 -25.5q-54 0 -93.5 25zM300.5 939.5q-8.5 7.5 -8.5 20.5t12 23l88 74q21 17 40 17
q17 0 30.5 -12t13.5 -29q0 -13 -8 -25t-22 -19l-99 -51q-12 -6 -23 -6q-15 0 -23.5 7.5z" />
    <glyph glyph-name="uni1EB6" unicode="&#x1eb6;" horiz-adv-x="642" 
d="M624 43q0 -20 -13.5 -33t-31.5 -13q-14 0 -25.5 8.5t-18.5 23.5l-62 147h-309l-61 -148q-5 -15 -16.5 -23t-25.5 -8q-21 0 -32 11t-11 30q0 4 2 16l255 618q7 16 19.5 24.5t28.5 6.5q15 0 27 -8t17 -23l254 -610q3 -9 3 -19zM202 267h233l-117 280zM281.5 -133
q-12.5 11 -12.5 35v15q0 46 53 46q30 0 42.5 -10.5t12.5 -35.5v-15q0 -25 -13 -35.5t-42 -10.5q-28 0 -40.5 11zM229.5 790q-39.5 25 -55.5 71q-4 9 -4 18q0 13 7.5 20t20.5 7q16 0 25 -7t23 -24q25 -40 77 -40q54 0 77 40q10 16 20.5 23t26.5 7q14 0 21.5 -6.5t7.5 -19.5
q0 -8 -3 -17q-16 -46 -55.5 -71.5t-94.5 -25.5q-54 0 -93.5 25z" />
    <glyph glyph-name="uni1EB0" unicode="&#x1eb0;" horiz-adv-x="642" 
d="M624 43q0 -20 -13.5 -33t-31.5 -13q-14 0 -25.5 8.5t-18.5 23.5l-62 147h-309l-61 -148q-5 -15 -16.5 -23t-25.5 -8q-21 0 -32 11t-11 30q0 4 2 16l255 618q7 16 19.5 24.5t28.5 6.5q15 0 27 -8t17 -23l254 -610q3 -9 3 -19zM202 267h233l-117 280zM229.5 790
q-39.5 25 -55.5 71q-4 9 -4 18q0 13 7.5 20t20.5 7q16 0 25 -7t23 -24q25 -40 77 -40q54 0 77 40q10 16 20.5 23t26.5 7q14 0 21.5 -6.5t7.5 -19.5q0 -8 -3 -17q-16 -46 -55.5 -71.5t-94.5 -25.5q-54 0 -93.5 25zM299 941l-99 51q-14 8 -22 19.5t-8 24.5q0 17 13.5 29
t30.5 12q19 0 41 -18l87 -73q12 -10 12 -23t-8.5 -21t-23.5 -8q-9 0 -23 7z" />
    <glyph glyph-name="uni1EB2" unicode="&#x1eb2;" horiz-adv-x="642" 
d="M624 43q0 -20 -13.5 -33t-31.5 -13q-14 0 -25.5 8.5t-18.5 23.5l-62 147h-309l-61 -148q-5 -15 -16.5 -23t-25.5 -8q-21 0 -32 11t-11 30q0 4 2 16l255 618q7 16 19.5 24.5t28.5 6.5q15 0 27 -8t17 -23l254 -610q3 -9 3 -19zM202 267h233l-117 280zM229.5 790
q-39.5 25 -55.5 71q-4 9 -4 18q0 13 7.5 20t20.5 7q16 0 25 -7t23 -24q25 -40 77 -40q54 0 77 40q10 16 20.5 23t26.5 7q14 0 21.5 -6.5t7.5 -19.5q0 -8 -3 -17q-16 -46 -55.5 -71.5t-94.5 -25.5q-54 0 -93.5 25zM312 1139q51 0 72.5 -25t21.5 -57q0 -16 -6 -29t-19 -28
q-19 -21 -20 -33q0 -10 -9 -15t-23 -5q-10 0 -17.5 5.5t-7.5 15.5q0 20 16 39q13 15 19 25t6 19q0 12 -10 20t-25 8q-18 0 -43 -17q-9 -7 -17 -7q-11 0 -21 11q-7 7 -7 17q0 13 13 26q35 30 77 30z" />
    <glyph glyph-name="uni1EB4" unicode="&#x1eb4;" horiz-adv-x="642" 
d="M624 43q0 -20 -13.5 -33t-31.5 -13q-14 0 -25.5 8.5t-18.5 23.5l-62 147h-309l-61 -148q-5 -15 -16.5 -23t-25.5 -8q-21 0 -32 11t-11 30q0 4 2 16l255 618q7 16 19.5 24.5t28.5 6.5q15 0 27 -8t17 -23l254 -610q3 -9 3 -19zM202 267h233l-117 280zM229.5 790
q-39.5 25 -55.5 71q-4 9 -4 18q0 13 7.5 20t20.5 7q16 0 25 -7t23 -24q25 -40 77 -40q54 0 77 40q10 16 20.5 23t26.5 7q14 0 21.5 -6.5t7.5 -19.5q0 -8 -3 -17q-16 -46 -55.5 -71.5t-94.5 -25.5q-54 0 -93.5 25zM160.5 955.5q-11.5 14.5 -11.5 39.5q0 36 27.5 61t73.5 25
q22 0 44 -9.5t50 -26.5q23 -14 34.5 -19.5t21.5 -5.5q12 0 19.5 8t6.5 21q-1 4 -1 10q0 13 8.5 21t21.5 8q19 0 30.5 -15t11.5 -38q0 -33 -24 -60t-65 -27q-24 0 -47.5 10t-54.5 27q-17 9 -32.5 16t-25.5 7q-12 0 -20 -7.5t-8 -21.5q1 -3 1 -8q0 -14 -9 -22t-22 -8
q-18 0 -29.5 14.5z" />
    <glyph glyph-name="uni01CD" unicode="&#x1cd;" horiz-adv-x="642" 
d="M624 43q0 -20 -13.5 -33t-31.5 -13q-14 0 -25.5 8.5t-18.5 23.5l-62 147h-309l-61 -148q-5 -15 -16.5 -23t-25.5 -8q-21 0 -32 11t-11 30q0 4 2 16l255 618q7 16 19.5 24.5t28.5 6.5q15 0 27 -8t17 -23l254 -610q3 -9 3 -19zM202 267h233l-117 280zM453.5 884.5
q7.5 -6.5 7.5 -14.5q0 -6 -2.5 -11t-10.5 -13l-68 -76q-11 -12 -22.5 -18t-27.5 -6h-14q-16 0 -27.5 6t-21.5 18l-69 76q-6 7 -9 12.5t-3 11.5q0 8 7 14.5t18 6.5q17 0 41 -17l72 -49l70 49q24 17 41 17q11 0 18.5 -6.5z" />
    <glyph glyph-name="Acircumflex" unicode="&#xc2;" horiz-adv-x="642" 
d="M624 43q0 -20 -13.5 -33t-31.5 -13q-14 0 -25.5 8.5t-18.5 23.5l-62 147h-309l-61 -148q-5 -15 -16.5 -23t-25.5 -8q-21 0 -32 11t-11 30q0 4 2 16l255 618q7 16 19.5 24.5t28.5 6.5q15 0 27 -8t17 -23l254 -610q3 -9 3 -19zM202 267h233l-117 280zM460 770
q0 -8 -7.5 -14.5t-17.5 -6.5q-7 0 -18 5.5t-23 12.5l-73 47l-70 -47q-12 -8 -22.5 -13t-18.5 -5q-10 0 -17.5 6.5t-7.5 14.5q0 6 3 11.5t9 12.5l69 76q11 13 22 18.5t27 5.5h14q16 0 27.5 -6t22.5 -18l69 -76q12 -13 12 -24z" />
    <glyph glyph-name="uni1EA4" unicode="&#x1ea4;" horiz-adv-x="642" 
d="M624 43q0 -20 -13.5 -33t-31.5 -13q-14 0 -25.5 8.5t-18.5 23.5l-62 147h-309l-61 -148q-5 -15 -16.5 -23t-25.5 -8q-21 0 -32 11t-11 30q0 4 2 16l255 618q7 16 19.5 24.5t28.5 6.5q15 0 27 -8t17 -23l254 -610q3 -9 3 -19zM202 267h233l-117 280zM460 770
q0 -8 -7.5 -14.5t-17.5 -6.5q-7 0 -18 5.5t-23 12.5l-73 47l-70 -47q-12 -8 -22.5 -13t-18.5 -5q-10 0 -17.5 6.5t-7.5 14.5q0 6 3 11.5t9 12.5l69 76q11 13 22 18.5t27 5.5h14q16 0 27.5 -6t22.5 -18l69 -76q12 -13 12 -24zM450.5 830.5q-8.5 7.5 -8.5 20.5t12 23l88 74
q21 17 40 17q17 0 30.5 -12t13.5 -29q0 -13 -8 -25t-22 -19l-99 -51q-12 -6 -23 -6q-15 0 -23.5 7.5z" />
    <glyph glyph-name="uni1EAC" unicode="&#x1eac;" horiz-adv-x="642" 
d="M624 43q0 -20 -13.5 -33t-31.5 -13q-14 0 -25.5 8.5t-18.5 23.5l-62 147h-309l-61 -148q-5 -15 -16.5 -23t-25.5 -8q-21 0 -32 11t-11 30q0 4 2 16l255 618q7 16 19.5 24.5t28.5 6.5q15 0 27 -8t17 -23l254 -610q3 -9 3 -19zM202 267h233l-117 280zM281.5 -133
q-12.5 11 -12.5 35v15q0 46 53 46q30 0 42.5 -10.5t12.5 -35.5v-15q0 -25 -13 -35.5t-42 -10.5q-28 0 -40.5 11zM460 770q0 -8 -7.5 -14.5t-17.5 -6.5q-7 0 -18 5.5t-23 12.5l-73 47l-70 -47q-12 -8 -22.5 -13t-18.5 -5q-10 0 -17.5 6.5t-7.5 14.5q0 6 3 11.5t9 12.5l69 76
q11 13 22 18.5t27 5.5h14q16 0 27.5 -6t22.5 -18l69 -76q12 -13 12 -24z" />
    <glyph glyph-name="uni1EA6" unicode="&#x1ea6;" horiz-adv-x="642" 
d="M624 43q0 -20 -13.5 -33t-31.5 -13q-14 0 -25.5 8.5t-18.5 23.5l-62 147h-309l-61 -148q-5 -15 -16.5 -23t-25.5 -8q-21 0 -32 11t-11 30q0 4 2 16l255 618q7 16 19.5 24.5t28.5 6.5q15 0 27 -8t17 -23l254 -610q3 -9 3 -19zM202 267h233l-117 280zM460 770
q0 -8 -7.5 -14.5t-17.5 -6.5q-7 0 -18 5.5t-23 12.5l-73 47l-70 -47q-12 -8 -22.5 -13t-18.5 -5q-10 0 -17.5 6.5t-7.5 14.5q0 6 3 11.5t9 12.5l69 76q11 13 22 18.5t27 5.5h14q16 0 27.5 -6t22.5 -18l69 -76q12 -13 12 -24zM435 883l-99 51q-14 8 -22 19.5t-8 24.5
q0 17 13.5 29t30.5 12q19 0 41 -18l87 -73q12 -10 12 -23t-8.5 -21t-23.5 -8q-9 0 -23 7z" />
    <glyph glyph-name="uni1EA8" unicode="&#x1ea8;" horiz-adv-x="642" 
d="M624 43q0 -20 -13.5 -33t-31.5 -13q-14 0 -25.5 8.5t-18.5 23.5l-62 147h-309l-61 -148q-5 -15 -16.5 -23t-25.5 -8q-21 0 -32 11t-11 30q0 4 2 16l255 618q7 16 19.5 24.5t28.5 6.5q15 0 27 -8t17 -23l254 -610q3 -9 3 -19zM202 267h233l-117 280zM460 770
q0 -8 -7.5 -14.5t-17.5 -6.5q-7 0 -18 5.5t-23 12.5l-73 47l-70 -47q-12 -8 -22.5 -13t-18.5 -5q-10 0 -17.5 6.5t-7.5 14.5q0 6 3 11.5t9 12.5l69 76q11 13 22 18.5t27 5.5h14q16 0 27.5 -6t22.5 -18l69 -76q12 -13 12 -24zM479 1004q51 0 72.5 -25t21.5 -57q0 -16 -6 -29
t-19 -28q-19 -21 -20 -33q0 -10 -9 -15t-23 -5q-10 0 -17.5 5.5t-7.5 15.5q0 20 16 39q13 15 19 25t6 19q0 12 -10 20t-25 8q-18 0 -43 -17q-9 -7 -17 -7q-11 0 -21 11q-7 7 -7 17q0 13 13 26q35 30 77 30z" />
    <glyph glyph-name="uni1EAA" unicode="&#x1eaa;" horiz-adv-x="642" 
d="M624 43q0 -20 -13.5 -33t-31.5 -13q-14 0 -25.5 8.5t-18.5 23.5l-62 147h-309l-61 -148q-5 -15 -16.5 -23t-25.5 -8q-21 0 -32 11t-11 30q0 4 2 16l255 618q7 16 19.5 24.5t28.5 6.5q15 0 27 -8t17 -23l254 -610q3 -9 3 -19zM202 267h233l-117 280zM460 770
q0 -8 -7.5 -14.5t-17.5 -6.5q-7 0 -18 5.5t-23 12.5l-73 47l-70 -47q-12 -8 -22.5 -13t-18.5 -5q-10 0 -17.5 6.5t-7.5 14.5q0 6 3 11.5t9 12.5l69 76q11 13 22 18.5t27 5.5h14q16 0 27.5 -6t22.5 -18l69 -76q12 -13 12 -24zM160.5 900.5q-11.5 14.5 -11.5 39.5
q0 36 27.5 61t73.5 25q22 0 44 -9.5t50 -26.5q23 -14 34.5 -19.5t21.5 -5.5q12 0 19.5 8t6.5 21q-1 4 -1 10q0 13 8.5 21t21.5 8q19 0 30.5 -15t11.5 -38q0 -33 -24 -60t-65 -27q-24 0 -47.5 10t-54.5 27q-17 9 -32.5 16t-25.5 7q-12 0 -20 -7.5t-8 -21.5q1 -3 1 -8
q0 -14 -9 -22t-22 -8q-18 0 -29.5 14.5z" />
    <glyph glyph-name="uni0200" unicode="&#x200;" horiz-adv-x="642" 
d="M624 43q0 -20 -13.5 -33t-31.5 -13q-14 0 -25.5 8.5t-18.5 23.5l-62 147h-309l-61 -148q-5 -15 -16.5 -23t-25.5 -8q-21 0 -32 11t-11 30q0 4 2 16l255 618q7 16 19.5 24.5t28.5 6.5q15 0 27 -8t17 -23l254 -610q3 -9 3 -19zM202 267h233l-117 280zM412 765l-99 51
q-30 17 -30 44q0 18 13.5 29.5t30.5 11.5q19 0 40 -17l87 -73q13 -12 13 -24t-9 -20t-24 -8q-8 0 -22 6zM222 760l-99 51q-30 15 -30 44q0 17 13.5 29t29.5 12q21 0 41 -18l87 -73q13 -10 13 -23t-9 -21t-24 -8q-10 0 -22 7z" />
    <glyph glyph-name="Adieresis" unicode="&#xc4;" horiz-adv-x="642" 
d="M624 43q0 -20 -13.5 -33t-31.5 -13q-14 0 -25.5 8.5t-18.5 23.5l-62 147h-309l-61 -148q-5 -15 -16.5 -23t-25.5 -8q-21 0 -32 11t-11 30q0 4 2 16l255 618q7 16 19.5 24.5t28.5 6.5q15 0 27 -8t17 -23l254 -610q3 -9 3 -19zM202 267h233l-117 280zM189 777
q-13 11 -13 35v15q0 45 53 45q27 0 40 -10.5t13 -34.5v-15q0 -24 -13 -35t-41 -11q-26 0 -39 11zM377 777q-13 11 -13 35v15q0 24 13 34.5t39 10.5q28 0 41 -10.5t13 -34.5v-15q0 -24 -13 -35t-41 -11q-26 0 -39 11z" />
    <glyph glyph-name="uni1EA0" unicode="&#x1ea0;" horiz-adv-x="642" 
d="M624 43q0 -20 -13.5 -33t-31.5 -13q-14 0 -25.5 8.5t-18.5 23.5l-62 147h-309l-61 -148q-5 -15 -16.5 -23t-25.5 -8q-21 0 -32 11t-11 30q0 4 2 16l255 618q7 16 19.5 24.5t28.5 6.5q15 0 27 -8t17 -23l254 -610q3 -9 3 -19zM202 267h233l-117 280zM281.5 -133
q-12.5 11 -12.5 35v15q0 46 53 46q30 0 42.5 -10.5t12.5 -35.5v-15q0 -25 -13 -35.5t-42 -10.5q-28 0 -40.5 11z" />
    <glyph glyph-name="Agrave" unicode="&#xc0;" horiz-adv-x="642" 
d="M624 43q0 -20 -13.5 -33t-31.5 -13q-14 0 -25.5 8.5t-18.5 23.5l-62 147h-309l-61 -148q-5 -15 -16.5 -23t-25.5 -8q-21 0 -32 11t-11 30q0 4 2 16l255 618q7 16 19.5 24.5t28.5 6.5q15 0 27 -8t17 -23l254 -610q3 -9 3 -19zM202 267h233l-117 280zM299 750l-99 51
q-14 8 -22 19.5t-8 24.5q0 17 13.5 29t30.5 12q19 0 41 -18l87 -73q12 -10 12 -23t-8.5 -21t-23.5 -8q-9 0 -23 7z" />
    <glyph glyph-name="uni1EA2" unicode="&#x1ea2;" horiz-adv-x="642" 
d="M624 43q0 -20 -13.5 -33t-31.5 -13q-14 0 -25.5 8.5t-18.5 23.5l-62 147h-309l-61 -148q-5 -15 -16.5 -23t-25.5 -8q-21 0 -32 11t-11 30q0 4 2 16l255 618q7 16 19.5 24.5t28.5 6.5q15 0 27 -8t17 -23l254 -610q3 -9 3 -19zM202 267h233l-117 280zM312 948
q51 0 72.5 -25t21.5 -57q0 -16 -6 -29t-19 -28q-19 -21 -20 -33q0 -10 -9 -15t-23 -5q-10 0 -17.5 5.5t-7.5 15.5q0 20 16 39q13 15 19 25t6 19q0 12 -10 20t-25 8q-18 0 -43 -17q-9 -7 -17 -7q-11 0 -21 11q-7 7 -7 17q0 13 13 26q35 30 77 30z" />
    <glyph glyph-name="uni0202" unicode="&#x202;" horiz-adv-x="642" 
d="M624 43q0 -20 -13.5 -33t-31.5 -13q-14 0 -25.5 8.5t-18.5 23.5l-62 147h-309l-61 -148q-5 -15 -16.5 -23t-25.5 -8q-21 0 -32 11t-11 30q0 4 2 16l255 618q7 16 19.5 24.5t28.5 6.5q15 0 27 -8t17 -23l254 -610q3 -9 3 -19zM202 267h233l-117 280zM416 876
q40 -26 52 -69q3 -9 3 -16q0 -13 -8 -20.5t-21 -7.5q-16 0 -26 7.5t-21 23.5q-20 37 -73 37q-26 0 -45 -9.5t-28 -27.5q-11 -16 -21 -23.5t-27 -7.5q-13 0 -21 7.5t-8 19.5q0 8 3 15q13 44 53 70.5t94 26.5t94 -26z" />
    <glyph glyph-name="Amacron" unicode="&#x100;" horiz-adv-x="642" 
d="M624 43q0 -20 -13.5 -33t-31.5 -13q-14 0 -25.5 8.5t-18.5 23.5l-62 147h-309l-61 -148q-5 -15 -16.5 -23t-25.5 -8q-21 0 -32 11t-11 30q0 4 2 16l255 618q7 16 19.5 24.5t28.5 6.5q15 0 27 -8t17 -23l254 -610q3 -9 3 -19zM202 267h233l-117 280zM170.5 774.5
q-10.5 9.5 -10.5 27.5q0 36 41 36h248q41 0 41 -36q0 -18 -10.5 -27.5t-30.5 -9.5h-248q-20 0 -30.5 9.5z" />
    <glyph glyph-name="Aogonek" unicode="&#x104;" horiz-adv-x="645" 
d="M633 -106q10 -10 10 -27q0 -15 -14.5 -31t-38 -26t-49.5 -10q-47 0 -78.5 26.5t-31.5 75.5t28 80t74 51l-60 143h-309l-61 -148q-5 -15 -16.5 -23t-25.5 -8q-23 0 -32.5 9.5t-9.5 29.5v5q0 8 3 15l253 616q7 16 19.5 24.5t28.5 6.5q15 0 27 -8t17 -23l261 -628
q4 -7 4 -14q0 -11 -6.5 -19.5t-19.5 -11.5q-40 -11 -67 -33t-27 -47q0 -21 11 -32.5t26 -11.5q16 0 25 12q12 17 34 17q15 0 25 -10zM202 267h233l-117 280z" />
    <glyph glyph-name="Aring" unicode="&#xc5;" horiz-adv-x="645" 
d="M624 43q0 -20 -13.5 -33t-31.5 -13q-14 0 -25.5 8.5t-18.5 23.5l-62 147h-309l-61 -148q-5 -15 -16.5 -23t-25.5 -8q-21 0 -32 11t-11 30q0 4 2 16l250 606q-25 14 -40.5 38.5t-15.5 52.5q0 43 32.5 74t76.5 31q43 0 76 -31t33 -74q0 -29 -16.5 -54t-42.5 -39l248 -596
q3 -9 3 -19zM287.5 785q-14.5 -13 -14.5 -34q0 -20 14.5 -33.5t35.5 -13.5t35.5 13.5t14.5 33.5q0 21 -15 34t-35 13q-21 0 -35.5 -13zM202 267h233l-117 280z" />
    <glyph glyph-name="Aringacute" unicode="&#x1fa;" horiz-adv-x="645" 
d="M624 43q0 -20 -13.5 -33t-31.5 -13q-14 0 -25.5 8.5t-18.5 23.5l-62 147h-309l-61 -148q-5 -15 -16.5 -23t-25.5 -8q-21 0 -32 11t-11 30q0 4 2 16l250 606q-25 14 -40.5 38.5t-15.5 52.5q0 43 32.5 74t76.5 31q43 0 76 -31t33 -74q0 -29 -16.5 -54t-42.5 -39l248 -596
q3 -9 3 -19zM287.5 785q-14.5 -13 -14.5 -34q0 -20 14.5 -33.5t35.5 -13.5t35.5 13.5t14.5 33.5q0 21 -15 34t-35 13q-21 0 -35.5 -13zM202 267h233l-117 280zM300.5 901.5q-8.5 7.5 -8.5 20.5t12 23l88 74q21 17 40 17q17 0 30.5 -12t13.5 -29q0 -13 -8 -25t-22 -19
l-99 -51q-12 -6 -23 -6q-15 0 -23.5 7.5z" />
    <glyph glyph-name="Atilde" unicode="&#xc3;" horiz-adv-x="642" 
d="M624 43q0 -20 -13.5 -33t-31.5 -13q-14 0 -25.5 8.5t-18.5 23.5l-62 147h-309l-61 -148q-5 -15 -16.5 -23t-25.5 -8q-21 0 -32 11t-11 30q0 4 2 16l255 618q7 16 19.5 24.5t28.5 6.5q15 0 27 -8t17 -23l254 -610q3 -9 3 -19zM202 267h233l-117 280zM160.5 764.5
q-11.5 14.5 -11.5 39.5q0 36 27.5 61t73.5 25q22 0 44 -9.5t50 -26.5q23 -14 34.5 -19.5t21.5 -5.5q12 0 19.5 8t6.5 21q-1 4 -1 10q0 13 8.5 21t21.5 8q19 0 30.5 -15t11.5 -38q0 -33 -24 -60t-65 -27q-24 0 -47.5 10t-54.5 27q-17 9 -32.5 16t-25.5 7q-12 0 -20 -7.5
t-8 -21.5q1 -3 1 -8q0 -14 -9 -22t-22 -8q-18 0 -29.5 14.5z" />
    <glyph glyph-name="AE" unicode="&#xc6;" horiz-adv-x="899" 
d="M842 78q14 -14 14 -33q0 -20 -14 -32.5t-35 -12.5h-331q-20 0 -34 14t-14 34v106h-249l-94 -138q-15 -20 -35 -20q-17 0 -30 12t-14 31q-1 15 9 32l425 608q16 21 44 21h323q21 0 35 -13t14 -34q0 -20 -14 -32.5t-35 -12.5h-281v-207h236q21 0 35 -13t14 -34
q0 -20 -14 -32.5t-35 -12.5h-236v-217h281q21 0 35 -14zM428 518l-187 -274h187v274z" />
    <glyph glyph-name="AEacute" unicode="&#x1fc;" horiz-adv-x="899" 
d="M842 78q14 -14 14 -33q0 -20 -14 -32.5t-35 -12.5h-331q-20 0 -34 14t-14 34v106h-249l-94 -138q-15 -20 -35 -20q-17 0 -30 12t-14 31q-1 15 9 32l425 608q16 21 44 21h323q21 0 35 -13t14 -34q0 -20 -14 -32.5t-35 -12.5h-281v-207h236q21 0 35 -13t14 -34
q0 -20 -14 -32.5t-35 -12.5h-236v-217h281q21 0 35 -14zM428 518l-187 -274h187v274zM585.5 748.5q-8.5 7.5 -8.5 20.5t12 23l88 74q21 17 40 17q17 0 30.5 -12t13.5 -29q0 -13 -8 -25t-22 -19l-99 -51q-12 -6 -23 -6q-15 0 -23.5 7.5z" />
    <glyph glyph-name="B" unicode="B" horiz-adv-x="653" 
d="M574.5 319.5q35.5 -43.5 35.5 -113.5q0 -111 -64.5 -158.5t-157.5 -47.5h-257q-20 0 -34 14t-14 34v604q0 20 14 34t34 14h257q91 0 138.5 -45t47.5 -130q0 -48 -23 -85.5t-67 -57.5q55 -19 90.5 -62.5zM445.5 581.5q-25.5 24.5 -71.5 24.5h-189v-195h191q41 1 68 26.5
t27 72.5t-25.5 71.5zM475 120.5q33 28.5 33 85.5q0 111 -126 111h-197v-225h202q55 0 88 28.5z" />
    <glyph glyph-name="C" unicode="C" horiz-adv-x="638" 
d="M606 619q0 -18 -12 -33q-12 -16 -33 -16q-14 0 -27 7q-62 35 -134 35q-75 0 -132.5 -33t-89.5 -92.5t-32 -136.5q0 -83 33 -143t91 -91.5t130 -31.5q74 0 134 36q12 6 26 6q22 0 35 -17q12 -15 12 -32q0 -12 -6.5 -22.5t-17.5 -16.5q-39 -22 -87.5 -35t-95.5 -13
q-97 0 -178.5 43t-130 125t-48.5 192q0 101 46.5 182.5t128 128t182.5 46.5q97 0 182 -48q24 -13 24 -40z" />
    <glyph glyph-name="Cacute" unicode="&#x106;" horiz-adv-x="638" 
d="M606 619q0 -18 -12 -33q-12 -16 -33 -16q-14 0 -27 7q-62 35 -134 35q-75 0 -132.5 -33t-89.5 -92.5t-32 -136.5q0 -83 33 -143t91 -91.5t130 -31.5q74 0 134 36q12 6 26 6q22 0 35 -17q12 -15 12 -32q0 -12 -6.5 -22.5t-17.5 -16.5q-39 -22 -87.5 -35t-95.5 -13
q-97 0 -178.5 43t-130 125t-48.5 192q0 101 46.5 182.5t128 128t182.5 46.5q97 0 182 -48q24 -13 24 -40zM352.5 748.5q-8.5 7.5 -8.5 20.5t12 23l88 74q21 17 40 17q17 0 30.5 -12t13.5 -29q0 -13 -8 -25t-22 -19l-99 -51q-12 -6 -23 -6q-15 0 -23.5 7.5z" />
    <glyph glyph-name="Ccaron" unicode="&#x10c;" horiz-adv-x="638" 
d="M606 619q0 -18 -12 -33q-12 -16 -33 -16q-14 0 -27 7q-62 35 -134 35q-75 0 -132.5 -33t-89.5 -92.5t-32 -136.5q0 -83 33 -143t91 -91.5t130 -31.5q74 0 134 36q12 6 26 6q22 0 35 -17q12 -15 12 -32q0 -12 -6.5 -22.5t-17.5 -16.5q-39 -22 -87.5 -35t-95.5 -13
q-97 0 -178.5 43t-130 125t-48.5 192q0 101 46.5 182.5t128 128t182.5 46.5q97 0 182 -48q24 -13 24 -40zM505.5 884.5q7.5 -6.5 7.5 -14.5q0 -6 -2.5 -11t-10.5 -13l-68 -76q-11 -12 -22.5 -18t-27.5 -6h-14q-16 0 -27.5 6t-21.5 18l-69 76q-6 7 -9 12.5t-3 11.5
q0 8 7 14.5t18 6.5q17 0 41 -17l72 -49l70 49q24 17 41 17q11 0 18.5 -6.5z" />
    <glyph glyph-name="Ccedilla" unicode="&#xc7;" horiz-adv-x="638" 
d="M607 77q0 -12 -6.5 -22.5t-17.5 -16.5q-37 -21 -81.5 -34t-89.5 -14l-45 -111q-10 -27 -34 -27q-16 0 -36 12t-20 28q0 14 10 25l59 77q-85 11 -154 57t-109 122.5t-40 176.5q0 101 46.5 182.5t128 128t182.5 46.5q97 0 182 -48q24 -13 24 -40q0 -18 -12 -33
q-12 -16 -33 -16q-14 0 -27 7q-62 35 -134 35q-75 0 -132.5 -33t-89.5 -92.5t-32 -136.5q0 -83 33 -143t91 -91.5t130 -31.5q74 0 134 36q12 6 26 6q22 0 35 -17q12 -15 12 -32z" />
    <glyph glyph-name="uni1E08" unicode="&#x1e08;" horiz-adv-x="638" 
d="M352.5 748.5q-8.5 7.5 -8.5 20.5t12 23l88 74q21 17 40 17q17 0 30.5 -12t13.5 -29q0 -13 -8 -25t-22 -19l-99 -51q-12 -6 -23 -6q-15 0 -23.5 7.5zM607 77q0 -12 -6.5 -22.5t-17.5 -16.5q-37 -21 -81.5 -34t-89.5 -14l-45 -111q-10 -27 -34 -27q-16 0 -36 12t-20 28
q0 14 10 25l59 77q-85 11 -154 57t-109 122.5t-40 176.5q0 101 46.5 182.5t128 128t182.5 46.5q97 0 182 -48q24 -13 24 -40q0 -18 -12 -33q-12 -16 -33 -16q-14 0 -27 7q-62 35 -134 35q-75 0 -132.5 -33t-89.5 -92.5t-32 -136.5q0 -83 33 -143t91 -91.5t130 -31.5
q74 0 134 36q12 6 26 6q22 0 35 -17q12 -15 12 -32z" />
    <glyph glyph-name="Ccircumflex" unicode="&#x108;" horiz-adv-x="638" 
d="M606 619q0 -18 -12 -33q-12 -16 -33 -16q-14 0 -27 7q-62 35 -134 35q-75 0 -132.5 -33t-89.5 -92.5t-32 -136.5q0 -83 33 -143t91 -91.5t130 -31.5q74 0 134 36q12 6 26 6q22 0 35 -17q12 -15 12 -32q0 -12 -6.5 -22.5t-17.5 -16.5q-39 -22 -87.5 -35t-95.5 -13
q-97 0 -178.5 43t-130 125t-48.5 192q0 101 46.5 182.5t128 128t182.5 46.5q97 0 182 -48q24 -13 24 -40zM512 770q0 -8 -7.5 -14.5t-17.5 -6.5q-7 0 -18 5.5t-23 12.5l-73 47l-70 -47q-12 -8 -22.5 -13t-18.5 -5q-10 0 -17.5 6.5t-7.5 14.5q0 6 3 11.5t9 12.5l69 76
q11 13 22 18.5t27 5.5h14q16 0 27.5 -6t22.5 -18l69 -76q12 -13 12 -24z" />
    <glyph glyph-name="Cdotaccent" unicode="&#x10a;" horiz-adv-x="638" 
d="M606 619q0 -18 -12 -33q-12 -16 -33 -16q-14 0 -27 7q-62 35 -134 35q-75 0 -132.5 -33t-89.5 -92.5t-32 -136.5q0 -83 33 -143t91 -91.5t130 -31.5q74 0 134 36q12 6 26 6q22 0 35 -17q12 -15 12 -32q0 -12 -6.5 -22.5t-17.5 -16.5q-39 -22 -87.5 -35t-95.5 -13
q-97 0 -178.5 43t-130 125t-48.5 192q0 101 46.5 182.5t128 128t182.5 46.5q97 0 182 -48q24 -13 24 -40zM333.5 763.5q-12.5 10.5 -12.5 34.5v16q0 24 13.5 34.5t40.5 10.5q29 0 41.5 -10.5t12.5 -34.5v-16q0 -24 -13 -34.5t-42 -10.5q-28 0 -40.5 10.5z" />
    <glyph glyph-name="D" unicode="D" horiz-adv-x="717" 
d="M538 653q67 -47 101 -126.5t34 -176.5q0 -98 -34 -177.5t-101 -126t-161 -46.5h-246q-20 0 -34 14t-14 34v604q0 20 14 34t34 14h246q94 0 161 -47zM520 164.5q51 72.5 51 185.5q0 112 -51.5 185t-152.5 73h-185v-516h185q102 0 153 72.5z" />
    <glyph glyph-name="uni01C4" unicode="&#x1c4;" horiz-adv-x="1363" 
d="M538 653q67 -47 101 -126.5t34 -176.5q0 -98 -34 -177.5t-101 -126t-161 -46.5h-246q-20 0 -34 14t-14 34v604q0 20 14 34t34 14h246q94 0 161 -47zM520 164.5q51 72.5 51 185.5q0 112 -51.5 185t-152.5 73h-185v-516h185q102 0 153 72.5zM1300.5 78.5
q13.5 -12.5 13.5 -32.5t-14 -33t-34 -13h-456q-21 0 -35.5 14.5t-14.5 32.5q0 16 11 30l408 532h-335q-21 0 -34.5 13t-13.5 33t13.5 32.5t34.5 12.5h428q20 0 36 -13.5t16 -33.5q0 -14 -11 -30l-408 -532h361q21 0 34.5 -12.5zM1170.5 884.5q7.5 -6.5 7.5 -14.5
q0 -6 -2.5 -11t-10.5 -13l-68 -76q-11 -12 -22.5 -18t-27.5 -6h-14q-16 0 -27.5 6t-21.5 18l-69 76q-6 7 -9 12.5t-3 11.5q0 8 7 14.5t18 6.5q17 0 41 -17l72 -49l70 49q24 17 41 17q11 0 18.5 -6.5z" />
    <glyph glyph-name="Eth" unicode="&#xd0;" horiz-adv-x="717" 
d="M538 653q67 -47 101 -126.5t34 -176.5q0 -98 -34 -177.5t-101 -126t-161 -46.5h-246q-20 0 -34 14t-14 34v260h-30q-21 0 -34.5 12.5t-13.5 32.5q0 19 13.5 31t34.5 12h30v256q0 20 14 34t34 14h246q94 0 161 -47zM520 164.5q51 72.5 51 185.5q0 112 -51.5 185t-152.5 73
h-185v-212h41q21 0 34.5 -12.5t13.5 -31.5t-13.5 -31.5t-34.5 -12.5h-41v-216h185q102 0 153 72.5z" />
    <glyph glyph-name="Dcaron" unicode="&#x10e;" horiz-adv-x="717" 
d="M538 653q67 -47 101 -126.5t34 -176.5q0 -98 -34 -177.5t-101 -126t-161 -46.5h-246q-20 0 -34 14t-14 34v604q0 20 14 34t34 14h246q94 0 161 -47zM520 164.5q51 72.5 51 185.5q0 112 -51.5 185t-152.5 73h-185v-516h185q102 0 153 72.5zM440.5 884.5
q7.5 -6.5 7.5 -14.5q0 -6 -2.5 -11t-10.5 -13l-68 -76q-11 -12 -22.5 -18t-27.5 -6h-14q-16 0 -27.5 6t-21.5 18l-69 76q-6 7 -9 12.5t-3 11.5q0 8 7 14.5t18 6.5q17 0 41 -17l72 -49l70 49q24 17 41 17q11 0 18.5 -6.5z" />
    <glyph glyph-name="Dcroat" unicode="&#x110;" horiz-adv-x="717" 
d="M538 653q67 -47 101 -126.5t34 -176.5q0 -98 -34 -177.5t-101 -126t-161 -46.5h-246q-20 0 -34 14t-14 34v260h-30q-21 0 -34.5 12.5t-13.5 32.5q0 19 13.5 31t34.5 12h30v256q0 20 14 34t34 14h246q94 0 161 -47zM520 164.5q51 72.5 51 185.5q0 112 -51.5 185t-152.5 73
h-185v-212h41q21 0 34.5 -12.5t13.5 -31.5t-13.5 -31.5t-34.5 -12.5h-41v-216h185q102 0 153 72.5z" />
    <glyph glyph-name="uni1E0C" unicode="&#x1e0c;" horiz-adv-x="717" 
d="M538 653q67 -47 101 -126.5t34 -176.5q0 -98 -34 -177.5t-101 -126t-161 -46.5h-246q-20 0 -34 14t-14 34v604q0 20 14 34t34 14h246q94 0 161 -47zM520 164.5q51 72.5 51 185.5q0 112 -51.5 185t-152.5 73h-185v-516h185q102 0 153 72.5zM277.5 -133q-12.5 11 -12.5 35
v15q0 46 53 46q30 0 42.5 -10.5t12.5 -35.5v-15q0 -25 -13 -35.5t-42 -10.5q-28 0 -40.5 11z" />
    <glyph glyph-name="uni1E0E" unicode="&#x1e0e;" horiz-adv-x="717" 
d="M538 653q67 -47 101 -126.5t34 -176.5q0 -98 -34 -177.5t-101 -126t-161 -46.5h-246q-20 0 -34 14t-14 34v604q0 20 14 34t34 14h246q94 0 161 -47zM520 164.5q51 72.5 51 185.5q0 112 -51.5 185t-152.5 73h-185v-516h185q102 0 153 72.5zM182.5 -131.5
q-10.5 9.5 -10.5 26.5t11 27t30 10h229q19 0 29.5 -10t10.5 -27t-10.5 -26.5t-29.5 -9.5h-229q-20 0 -30.5 9.5z" />
    <glyph glyph-name="uni01F2" unicode="&#x1f2;" horiz-adv-x="1198" 
d="M538 653q67 -47 101 -126.5t34 -176.5q0 -98 -34 -177.5t-101 -126t-161 -46.5h-246q-20 0 -34 14t-14 34v604q0 20 14 34t34 14h246q94 0 161 -47zM520 164.5q51 72.5 51 185.5q0 112 -51.5 185t-152.5 73h-185v-516h185q102 0 153 72.5zM1151 75.5q13 -12.5 13 -31.5
t-13 -31.5t-32 -12.5h-323q-19 0 -31.5 14t-12.5 29q1 13 4 21.5t11 19.5l262 350h-217q-19 0 -32 13t-13 32t12.5 31t32.5 12h307q19 0 31.5 -14t11.5 -34q-1 -10 -3.5 -17.5t-10.5 -16.5l-264 -352h235q19 0 32 -12.5z" />
    <glyph glyph-name="uni01C5" unicode="&#x1c5;" horiz-adv-x="1199" 
d="M538 653q67 -47 101 -126.5t34 -176.5q0 -98 -34 -177.5t-101 -126t-161 -46.5h-246q-20 0 -34 14t-14 34v604q0 20 14 34t34 14h246q94 0 161 -47zM520 164.5q51 72.5 51 185.5q0 112 -51.5 185t-152.5 73h-185v-516h185q102 0 153 72.5zM1152 75.5q13 -12.5 13 -31.5
t-13 -31.5t-32 -12.5h-323q-19 0 -31.5 14t-12.5 29q1 13 4 21.5t11 19.5l262 350h-217q-19 0 -32 13t-13 32t12.5 31t32.5 12h307q19 0 31.5 -14t11.5 -34q-1 -10 -3.5 -17.5t-10.5 -16.5l-264 -352h235q19 0 32 -12.5zM1087 718.5q8 -6.5 8 -14.5q0 -14 -13 -28l-55 -65
q-18 -24 -50 -24h-28q-16 0 -27.5 5.5t-21.5 18.5l-56 65q-10 13 -10 25q0 11 8.5 17.5t23.5 6.5t37 -19l62 -52l60 52q12 10 21 14.5t23 4.5q10 0 18 -6.5z" />
    <glyph glyph-name="E" unicode="E" horiz-adv-x="570" 
d="M513.5 78q13.5 -14 13.5 -33q0 -20 -13.5 -32.5t-34.5 -12.5h-348q-20 0 -34 14t-14 34v604q0 20 14 34t34 14h348q21 0 34.5 -13t13.5 -34q0 -20 -13.5 -32.5t-34.5 -12.5h-297v-204h252q21 0 34.5 -13t13.5 -33q0 -21 -13.5 -33t-34.5 -12h-252v-221h297q21 0 34.5 -14
z" />
    <glyph glyph-name="Eacute" unicode="&#xc9;" horiz-adv-x="570" 
d="M513.5 78q13.5 -14 13.5 -33q0 -20 -13.5 -32.5t-34.5 -12.5h-348q-20 0 -34 14t-14 34v604q0 20 14 34t34 14h348q21 0 34.5 -13t13.5 -34q0 -20 -13.5 -32.5t-34.5 -12.5h-297v-204h252q21 0 34.5 -13t13.5 -33q0 -21 -13.5 -33t-34.5 -12h-252v-221h297q21 0 34.5 -14
zM288.5 748.5q-8.5 7.5 -8.5 20.5t12 23l88 74q21 17 40 17q17 0 30.5 -12t13.5 -29q0 -13 -8 -25t-22 -19l-99 -51q-12 -6 -23 -6q-15 0 -23.5 7.5z" />
    <glyph glyph-name="Ebreve" unicode="&#x114;" horiz-adv-x="570" 
d="M513.5 78q13.5 -14 13.5 -33q0 -20 -13.5 -32.5t-34.5 -12.5h-348q-20 0 -34 14t-14 34v604q0 20 14 34t34 14h348q21 0 34.5 -13t13.5 -34q0 -20 -13.5 -32.5t-34.5 -12.5h-297v-204h252q21 0 34.5 -13t13.5 -33q0 -21 -13.5 -33t-34.5 -12h-252v-221h297q21 0 34.5 -14
zM217.5 790q-39.5 25 -55.5 71q-4 9 -4 18q0 13 7.5 20t20.5 7q16 0 25 -7t23 -24q25 -40 77 -40q54 0 77 40q10 16 20.5 23t26.5 7q14 0 21.5 -6.5t7.5 -19.5q0 -8 -3 -17q-16 -46 -55.5 -71.5t-94.5 -25.5q-54 0 -93.5 25z" />
    <glyph glyph-name="Ecaron" unicode="&#x11a;" horiz-adv-x="570" 
d="M513.5 78q13.5 -14 13.5 -33q0 -20 -13.5 -32.5t-34.5 -12.5h-348q-20 0 -34 14t-14 34v604q0 20 14 34t34 14h348q21 0 34.5 -13t13.5 -34q0 -20 -13.5 -32.5t-34.5 -12.5h-297v-204h252q21 0 34.5 -13t13.5 -33q0 -21 -13.5 -33t-34.5 -12h-252v-221h297q21 0 34.5 -14
zM441.5 884.5q7.5 -6.5 7.5 -14.5q0 -6 -2.5 -11t-10.5 -13l-68 -76q-11 -12 -22.5 -18t-27.5 -6h-14q-16 0 -27.5 6t-21.5 18l-69 76q-6 7 -9 12.5t-3 11.5q0 8 7 14.5t18 6.5q17 0 41 -17l72 -49l70 49q24 17 41 17q11 0 18.5 -6.5z" />
    <glyph glyph-name="uni1E1C" unicode="&#x1e1c;" horiz-adv-x="570" 
d="M217.5 790q-39.5 25 -55.5 71q-4 9 -4 18q0 13 7.5 20t20.5 7q16 0 25 -7t23 -24q25 -40 77 -40q54 0 77 40q10 16 20.5 23t26.5 7q14 0 21.5 -6.5t7.5 -19.5q0 -8 -3 -17q-16 -46 -55.5 -71.5t-94.5 -25.5q-54 0 -93.5 25zM513.5 78q13.5 -14 13.5 -33
q0 -20 -13.5 -32.5t-34.5 -12.5h-158l-49 -121q-10 -27 -34 -27q-16 0 -36 12t-20 28q0 14 10 25l64 83h-125q-20 0 -34 14t-14 34v604q0 20 14 34t34 14h348q21 0 34.5 -13t13.5 -34q0 -20 -13.5 -32.5t-34.5 -12.5h-297v-204h252q21 0 34.5 -13t13.5 -33q0 -21 -13.5 -33
t-34.5 -12h-252v-221h297q21 0 34.5 -14z" />
    <glyph glyph-name="Ecircumflex" unicode="&#xca;" horiz-adv-x="570" 
d="M513.5 78q13.5 -14 13.5 -33q0 -20 -13.5 -32.5t-34.5 -12.5h-348q-20 0 -34 14t-14 34v604q0 20 14 34t34 14h348q21 0 34.5 -13t13.5 -34q0 -20 -13.5 -32.5t-34.5 -12.5h-297v-204h252q21 0 34.5 -13t13.5 -33q0 -21 -13.5 -33t-34.5 -12h-252v-221h297q21 0 34.5 -14
zM448 770q0 -8 -7.5 -14.5t-17.5 -6.5q-7 0 -18 5.5t-23 12.5l-73 47l-70 -47q-12 -8 -22.5 -13t-18.5 -5q-10 0 -17.5 6.5t-7.5 14.5q0 6 3 11.5t9 12.5l69 76q11 13 22 18.5t27 5.5h14q16 0 27.5 -6t22.5 -18l69 -76q12 -13 12 -24z" />
    <glyph glyph-name="uni1EBE" unicode="&#x1ebe;" horiz-adv-x="570" 
d="M513.5 78q13.5 -14 13.5 -33q0 -20 -13.5 -32.5t-34.5 -12.5h-348q-20 0 -34 14t-14 34v604q0 20 14 34t34 14h348q21 0 34.5 -13t13.5 -34q0 -20 -13.5 -32.5t-34.5 -12.5h-297v-204h252q21 0 34.5 -13t13.5 -33q0 -21 -13.5 -33t-34.5 -12h-252v-221h297q21 0 34.5 -14
zM448 770q0 -8 -7.5 -14.5t-17.5 -6.5q-7 0 -18 5.5t-23 12.5l-73 47l-70 -47q-12 -8 -22.5 -13t-18.5 -5q-10 0 -17.5 6.5t-7.5 14.5q0 6 3 11.5t9 12.5l69 76q11 13 22 18.5t27 5.5h14q16 0 27.5 -6t22.5 -18l69 -76q12 -13 12 -24zM452.5 825.5q-8.5 7.5 -8.5 20.5t12 23
l88 74q21 17 40 17q17 0 30.5 -12t13.5 -29q0 -13 -8 -25t-22 -19l-99 -51q-12 -6 -23 -6q-15 0 -23.5 7.5z" />
    <glyph glyph-name="uni1EC6" unicode="&#x1ec6;" horiz-adv-x="570" 
d="M513.5 78q13.5 -14 13.5 -33q0 -20 -13.5 -32.5t-34.5 -12.5h-348q-20 0 -34 14t-14 34v604q0 20 14 34t34 14h348q21 0 34.5 -13t13.5 -34q0 -20 -13.5 -32.5t-34.5 -12.5h-297v-204h252q21 0 34.5 -13t13.5 -33q0 -21 -13.5 -33t-34.5 -12h-252v-221h297q21 0 34.5 -14
zM255.5 -133q-12.5 11 -12.5 35v15q0 46 53 46q30 0 42.5 -10.5t12.5 -35.5v-15q0 -25 -13 -35.5t-42 -10.5q-28 0 -40.5 11zM448 770q0 -8 -7.5 -14.5t-17.5 -6.5q-7 0 -18 5.5t-23 12.5l-73 47l-70 -47q-12 -8 -22.5 -13t-18.5 -5q-10 0 -17.5 6.5t-7.5 14.5q0 6 3 11.5
t9 12.5l69 76q11 13 22 18.5t27 5.5h14q16 0 27.5 -6t22.5 -18l69 -76q12 -13 12 -24z" />
    <glyph glyph-name="uni1EC0" unicode="&#x1ec0;" horiz-adv-x="570" 
d="M513.5 78q13.5 -14 13.5 -33q0 -20 -13.5 -32.5t-34.5 -12.5h-348q-20 0 -34 14t-14 34v604q0 20 14 34t34 14h348q21 0 34.5 -13t13.5 -34q0 -20 -13.5 -32.5t-34.5 -12.5h-297v-204h252q21 0 34.5 -13t13.5 -33q0 -21 -13.5 -33t-34.5 -12h-252v-221h297q21 0 34.5 -14
zM448 770q0 -8 -7.5 -14.5t-17.5 -6.5q-7 0 -18 5.5t-23 12.5l-73 47l-70 -47q-12 -8 -22.5 -13t-18.5 -5q-10 0 -17.5 6.5t-7.5 14.5q0 6 3 11.5t9 12.5l69 76q11 13 22 18.5t27 5.5h14q16 0 27.5 -6t22.5 -18l69 -76q12 -13 12 -24zM424 886l-99 51q-14 8 -22 19.5
t-8 24.5q0 17 13.5 29t30.5 12q19 0 41 -18l87 -73q12 -10 12 -23t-8.5 -21t-23.5 -8q-9 0 -23 7z" />
    <glyph glyph-name="uni1EC2" unicode="&#x1ec2;" horiz-adv-x="570" 
d="M513.5 78q13.5 -14 13.5 -33q0 -20 -13.5 -32.5t-34.5 -12.5h-348q-20 0 -34 14t-14 34v604q0 20 14 34t34 14h348q21 0 34.5 -13t13.5 -34q0 -20 -13.5 -32.5t-34.5 -12.5h-297v-204h252q21 0 34.5 -13t13.5 -33q0 -21 -13.5 -33t-34.5 -12h-252v-221h297q21 0 34.5 -14
zM448 770q0 -8 -7.5 -14.5t-17.5 -6.5q-7 0 -18 5.5t-23 12.5l-73 47l-70 -47q-12 -8 -22.5 -13t-18.5 -5q-10 0 -17.5 6.5t-7.5 14.5q0 6 3 11.5t9 12.5l69 76q11 13 22 18.5t27 5.5h14q16 0 27.5 -6t22.5 -18l69 -76q12 -13 12 -24zM300 1163q51 0 72.5 -25t21.5 -57
q0 -16 -6 -29t-19 -28q-19 -21 -20 -33q0 -10 -9 -15t-23 -5q-10 0 -17.5 5.5t-7.5 15.5q0 20 16 39q13 15 19 25t6 19q0 12 -10 20t-25 8q-18 0 -43 -17q-9 -7 -17 -7q-11 0 -21 11q-7 7 -7 17q0 13 13 26q35 30 77 30z" />
    <glyph glyph-name="uni1EC4" unicode="&#x1ec4;" horiz-adv-x="570" 
d="M513.5 78q13.5 -14 13.5 -33q0 -20 -13.5 -32.5t-34.5 -12.5h-348q-20 0 -34 14t-14 34v604q0 20 14 34t34 14h348q21 0 34.5 -13t13.5 -34q0 -20 -13.5 -32.5t-34.5 -12.5h-297v-204h252q21 0 34.5 -13t13.5 -33q0 -21 -13.5 -33t-34.5 -12h-252v-221h297q21 0 34.5 -14
zM448 770q0 -8 -7.5 -14.5t-17.5 -6.5q-7 0 -18 5.5t-23 12.5l-73 47l-70 -47q-12 -8 -22.5 -13t-18.5 -5q-10 0 -17.5 6.5t-7.5 14.5q0 6 3 11.5t9 12.5l69 76q11 13 22 18.5t27 5.5h14q16 0 27.5 -6t22.5 -18l69 -76q12 -13 12 -24zM148.5 911.5q-11.5 14.5 -11.5 39.5
q0 36 27.5 61t73.5 25q22 0 44 -9.5t50 -26.5q23 -14 34.5 -19.5t21.5 -5.5q12 0 19.5 8t6.5 21q-1 4 -1 10q0 13 8.5 21t21.5 8q19 0 30.5 -15t11.5 -38q0 -33 -24 -60t-65 -27q-24 0 -47.5 10t-54.5 27q-17 9 -32.5 16t-25.5 7q-12 0 -20 -7.5t-8 -21.5q1 -3 1 -8
q0 -14 -9 -22t-22 -8q-18 0 -29.5 14.5z" />
    <glyph glyph-name="uni0204" unicode="&#x204;" horiz-adv-x="570" 
d="M513.5 78q13.5 -14 13.5 -33q0 -20 -13.5 -32.5t-34.5 -12.5h-348q-20 0 -34 14t-14 34v604q0 20 14 34t34 14h348q21 0 34.5 -13t13.5 -34q0 -20 -13.5 -32.5t-34.5 -12.5h-297v-204h252q21 0 34.5 -13t13.5 -33q0 -21 -13.5 -33t-34.5 -12h-252v-221h297q21 0 34.5 -14
zM400 765l-99 51q-30 17 -30 44q0 18 13.5 29.5t30.5 11.5q19 0 40 -17l87 -73q13 -12 13 -24t-9 -20t-24 -8q-8 0 -22 6zM210 760l-99 51q-30 15 -30 44q0 17 13.5 29t29.5 12q21 0 41 -18l87 -73q13 -10 13 -23t-9 -21t-24 -8q-10 0 -22 7z" />
    <glyph glyph-name="Edieresis" unicode="&#xcb;" horiz-adv-x="570" 
d="M513.5 78q13.5 -14 13.5 -33q0 -20 -13.5 -32.5t-34.5 -12.5h-348q-20 0 -34 14t-14 34v604q0 20 14 34t34 14h348q21 0 34.5 -13t13.5 -34q0 -20 -13.5 -32.5t-34.5 -12.5h-297v-204h252q21 0 34.5 -13t13.5 -33q0 -21 -13.5 -33t-34.5 -12h-252v-221h297q21 0 34.5 -14
zM177 777q-13 11 -13 35v15q0 45 53 45q27 0 40 -10.5t13 -34.5v-15q0 -24 -13 -35t-41 -11q-26 0 -39 11zM365 777q-13 11 -13 35v15q0 24 13 34.5t39 10.5q28 0 41 -10.5t13 -34.5v-15q0 -24 -13 -35t-41 -11q-26 0 -39 11z" />
    <glyph glyph-name="Edotaccent" unicode="&#x116;" horiz-adv-x="570" 
d="M513.5 78q13.5 -14 13.5 -33q0 -20 -13.5 -32.5t-34.5 -12.5h-348q-20 0 -34 14t-14 34v604q0 20 14 34t34 14h348q21 0 34.5 -13t13.5 -34q0 -20 -13.5 -32.5t-34.5 -12.5h-297v-204h252q21 0 34.5 -13t13.5 -33q0 -21 -13.5 -33t-34.5 -12h-252v-221h297q21 0 34.5 -14
zM269.5 763.5q-12.5 10.5 -12.5 34.5v16q0 24 13.5 34.5t40.5 10.5q29 0 41.5 -10.5t12.5 -34.5v-16q0 -24 -13 -34.5t-42 -10.5q-28 0 -40.5 10.5z" />
    <glyph glyph-name="uni1EB8" unicode="&#x1eb8;" horiz-adv-x="570" 
d="M513.5 78q13.5 -14 13.5 -33q0 -20 -13.5 -32.5t-34.5 -12.5h-348q-20 0 -34 14t-14 34v604q0 20 14 34t34 14h348q21 0 34.5 -13t13.5 -34q0 -20 -13.5 -32.5t-34.5 -12.5h-297v-204h252q21 0 34.5 -13t13.5 -33q0 -21 -13.5 -33t-34.5 -12h-252v-221h297q21 0 34.5 -14
zM255.5 -133q-12.5 11 -12.5 35v15q0 46 53 46q30 0 42.5 -10.5t12.5 -35.5v-15q0 -25 -13 -35.5t-42 -10.5q-28 0 -40.5 11z" />
    <glyph glyph-name="Egrave" unicode="&#xc8;" horiz-adv-x="570" 
d="M513.5 78q13.5 -14 13.5 -33q0 -20 -13.5 -32.5t-34.5 -12.5h-348q-20 0 -34 14t-14 34v604q0 20 14 34t34 14h348q21 0 34.5 -13t13.5 -34q0 -20 -13.5 -32.5t-34.5 -12.5h-297v-204h252q21 0 34.5 -13t13.5 -33q0 -21 -13.5 -33t-34.5 -12h-252v-221h297q21 0 34.5 -14
zM287 750l-99 51q-14 8 -22 19.5t-8 24.5q0 17 13.5 29t30.5 12q19 0 41 -18l87 -73q12 -10 12 -23t-8.5 -21t-23.5 -8q-9 0 -23 7z" />
    <glyph glyph-name="uni1EBA" unicode="&#x1eba;" horiz-adv-x="570" 
d="M513.5 78q13.5 -14 13.5 -33q0 -20 -13.5 -32.5t-34.5 -12.5h-348q-20 0 -34 14t-14 34v604q0 20 14 34t34 14h348q21 0 34.5 -13t13.5 -34q0 -20 -13.5 -32.5t-34.5 -12.5h-297v-204h252q21 0 34.5 -13t13.5 -33q0 -21 -13.5 -33t-34.5 -12h-252v-221h297q21 0 34.5 -14
zM300 948q51 0 72.5 -25t21.5 -57q0 -16 -6 -29t-19 -28q-19 -21 -20 -33q0 -10 -9 -15t-23 -5q-10 0 -17.5 5.5t-7.5 15.5q0 20 16 39q13 15 19 25t6 19q0 12 -10 20t-25 8q-18 0 -43 -17q-9 -7 -17 -7q-11 0 -21 11q-7 7 -7 17q0 13 13 26q35 30 77 30z" />
    <glyph glyph-name="uni0206" unicode="&#x206;" horiz-adv-x="570" 
d="M513.5 78q13.5 -14 13.5 -33q0 -20 -13.5 -32.5t-34.5 -12.5h-348q-20 0 -34 14t-14 34v604q0 20 14 34t34 14h348q21 0 34.5 -13t13.5 -34q0 -20 -13.5 -32.5t-34.5 -12.5h-297v-204h252q21 0 34.5 -13t13.5 -33q0 -21 -13.5 -33t-34.5 -12h-252v-221h297q21 0 34.5 -14
zM404 876q40 -26 52 -69q3 -9 3 -16q0 -13 -8 -20.5t-21 -7.5q-16 0 -26 7.5t-21 23.5q-20 37 -73 37q-26 0 -45 -9.5t-28 -27.5q-11 -16 -21 -23.5t-27 -7.5q-13 0 -21 7.5t-8 19.5q0 8 3 15q13 44 53 70.5t94 26.5t94 -26z" />
    <glyph glyph-name="Emacron" unicode="&#x112;" horiz-adv-x="570" 
d="M513.5 78q13.5 -14 13.5 -33q0 -20 -13.5 -32.5t-34.5 -12.5h-348q-20 0 -34 14t-14 34v604q0 20 14 34t34 14h348q21 0 34.5 -13t13.5 -34q0 -20 -13.5 -32.5t-34.5 -12.5h-297v-204h252q21 0 34.5 -13t13.5 -33q0 -21 -13.5 -33t-34.5 -12h-252v-221h297q21 0 34.5 -14
zM158.5 774.5q-10.5 9.5 -10.5 27.5q0 36 41 36h248q41 0 41 -36q0 -18 -10.5 -27.5t-30.5 -9.5h-248q-20 0 -30.5 9.5z" />
    <glyph glyph-name="uni1E16" unicode="&#x1e16;" horiz-adv-x="570" 
d="M513.5 78q13.5 -14 13.5 -33q0 -20 -13.5 -32.5t-34.5 -12.5h-348q-20 0 -34 14t-14 34v604q0 20 14 34t34 14h348q21 0 34.5 -13t13.5 -34q0 -20 -13.5 -32.5t-34.5 -12.5h-297v-204h252q21 0 34.5 -13t13.5 -33q0 -21 -13.5 -33t-34.5 -12h-252v-221h297q21 0 34.5 -14
zM158.5 774.5q-10.5 9.5 -10.5 27.5q0 36 41 36h248q41 0 41 -36q0 -18 -10.5 -27.5t-30.5 -9.5h-248q-20 0 -30.5 9.5zM288.5 910.5q-8.5 7.5 -8.5 20.5t12 23l88 74q21 17 40 17q17 0 30.5 -12t13.5 -29q0 -13 -8 -25t-22 -19l-99 -51q-12 -6 -23 -6q-15 0 -23.5 7.5z" />
    <glyph glyph-name="uni1E14" unicode="&#x1e14;" horiz-adv-x="570" 
d="M513.5 78q13.5 -14 13.5 -33q0 -20 -13.5 -32.5t-34.5 -12.5h-348q-20 0 -34 14t-14 34v604q0 20 14 34t34 14h348q21 0 34.5 -13t13.5 -34q0 -20 -13.5 -32.5t-34.5 -12.5h-297v-204h252q21 0 34.5 -13t13.5 -33q0 -21 -13.5 -33t-34.5 -12h-252v-221h297q21 0 34.5 -14
zM158.5 774.5q-10.5 9.5 -10.5 27.5q0 36 41 36h248q41 0 41 -36q0 -18 -10.5 -27.5t-30.5 -9.5h-248q-20 0 -30.5 9.5zM287 912l-99 51q-14 8 -22 19.5t-8 24.5q0 17 13.5 29t30.5 12q19 0 41 -18l87 -73q12 -10 12 -23t-8.5 -21t-23.5 -8q-9 0 -23 7z" />
    <glyph glyph-name="Eogonek" unicode="&#x118;" horiz-adv-x="575" 
d="M513.5 79q13.5 -13 13.5 -34q0 -19 -12.5 -29.5t-35.5 -15.5q-41 -8 -68.5 -30.5t-27.5 -49.5q0 -21 11.5 -33t26.5 -12q16 0 25 12q12 17 35 17q15 0 24.5 -10t9.5 -27q0 -15 -14.5 -31t-38 -26t-49.5 -10q-47 0 -78.5 26.5t-31.5 75.5q0 57 60 98h-232q-20 0 -34 14
t-14 34v604q0 20 14 34t34 14h348q21 0 34.5 -13t13.5 -34q0 -18 -13.5 -31t-34.5 -13h-297v-205h252q21 0 34.5 -13t13.5 -33q0 -18 -14 -31.5t-34 -13.5h-252v-221h297q21 0 34.5 -13z" />
    <glyph glyph-name="uni1EBC" unicode="&#x1ebc;" horiz-adv-x="570" 
d="M513.5 78q13.5 -14 13.5 -33q0 -20 -13.5 -32.5t-34.5 -12.5h-348q-20 0 -34 14t-14 34v604q0 20 14 34t34 14h348q21 0 34.5 -13t13.5 -34q0 -20 -13.5 -32.5t-34.5 -12.5h-297v-204h252q21 0 34.5 -13t13.5 -33q0 -21 -13.5 -33t-34.5 -12h-252v-221h297q21 0 34.5 -14
zM148.5 764.5q-11.5 14.5 -11.5 39.5q0 36 27.5 61t73.5 25q22 0 44 -9.5t50 -26.5q23 -14 34.5 -19.5t21.5 -5.5q12 0 19.5 8t6.5 21q-1 4 -1 10q0 13 8.5 21t21.5 8q19 0 30.5 -15t11.5 -38q0 -33 -24 -60t-65 -27q-24 0 -47.5 10t-54.5 27q-17 9 -32.5 16t-25.5 7
q-12 0 -20 -7.5t-8 -21.5q1 -3 1 -8q0 -14 -9 -22t-22 -8q-18 0 -29.5 14.5z" />
    <glyph glyph-name="F" unicode="F" horiz-adv-x="564" 
d="M181 608v-207h246q21 0 34.5 -13t13.5 -34q0 -18 -13.5 -31t-34.5 -13h-246v-262q0 -20 -14.5 -34t-34.5 -14q-21 0 -35 14t-14 34v604q0 20 14 34t34 14h341q21 0 34.5 -13t13.5 -34q0 -18 -14 -31.5t-34 -13.5h-291z" />
    <glyph glyph-name="G" unicode="G" horiz-adv-x="695" 
d="M630.5 354q13.5 -14 13.5 -34v-225q0 -27 -24 -42q-46 -30 -101 -46.5t-113 -16.5q-100 0 -183.5 48t-131.5 130.5t-48 181.5t48 181.5t131.5 130.5t183.5 48q50 0 96.5 -11t83.5 -33q12 -7 18 -17t6 -22q0 -20 -13.5 -34.5t-32.5 -14.5q-15 0 -26 7q-65 30 -132 30
q-72 0 -131.5 -35t-94 -96t-34.5 -134t34.5 -133.5t94 -96t131.5 -35.5q34 0 71.5 8t64.5 21v159h-121q-20 0 -34 13.5t-14 33.5q0 21 14 34.5t34 13.5h176q20 0 33.5 -14z" />
    <glyph glyph-name="Gbreve" unicode="&#x11e;" horiz-adv-x="695" 
d="M630.5 354q13.5 -14 13.5 -34v-225q0 -27 -24 -42q-46 -30 -101 -46.5t-113 -16.5q-100 0 -183.5 48t-131.5 130.5t-48 181.5t48 181.5t131.5 130.5t183.5 48q50 0 96.5 -11t83.5 -33q12 -7 18 -17t6 -22q0 -20 -13.5 -34.5t-32.5 -14.5q-15 0 -26 7q-65 30 -132 30
q-72 0 -131.5 -35t-94 -96t-34.5 -134t34.5 -133.5t94 -96t131.5 -35.5q34 0 71.5 8t64.5 21v159h-121q-20 0 -34 13.5t-14 33.5q0 21 14 34.5t34 13.5h176q20 0 33.5 -14zM291.5 790q-39.5 25 -55.5 71q-4 9 -4 18q0 13 7.5 20t20.5 7q16 0 25 -7t23 -24q25 -40 77 -40
q54 0 77 40q10 16 20.5 23t26.5 7q14 0 21.5 -6.5t7.5 -19.5q0 -8 -3 -17q-16 -46 -55.5 -71.5t-94.5 -25.5q-54 0 -93.5 25z" />
    <glyph glyph-name="Gcaron" unicode="&#x1e6;" horiz-adv-x="695" 
d="M630.5 354q13.5 -14 13.5 -34v-225q0 -27 -24 -42q-46 -30 -101 -46.5t-113 -16.5q-100 0 -183.5 48t-131.5 130.5t-48 181.5t48 181.5t131.5 130.5t183.5 48q50 0 96.5 -11t83.5 -33q12 -7 18 -17t6 -22q0 -20 -13.5 -34.5t-32.5 -14.5q-15 0 -26 7q-65 30 -132 30
q-72 0 -131.5 -35t-94 -96t-34.5 -134t34.5 -133.5t94 -96t131.5 -35.5q34 0 71.5 8t64.5 21v159h-121q-20 0 -34 13.5t-14 33.5q0 21 14 34.5t34 13.5h176q20 0 33.5 -14zM515.5 884.5q7.5 -6.5 7.5 -14.5q0 -6 -2.5 -11t-10.5 -13l-68 -76q-11 -12 -22.5 -18t-27.5 -6h-14
q-16 0 -27.5 6t-21.5 18l-69 76q-6 7 -9 12.5t-3 11.5q0 8 7 14.5t18 6.5q17 0 41 -17l72 -49l70 49q24 17 41 17q11 0 18.5 -6.5z" />
    <glyph glyph-name="Gcircumflex" unicode="&#x11c;" horiz-adv-x="695" 
d="M630.5 354q13.5 -14 13.5 -34v-225q0 -27 -24 -42q-46 -30 -101 -46.5t-113 -16.5q-100 0 -183.5 48t-131.5 130.5t-48 181.5t48 181.5t131.5 130.5t183.5 48q50 0 96.5 -11t83.5 -33q12 -7 18 -17t6 -22q0 -20 -13.5 -34.5t-32.5 -14.5q-15 0 -26 7q-65 30 -132 30
q-72 0 -131.5 -35t-94 -96t-34.5 -134t34.5 -133.5t94 -96t131.5 -35.5q34 0 71.5 8t64.5 21v159h-121q-20 0 -34 13.5t-14 33.5q0 21 14 34.5t34 13.5h176q20 0 33.5 -14zM522 770q0 -8 -7.5 -14.5t-17.5 -6.5q-7 0 -18 5.5t-23 12.5l-73 47l-70 -47q-12 -8 -22.5 -13
t-18.5 -5q-10 0 -17.5 6.5t-7.5 14.5q0 6 3 11.5t9 12.5l69 76q11 13 22 18.5t27 5.5h14q16 0 27.5 -6t22.5 -18l69 -76q12 -13 12 -24z" />
    <glyph glyph-name="Gcommaaccent" unicode="&#x122;" horiz-adv-x="695" 
d="M630.5 354q13.5 -14 13.5 -34v-225q0 -27 -24 -42q-46 -30 -101 -46.5t-113 -16.5q-100 0 -183.5 48t-131.5 130.5t-48 181.5t48 181.5t131.5 130.5t183.5 48q50 0 96.5 -11t83.5 -33q12 -7 18 -17t6 -22q0 -20 -13.5 -34.5t-32.5 -14.5q-15 0 -26 7q-65 30 -132 30
q-72 0 -131.5 -35t-94 -96t-34.5 -134t34.5 -133.5t94 -96t131.5 -35.5q34 0 71.5 8t64.5 21v159h-121q-20 0 -34 13.5t-14 33.5q0 21 14 34.5t34 13.5h176q20 0 33.5 -14zM444.5 -165q-27.5 -27 -64.5 -27q-20 0 -31 8t-11 19q0 10 5.5 15.5t13.5 5.5q4 0 11.5 -2t14.5 -2
q11 0 18.5 8t7.5 22q0 13 -10 13q-4 0 -10 -4.5t-15 -4.5q-15 0 -23.5 10t-8.5 25q0 21 16.5 32t44.5 11q30 0 49.5 -18.5t19.5 -50.5q0 -33 -27.5 -60z" />
    <glyph glyph-name="Gdotaccent" unicode="&#x120;" horiz-adv-x="695" 
d="M630.5 354q13.5 -14 13.5 -34v-225q0 -27 -24 -42q-46 -30 -101 -46.5t-113 -16.5q-100 0 -183.5 48t-131.5 130.5t-48 181.5t48 181.5t131.5 130.5t183.5 48q50 0 96.5 -11t83.5 -33q12 -7 18 -17t6 -22q0 -20 -13.5 -34.5t-32.5 -14.5q-15 0 -26 7q-65 30 -132 30
q-72 0 -131.5 -35t-94 -96t-34.5 -134t34.5 -133.5t94 -96t131.5 -35.5q34 0 71.5 8t64.5 21v159h-121q-20 0 -34 13.5t-14 33.5q0 21 14 34.5t34 13.5h176q20 0 33.5 -14zM343.5 763.5q-12.5 10.5 -12.5 34.5v16q0 24 13.5 34.5t40.5 10.5q29 0 41.5 -10.5t12.5 -34.5v-16
q0 -24 -13 -34.5t-42 -10.5q-28 0 -40.5 10.5z" />
    <glyph glyph-name="uni1E20" unicode="&#x1e20;" horiz-adv-x="695" 
d="M630.5 354q13.5 -14 13.5 -34v-225q0 -27 -24 -42q-46 -30 -101 -46.5t-113 -16.5q-100 0 -183.5 48t-131.5 130.5t-48 181.5t48 181.5t131.5 130.5t183.5 48q50 0 96.5 -11t83.5 -33q12 -7 18 -17t6 -22q0 -20 -13.5 -34.5t-32.5 -14.5q-15 0 -26 7q-65 30 -132 30
q-72 0 -131.5 -35t-94 -96t-34.5 -134t34.5 -133.5t94 -96t131.5 -35.5q34 0 71.5 8t64.5 21v159h-121q-20 0 -34 13.5t-14 33.5q0 21 14 34.5t34 13.5h176q20 0 33.5 -14zM232.5 774.5q-10.5 9.5 -10.5 27.5q0 36 41 36h248q41 0 41 -36q0 -18 -10.5 -27.5t-30.5 -9.5h-248
q-20 0 -30.5 9.5z" />
    <glyph glyph-name="H" unicode="H" horiz-adv-x="719" 
d="M623 686.5q14 -13.5 14 -34.5v-603q-1 -21 -15 -35t-36 -14q-20 0 -34.5 14t-14.5 35v259h-355v-259q0 -21 -15 -35t-35 -14q-22 0 -35.5 14t-13.5 35v603q0 20 14 34t36 14q20 0 34.5 -14t14.5 -34v-252h355v252q0 20 15 34t35 14q22 0 36 -13.5z" />
    <glyph glyph-name="Hbar" unicode="&#x126;" horiz-adv-x="816" 
d="M746 559.5q12 -11.5 12 -29.5q0 -17 -12 -28.5t-30 -11.5h-31v-441q-1 -21 -15 -35t-36 -14q-20 0 -34.5 14t-14.5 35v259h-355v-259q0 -21 -15 -35t-35 -14q-22 0 -35.5 14t-13.5 35v441h-31q-18 0 -29.5 11.5t-11.5 29.5q0 17 11.5 28.5t29.5 11.5h31v81q0 20 14 34
t36 14q20 0 34.5 -14t14.5 -34v-81h355v81q0 20 15 34t35 14q22 0 36 -13.5t14 -34.5v-81h31q18 0 30 -11.5zM585 400v90h-355v-90h355z" />
    <glyph glyph-name="uni1E2A" unicode="&#x1e2a;" horiz-adv-x="719" 
d="M623 686.5q14 -13.5 14 -34.5v-603q-1 -21 -15 -35t-36 -14q-20 0 -34.5 14t-14.5 35v259h-355v-259q0 -21 -15 -35t-35 -14q-22 0 -35.5 14t-13.5 35v603q0 20 14 34t36 14q20 0 34.5 -14t14.5 -34v-252h355v252q0 20 15 34t35 14q22 0 36 -13.5zM266 -143.5
q-40 28.5 -53 76.5q-3 7 -3 15q0 13 8 20.5t21 7.5q17 0 27 -7.5t21 -23.5q9 -23 28 -35t45 -12t44.5 12.5t28.5 34.5q11 16 21 23.5t26 7.5q13 0 21.5 -7.5t8.5 -19.5q0 -8 -3 -15q-13 -48 -53 -77t-94 -29t-94 28.5z" />
    <glyph glyph-name="Hcircumflex" unicode="&#x124;" horiz-adv-x="719" 
d="M623 686.5q14 -13.5 14 -34.5v-603q-1 -21 -15 -35t-36 -14q-20 0 -34.5 14t-14.5 35v259h-355v-259q0 -21 -15 -35t-35 -14q-22 0 -35.5 14t-13.5 35v603q0 20 14 34t36 14q20 0 34.5 -14t14.5 -34v-252h355v252q0 20 15 34t35 14q22 0 36 -13.5zM497 770
q0 -8 -7.5 -14.5t-17.5 -6.5q-7 0 -18 5.5t-23 12.5l-73 47l-70 -47q-12 -8 -22.5 -13t-18.5 -5q-10 0 -17.5 6.5t-7.5 14.5q0 6 3 11.5t9 12.5l69 76q11 13 22 18.5t27 5.5h14q16 0 27.5 -6t22.5 -18l69 -76q12 -13 12 -24z" />
    <glyph glyph-name="uni1E24" unicode="&#x1e24;" horiz-adv-x="719" 
d="M623 686.5q14 -13.5 14 -34.5v-603q-1 -21 -15 -35t-36 -14q-20 0 -34.5 14t-14.5 35v259h-355v-259q0 -21 -15 -35t-35 -14q-22 0 -35.5 14t-13.5 35v603q0 20 14 34t36 14q20 0 34.5 -14t14.5 -34v-252h355v252q0 20 15 34t35 14q22 0 36 -13.5zM318.5 -133
q-12.5 11 -12.5 35v15q0 46 53 46q30 0 42.5 -10.5t12.5 -35.5v-15q0 -25 -13 -35.5t-42 -10.5q-28 0 -40.5 11z" />
    <glyph glyph-name="I" unicode="I" horiz-adv-x="265" 
d="M167 14q-15 -14 -35 -14q-22 0 -35.5 14t-13.5 35v603q0 20 14 34t36 14q20 0 34.5 -14t14.5 -34v-603q0 -21 -15 -35z" />
    <glyph glyph-name="IJ" unicode="&#x132;" horiz-adv-x="592" 
d="M170.5 18q-49.5 28 -78.5 77q-9 14 -9 27q0 19 15 32.5t31 13.5q22 0 45 -25q39 -58 105 -58q55 0 93 37t38 91v439q0 20 15 34t35 14q22 0 35.5 -13.5t13.5 -34.5v-439q0 -61 -30 -112t-82.5 -81t-117.5 -30q-59 0 -108.5 28zM176 261q-15 -14 -35 -14q-22 0 -35.5 13.5
t-13.5 34.5v357q0 20 14.5 34t36.5 14q19 0 33.5 -14t14.5 -34v-357q0 -20 -15 -34z" />
    <glyph glyph-name="Iacute" unicode="&#xcd;" horiz-adv-x="265" 
d="M167 14q-15 -14 -35 -14q-22 0 -35.5 14t-13.5 35v603q0 20 14 34t36 14q20 0 34.5 -14t14.5 -34v-603q0 -21 -15 -35zM111.5 748.5q-8.5 7.5 -8.5 20.5t12 23l88 74q21 17 40 17q17 0 30.5 -12t13.5 -29q0 -13 -8 -25t-22 -19l-99 -51q-12 -6 -23 -6q-15 0 -23.5 7.5z
" />
    <glyph glyph-name="Ibreve" unicode="&#x12c;" horiz-adv-x="265" 
d="M167 14q-15 -14 -35 -14q-22 0 -35.5 14t-13.5 35v603q0 20 14 34t36 14q20 0 34.5 -14t14.5 -34v-603q0 -21 -15 -35zM40.5 790q-39.5 25 -55.5 71q-4 9 -4 18q0 13 7.5 20t20.5 7q16 0 25 -7t23 -24q25 -40 77 -40q54 0 77 40q10 16 20.5 23t26.5 7q14 0 21.5 -6.5
t7.5 -19.5q0 -8 -3 -17q-16 -46 -55.5 -71.5t-94.5 -25.5q-54 0 -93.5 25z" />
    <glyph glyph-name="uni01CF" unicode="&#x1cf;" horiz-adv-x="265" 
d="M167 14q-15 -14 -35 -14q-22 0 -35.5 14t-13.5 35v603q0 20 14 34t36 14q20 0 34.5 -14t14.5 -34v-603q0 -21 -15 -35zM264.5 884.5q7.5 -6.5 7.5 -14.5q0 -6 -2.5 -11t-10.5 -13l-68 -76q-11 -12 -22.5 -18t-27.5 -6h-14q-16 0 -27.5 6t-21.5 18l-69 76q-6 7 -9 12.5
t-3 11.5q0 8 7 14.5t18 6.5q17 0 41 -17l72 -49l70 49q24 17 41 17q11 0 18.5 -6.5z" />
    <glyph glyph-name="Icircumflex" unicode="&#xce;" horiz-adv-x="265" 
d="M167 14q-15 -14 -35 -14q-22 0 -35.5 14t-13.5 35v603q0 20 14 34t36 14q20 0 34.5 -14t14.5 -34v-603q0 -21 -15 -35zM271 770q0 -8 -7.5 -14.5t-17.5 -6.5q-7 0 -18 5.5t-23 12.5l-73 47l-70 -47q-12 -8 -22.5 -13t-18.5 -5q-10 0 -17.5 6.5t-7.5 14.5q0 6 3 11.5
t9 12.5l69 76q11 13 22 18.5t27 5.5h14q16 0 27.5 -6t22.5 -18l69 -76q12 -13 12 -24z" />
    <glyph glyph-name="uni0208" unicode="&#x208;" horiz-adv-x="265" 
d="M167 14q-15 -14 -35 -14q-22 0 -35.5 14t-13.5 35v603q0 20 14 34t36 14q20 0 34.5 -14t14.5 -34v-603q0 -21 -15 -35zM223 765l-99 51q-30 17 -30 44q0 18 13.5 29.5t30.5 11.5q19 0 40 -17l87 -73q13 -12 13 -24t-9 -20t-24 -8q-8 0 -22 6zM33 760l-99 51
q-30 15 -30 44q0 17 13.5 29t29.5 12q21 0 41 -18l87 -73q13 -10 13 -23t-9 -21t-24 -8q-10 0 -22 7z" />
    <glyph glyph-name="Idieresis" unicode="&#xcf;" horiz-adv-x="265" 
d="M167 14q-15 -14 -35 -14q-22 0 -35.5 14t-13.5 35v603q0 20 14 34t36 14q20 0 34.5 -14t14.5 -34v-603q0 -21 -15 -35zM0 777q-13 11 -13 35v15q0 45 53 45q27 0 40 -10.5t13 -34.5v-15q0 -24 -13 -35t-41 -11q-26 0 -39 11zM188 777q-13 11 -13 35v15q0 24 13 34.5
t39 10.5q28 0 41 -10.5t13 -34.5v-15q0 -24 -13 -35t-41 -11q-26 0 -39 11z" />
    <glyph glyph-name="uni1E2E" unicode="&#x1e2e;" horiz-adv-x="265" 
d="M167 14q-15 -14 -35 -14q-22 0 -35.5 14t-13.5 35v603q0 20 14 34t36 14q20 0 34.5 -14t14.5 -34v-603q0 -21 -15 -35zM0 777q-13 11 -13 35v15q0 45 53 45q27 0 40 -10.5t13 -34.5v-15q0 -24 -13 -35t-41 -11q-26 0 -39 11zM188 777q-13 11 -13 35v15q0 24 13 34.5
t39 10.5q28 0 41 -10.5t13 -34.5v-15q0 -24 -13 -35t-41 -11q-26 0 -39 11zM111.5 934.5q-8.5 7.5 -8.5 20.5t12 23l88 74q21 17 40 17q17 0 30.5 -12t13.5 -29q0 -13 -8 -25t-22 -19l-99 -51q-12 -6 -23 -6q-15 0 -23.5 7.5z" />
    <glyph glyph-name="Idotaccent" unicode="&#x130;" horiz-adv-x="265" 
d="M167 14q-15 -14 -35 -14q-22 0 -35.5 14t-13.5 35v603q0 20 14 34t36 14q20 0 34.5 -14t14.5 -34v-603q0 -21 -15 -35zM92.5 763.5q-12.5 10.5 -12.5 34.5v16q0 24 13.5 34.5t40.5 10.5q29 0 41.5 -10.5t12.5 -34.5v-16q0 -24 -13 -34.5t-42 -10.5q-28 0 -40.5 10.5z" />
    <glyph glyph-name="uni1ECA" unicode="&#x1eca;" horiz-adv-x="265" 
d="M167 14q-15 -14 -35 -14q-22 0 -35.5 14t-13.5 35v603q0 20 14 34t36 14q20 0 34.5 -14t14.5 -34v-603q0 -21 -15 -35zM92.5 -133q-12.5 11 -12.5 35v15q0 46 53 46q30 0 42.5 -10.5t12.5 -35.5v-15q0 -25 -13 -35.5t-42 -10.5q-28 0 -40.5 11z" />
    <glyph glyph-name="Igrave" unicode="&#xcc;" horiz-adv-x="265" 
d="M167 14q-15 -14 -35 -14q-22 0 -35.5 14t-13.5 35v603q0 20 14 34t36 14q20 0 34.5 -14t14.5 -34v-603q0 -21 -15 -35zM110 750l-99 51q-14 8 -22 19.5t-8 24.5q0 17 13.5 29t30.5 12q19 0 41 -18l87 -73q12 -10 12 -23t-8.5 -21t-23.5 -8q-9 0 -23 7z" />
    <glyph glyph-name="uni1EC8" unicode="&#x1ec8;" horiz-adv-x="265" 
d="M167 14q-15 -14 -35 -14q-22 0 -35.5 14t-13.5 35v603q0 20 14 34t36 14q20 0 34.5 -14t14.5 -34v-603q0 -21 -15 -35zM123 948q51 0 72.5 -25t21.5 -57q0 -16 -6 -29t-19 -28q-19 -21 -20 -33q0 -10 -9 -15t-23 -5q-10 0 -17.5 5.5t-7.5 15.5q0 20 16 39q13 15 19 25
t6 19q0 12 -10 20t-25 8q-18 0 -43 -17q-9 -7 -17 -7q-11 0 -21 11q-7 7 -7 17q0 13 13 26q35 30 77 30z" />
    <glyph glyph-name="uni020A" unicode="&#x20a;" horiz-adv-x="265" 
d="M167 14q-15 -14 -35 -14q-22 0 -35.5 14t-13.5 35v603q0 20 14 34t36 14q20 0 34.5 -14t14.5 -34v-603q0 -21 -15 -35zM227 876q40 -26 52 -69q3 -9 3 -16q0 -13 -8 -20.5t-21 -7.5q-16 0 -26 7.5t-21 23.5q-20 37 -73 37q-26 0 -45 -9.5t-28 -27.5q-11 -16 -21 -23.5
t-27 -7.5q-13 0 -21 7.5t-8 19.5q0 8 3 15q13 44 53 70.5t94 26.5t94 -26z" />
    <glyph glyph-name="Imacron" unicode="&#x12a;" horiz-adv-x="265" 
d="M167 14q-15 -14 -35 -14q-22 0 -35.5 14t-13.5 35v603q0 20 14 34t36 14q20 0 34.5 -14t14.5 -34v-603q0 -21 -15 -35zM-18.5 774.5q-10.5 9.5 -10.5 27.5q0 36 41 36h248q41 0 41 -36q0 -18 -10.5 -27.5t-30.5 -9.5h-248q-20 0 -30.5 9.5z" />
    <glyph glyph-name="Iogonek" unicode="&#x12e;" horiz-adv-x="261" 
 />
    <glyph glyph-name="Itilde" unicode="&#x128;" horiz-adv-x="265" 
d="M167 14q-15 -14 -35 -14q-22 0 -35.5 14t-13.5 35v603q0 20 14 34t36 14q20 0 34.5 -14t14.5 -34v-603q0 -21 -15 -35zM-28.5 764.5q-11.5 14.5 -11.5 39.5q0 36 27.5 61t73.5 25q22 0 44 -9.5t50 -26.5q23 -14 34.5 -19.5t21.5 -5.5q12 0 19.5 8t6.5 21q-1 4 -1 10
q0 13 8.5 21t21.5 8q19 0 30.5 -15t11.5 -38q0 -33 -24 -60t-65 -27q-24 0 -47.5 10t-54.5 27q-17 9 -32.5 16t-25.5 7q-12 0 -20 -7.5t-8 -21.5q1 -3 1 -8q0 -14 -9 -22t-22 -8q-18 0 -29.5 14.5z" />
    <glyph glyph-name="J" unicode="J" horiz-adv-x="560" 
d="M138.5 18q-49.5 28 -78.5 77q-9 14 -9 27q0 19 15 32.5t31 13.5q22 0 45 -25q39 -58 105 -58q55 0 93 37t38 91v439q0 20 15 34t35 14q22 0 35.5 -13.5t13.5 -34.5v-439q0 -61 -30 -112t-82.5 -81t-117.5 -30q-59 0 -108.5 28z" />
    <glyph glyph-name="Jcircumflex" unicode="&#x134;" horiz-adv-x="560" 
d="M138.5 18q-49.5 28 -78.5 77q-9 14 -9 27q0 19 15 32.5t31 13.5q22 0 45 -25q39 -58 105 -58q55 0 93 37t38 91v439q0 20 15 34t35 14q22 0 35.5 -13.5t13.5 -34.5v-439q0 -61 -30 -112t-82.5 -81t-117.5 -30q-59 0 -108.5 28zM565 770q0 -8 -7.5 -14.5t-17.5 -6.5
q-7 0 -18 5.5t-23 12.5l-73 47l-70 -47q-12 -8 -22.5 -13t-18.5 -5q-10 0 -17.5 6.5t-7.5 14.5q0 6 3 11.5t9 12.5l69 76q11 13 22 18.5t27 5.5h14q16 0 27.5 -6t22.5 -18l69 -76q12 -13 12 -24z" />
    <glyph glyph-name="K" unicode="K" horiz-adv-x="663" 
d="M626 48q0 -22 -16.5 -36t-37.5 -14q-20 0 -35 18l-243 313l-112 -106v-174q0 -21 -14 -35t-36 -14t-35.5 14t-13.5 35v603q0 20 14 34t36 14t35.5 -13.5t13.5 -34.5v-311l355 344q19 17 38 17q18 0 31 -15t13 -32q0 -15 -14 -31l-237 -224l247 -319q11 -14 11 -33z" />
    <glyph glyph-name="Kcommaaccent" unicode="&#x136;" horiz-adv-x="663" 
d="M626 48q0 -22 -16.5 -36t-37.5 -14q-20 0 -35 18l-243 313l-112 -106v-174q0 -21 -14 -35t-36 -14t-35.5 14t-13.5 35v603q0 20 14 34t36 14t35.5 -13.5t13.5 -34.5v-311l355 344q19 17 38 17q18 0 31 -15t13 -32q0 -15 -14 -31l-237 -224l247 -319q11 -14 11 -33z
M365.5 -165q-27.5 -27 -64.5 -27q-20 0 -31 8t-11 19q0 10 5.5 15.5t13.5 5.5q4 0 11.5 -2t14.5 -2q11 0 18.5 8t7.5 22q0 13 -10 13q-4 0 -10 -4.5t-15 -4.5q-15 0 -23.5 10t-8.5 25q0 21 16.5 32t44.5 11q30 0 49.5 -18.5t19.5 -50.5q0 -33 -27.5 -60z" />
    <glyph glyph-name="L" unicode="L" horiz-adv-x="550" 
d="M503.5 80q13.5 -13 13.5 -34q0 -20 -13.5 -33t-34.5 -13h-338q-21 0 -34.5 14t-13.5 34v604q0 20 14 34t36 14q20 0 34.5 -14t14.5 -34v-559h287q21 0 34.5 -13z" />
    <glyph glyph-name="uni01C7" unicode="&#x1c7;" horiz-adv-x="1110" 
d="M503.5 80q13.5 -13 13.5 -34q0 -20 -13.5 -33t-34.5 -13h-338q-21 0 -34.5 14t-13.5 34v604q0 20 14 34t36 14q20 0 34.5 -14t14.5 -34v-559h287q21 0 34.5 -13zM688.5 18q-49.5 28 -78.5 77q-9 14 -9 27q0 19 15 32.5t31 13.5q22 0 45 -25q39 -58 105 -58q55 0 93 37
t38 91v439q0 20 15 34t35 14q22 0 35.5 -13.5t13.5 -34.5v-439q0 -61 -30 -112t-82.5 -81t-117.5 -30q-59 0 -108.5 28z" />
    <glyph glyph-name="Lacute" unicode="&#x139;" horiz-adv-x="550" 
d="M503.5 80q13.5 -13 13.5 -34q0 -20 -13.5 -33t-34.5 -13h-338q-21 0 -34.5 14t-13.5 34v604q0 20 14 34t36 14q20 0 34.5 -14t14.5 -34v-559h287q21 0 34.5 -13zM102.5 748.5q-8.5 7.5 -8.5 20.5t12 23l88 74q21 17 40 17q17 0 30.5 -12t13.5 -29q0 -13 -8 -25t-22 -19
l-99 -51q-12 -6 -23 -6q-15 0 -23.5 7.5z" />
    <glyph glyph-name="Lcaron" unicode="&#x13d;" horiz-adv-x="550" 
d="M503.5 81q13.5 -14 13.5 -34t-13.5 -33.5t-34.5 -13.5h-338q-21 0 -34.5 14t-13.5 34v604q0 20 14 34t34 14t33.5 -14t13.5 -34v-549q0 -8 8 -8h283q21 0 34.5 -14zM500 544.5q-16 -32.5 -40.5 -55.5t-50.5 -23q-17 0 -28 8.5t-11 24.5q0 14 7 19.5t16.5 8.5t14.5 5
q14 7 21.5 18.5t7.5 25.5q0 11 -9 19t-23 8q-16 0 -27 -8q-10 5 -15 12.5t-5 20.5q1 24 26 42.5t53 18.5q37 0 58 -23t21 -64q0 -25 -16 -57.5z" />
    <glyph glyph-name="Lcommaaccent" unicode="&#x13b;" horiz-adv-x="550" 
d="M503.5 80q13.5 -13 13.5 -34q0 -20 -13.5 -33t-34.5 -13h-338q-21 0 -34.5 14t-13.5 34v604q0 20 14 34t36 14q20 0 34.5 -14t14.5 -34v-559h287q21 0 34.5 -13zM329.5 -165q-27.5 -27 -64.5 -27q-20 0 -31 8t-11 19q0 10 5.5 15.5t13.5 5.5q4 0 11.5 -2t14.5 -2
q11 0 18.5 8t7.5 22q0 13 -10 13q-4 0 -10 -4.5t-15 -4.5q-15 0 -23.5 10t-8.5 25q0 21 16.5 32t44.5 11q30 0 49.5 -18.5t19.5 -50.5q0 -33 -27.5 -60z" />
    <glyph glyph-name="Ldot" unicode="&#x13f;" horiz-adv-x="540" 
d="M503.5 80q13.5 -13 13.5 -34q0 -20 -13.5 -33t-34.5 -13h-338q-21 0 -34.5 14t-13.5 34v604q0 20 14 34t36 14q20 0 34.5 -14t14.5 -34v-559h287q21 0 34.5 -13zM379.5 318.5q-13.5 13.5 -13.5 37.5v19q0 25 13.5 38t37.5 13h10q25 0 38 -13t13 -38v-19q0 -24 -13 -37.5
t-38 -13.5h-10q-24 0 -37.5 13.5z" />
    <glyph glyph-name="uni1E36" unicode="&#x1e36;" horiz-adv-x="550" 
d="M503.5 80q13.5 -13 13.5 -34q0 -20 -13.5 -33t-34.5 -13h-338q-21 0 -34.5 14t-13.5 34v604q0 20 14 34t36 14q20 0 34.5 -14t14.5 -34v-559h287q21 0 34.5 -13zM241.5 -133q-12.5 11 -12.5 35v15q0 46 53 46q30 0 42.5 -10.5t12.5 -35.5v-15q0 -25 -13 -35.5t-42 -10.5
q-28 0 -40.5 11z" />
    <glyph glyph-name="uni01C8" unicode="&#x1c8;" horiz-adv-x="811" 
d="M503.5 80q13.5 -13 13.5 -34q0 -20 -13.5 -33t-34.5 -13h-338q-21 0 -34.5 14t-13.5 34v604q0 20 14 34t36 14q20 0 34.5 -14t14.5 -34v-559h287q21 0 34.5 -13zM542.5 -184q-12.5 13 -12.5 31v9q0 33 41 43q64 18 64 100v477q0 20 13.5 34t34.5 14q20 0 33.5 -14
t13.5 -34v-501q0 -52 -21.5 -91t-57.5 -60t-77 -21q-19 0 -31.5 13zM640.5 605.5q-12.5 10.5 -12.5 33.5v16q0 24 13.5 34t41.5 10t40.5 -10.5t12.5 -33.5v-16q0 -24 -13 -34t-41 -10q-29 0 -41.5 10.5z" />
    <glyph glyph-name="uni1E3A" unicode="&#x1e3a;" horiz-adv-x="550" 
d="M503.5 80q13.5 -13 13.5 -34q0 -20 -13.5 -33t-34.5 -13h-338q-21 0 -34.5 14t-13.5 34v604q0 20 14 34t36 14q20 0 34.5 -14t14.5 -34v-559h287q21 0 34.5 -13zM146.5 -131.5q-10.5 9.5 -10.5 26.5t11 27t30 10h229q19 0 29.5 -10t10.5 -27t-10.5 -26.5t-29.5 -9.5h-229
q-20 0 -30.5 9.5z" />
    <glyph glyph-name="Lslash" unicode="&#x141;" horiz-adv-x="611" 
d="M564.5 81q13.5 -14 13.5 -34t-13.5 -33.5t-34.5 -13.5h-338q-21 0 -34.5 14t-13.5 34v270l-46 -20q-12 -4 -18 -4q-19 0 -29.5 13.5t-10.5 29.5q0 11 6.5 21t18.5 15l79 35v244q0 20 14 34t34 14t33.5 -14t13.5 -34v-202l91 40q8 4 19 4q19 0 29.5 -13.5t10.5 -28.5
q0 -24 -26 -37l-124 -55v-265h291q21 0 34.5 -14z" />
    <glyph glyph-name="M" unicode="M" horiz-adv-x="822" 
d="M725 686.5q14 -13.5 14 -33.5v-605q0 -20 -13.5 -34t-35.5 -14t-36 13.5t-14 34.5v463l-194 -294q-7 -9 -17.5 -15t-21.5 -5q-10 -1 -20.5 5t-17.5 15l-195 303v-472q0 -21 -12.5 -34.5t-33.5 -13.5q-20 0 -32.5 13.5t-12.5 34.5v605q0 19 14 33.5t35 14.5q12 0 23.5 -6
t18.5 -16l237 -359l240 359q16 22 40 22q20 -1 34 -14.5z" />
    <glyph glyph-name="uni1E42" unicode="&#x1e42;" horiz-adv-x="822" 
d="M725 686.5q14 -13.5 14 -33.5v-605q0 -20 -13.5 -34t-35.5 -14t-36 13.5t-14 34.5v463l-194 -294q-7 -9 -17.5 -15t-21.5 -5q-10 -1 -20.5 5t-17.5 15l-195 303v-472q0 -21 -12.5 -34.5t-33.5 -13.5q-20 0 -32.5 13.5t-12.5 34.5v605q0 19 14 33.5t35 14.5q12 0 23.5 -6
t18.5 -16l237 -359l240 359q16 22 40 22q20 -1 34 -14.5zM370.5 -133q-12.5 11 -12.5 35v15q0 46 53 46q30 0 42.5 -10.5t12.5 -35.5v-15q0 -25 -13 -35.5t-42 -10.5q-28 0 -40.5 11z" />
    <glyph glyph-name="N" unicode="N" horiz-adv-x="732" 
d="M637 687.5q12 -12.5 12 -31.5v-607q0 -21 -13.5 -35t-34.5 -14q-11 0 -21.5 3.5t-16.5 10.5l-393 512v-482q0 -19 -12.5 -31.5t-31.5 -12.5t-31 12.5t-12 31.5v608q0 21 13.5 34.5t33.5 13.5q12 0 23 -4.5t17 -12.5l392 -513v486q0 19 12.5 31.5t31.5 12.5t31 -12.5z" />
    <glyph glyph-name="uni01CA" unicode="&#x1ca;" horiz-adv-x="1292" 
d="M637 687.5q12 -12.5 12 -31.5v-607q0 -21 -13.5 -35t-34.5 -14q-11 0 -21.5 3.5t-16.5 10.5l-393 512v-482q0 -19 -12.5 -31.5t-31.5 -12.5t-31 12.5t-12 31.5v608q0 21 13.5 34.5t33.5 13.5q12 0 23 -4.5t17 -12.5l392 -513v486q0 19 12.5 31.5t31.5 12.5t31 -12.5z
M870.5 18q-49.5 28 -78.5 77q-9 14 -9 27q0 19 15 32.5t31 13.5q22 0 45 -25q39 -58 105 -58q55 0 93 37t38 91v439q0 20 15 34t35 14q22 0 35.5 -13.5t13.5 -34.5v-439q0 -61 -30 -112t-82.5 -81t-117.5 -30q-59 0 -108.5 28z" />
    <glyph glyph-name="Nacute" unicode="&#x143;" horiz-adv-x="732" 
d="M637 687.5q12 -12.5 12 -31.5v-607q0 -21 -13.5 -35t-34.5 -14q-11 0 -21.5 3.5t-16.5 10.5l-393 512v-482q0 -19 -12.5 -31.5t-31.5 -12.5t-31 12.5t-12 31.5v608q0 21 13.5 34.5t33.5 13.5q12 0 23 -4.5t17 -12.5l392 -513v486q0 19 12.5 31.5t31.5 12.5t31 -12.5z
M343.5 748.5q-8.5 7.5 -8.5 20.5t12 23l88 74q21 17 40 17q17 0 30.5 -12t13.5 -29q0 -13 -8 -25t-22 -19l-99 -51q-12 -6 -23 -6q-15 0 -23.5 7.5z" />
    <glyph glyph-name="Ncaron" unicode="&#x147;" horiz-adv-x="732" 
d="M637 687.5q12 -12.5 12 -31.5v-607q0 -21 -13.5 -35t-34.5 -14q-11 0 -21.5 3.5t-16.5 10.5l-393 512v-482q0 -19 -12.5 -31.5t-31.5 -12.5t-31 12.5t-12 31.5v608q0 21 13.5 34.5t33.5 13.5q12 0 23 -4.5t17 -12.5l392 -513v486q0 19 12.5 31.5t31.5 12.5t31 -12.5z
M496.5 884.5q7.5 -6.5 7.5 -14.5q0 -6 -2.5 -11t-10.5 -13l-68 -76q-11 -12 -22.5 -18t-27.5 -6h-14q-16 0 -27.5 6t-21.5 18l-69 76q-6 7 -9 12.5t-3 11.5q0 8 7 14.5t18 6.5q17 0 41 -17l72 -49l70 49q24 17 41 17q11 0 18.5 -6.5z" />
    <glyph glyph-name="Ncommaaccent" unicode="&#x145;" horiz-adv-x="732" 
d="M637 687.5q12 -12.5 12 -31.5v-607q0 -21 -13.5 -35t-34.5 -14q-11 0 -21.5 3.5t-16.5 10.5l-393 512v-482q0 -19 -12.5 -31.5t-31.5 -12.5t-31 12.5t-12 31.5v608q0 21 13.5 34.5t33.5 13.5q12 0 23 -4.5t17 -12.5l392 -513v486q0 19 12.5 31.5t31.5 12.5t31 -12.5z
M412.5 -165q-27.5 -27 -64.5 -27q-20 0 -31 8t-11 19q0 10 5.5 15.5t13.5 5.5q4 0 11.5 -2t14.5 -2q11 0 18.5 8t7.5 22q0 13 -10 13q-4 0 -10 -4.5t-15 -4.5q-15 0 -23.5 10t-8.5 25q0 21 16.5 32t44.5 11q30 0 49.5 -18.5t19.5 -50.5q0 -33 -27.5 -60z" />
    <glyph glyph-name="uni1E44" unicode="&#x1e44;" horiz-adv-x="732" 
d="M637 687.5q12 -12.5 12 -31.5v-607q0 -21 -13.5 -35t-34.5 -14q-11 0 -21.5 3.5t-16.5 10.5l-393 512v-482q0 -19 -12.5 -31.5t-31.5 -12.5t-31 12.5t-12 31.5v608q0 21 13.5 34.5t33.5 13.5q12 0 23 -4.5t17 -12.5l392 -513v486q0 19 12.5 31.5t31.5 12.5t31 -12.5z
M324.5 763.5q-12.5 10.5 -12.5 34.5v16q0 24 13.5 34.5t40.5 10.5q29 0 41.5 -10.5t12.5 -34.5v-16q0 -24 -13 -34.5t-42 -10.5q-28 0 -40.5 10.5z" />
    <glyph glyph-name="uni1E46" unicode="&#x1e46;" horiz-adv-x="732" 
d="M637 687.5q12 -12.5 12 -31.5v-607q0 -21 -13.5 -35t-34.5 -14q-11 0 -21.5 3.5t-16.5 10.5l-393 512v-482q0 -19 -12.5 -31.5t-31.5 -12.5t-31 12.5t-12 31.5v608q0 21 13.5 34.5t33.5 13.5q12 0 23 -4.5t17 -12.5l392 -513v486q0 19 12.5 31.5t31.5 12.5t31 -12.5z
M324.5 -133q-12.5 11 -12.5 35v15q0 46 53 46q30 0 42.5 -10.5t12.5 -35.5v-15q0 -25 -13 -35.5t-42 -10.5q-28 0 -40.5 11z" />
    <glyph glyph-name="Eng" unicode="&#x14a;" horiz-adv-x="752" 
d="M655.5 685q13.5 -14 13.5 -34v-674q0 -88 -46.5 -132.5t-126.5 -44.5q-24 0 -39 11t-15 31q0 19 13 32t33 14q47 1 66.5 21.5t19.5 63.5v56l-396 495v-476q0 -20 -14 -34t-34 -14t-33.5 14t-13.5 34v604q0 21 14 34.5t34 13.5q24 0 40 -21l403 -505v477q0 20 14 34t34 14
t33.5 -14z" />
    <glyph glyph-name="uni019D" unicode="&#x19d;" horiz-adv-x="732" 
d="M636.5 687.5q12.5 -12.5 12.5 -31.5v-607q0 -21 -13.5 -35t-34.5 -14q-11 0 -21.5 3.5t-16.5 10.5l-390 508v-547q0 -98 -50 -132.5t-101 -39.5q-19 0 -32 13t-13 31q0 24 10 35t31 17q65 17 65 100v653q0 21 13.5 34.5t33.5 13.5q12 0 23 -4.5t17 -12.5l389 -509v482
q0 19 13 31.5t33 12.5q19 0 31.5 -12.5z" />
    <glyph glyph-name="uni01CB" unicode="&#x1cb;" horiz-adv-x="993" 
d="M637 687.5q12 -12.5 12 -31.5v-607q0 -21 -13.5 -35t-34.5 -14q-11 0 -21.5 3.5t-16.5 10.5l-393 512v-482q0 -19 -12.5 -31.5t-31.5 -12.5t-31 12.5t-12 31.5v608q0 21 13.5 34.5t33.5 13.5q12 0 23 -4.5t17 -12.5l392 -513v486q0 19 12.5 31.5t31.5 12.5t31 -12.5z
M724.5 -184q-12.5 13 -12.5 31v9q0 33 41 43q64 18 64 100v477q0 20 13.5 34t34.5 14q20 0 33.5 -14t13.5 -34v-501q0 -52 -21.5 -91t-57.5 -60t-77 -21q-19 0 -31.5 13zM822.5 605.5q-12.5 10.5 -12.5 33.5v16q0 24 13.5 34t41.5 10t40.5 -10.5t12.5 -33.5v-16
q0 -24 -13 -34t-41 -10q-29 0 -41.5 10.5z" />
    <glyph glyph-name="uni1E48" unicode="&#x1e48;" horiz-adv-x="732" 
d="M637 687.5q12 -12.5 12 -31.5v-607q0 -21 -13.5 -35t-34.5 -14q-11 0 -21.5 3.5t-16.5 10.5l-393 512v-482q0 -19 -12.5 -31.5t-31.5 -12.5t-31 12.5t-12 31.5v608q0 21 13.5 34.5t33.5 13.5q12 0 23 -4.5t17 -12.5l392 -513v486q0 19 12.5 31.5t31.5 12.5t31 -12.5z
M229.5 -131.5q-10.5 9.5 -10.5 26.5t11 27t30 10h229q19 0 29.5 -10t10.5 -27t-10.5 -26.5t-29.5 -9.5h-229q-20 0 -30.5 9.5z" />
    <glyph glyph-name="Ntilde" unicode="&#xd1;" horiz-adv-x="732" 
d="M637 687.5q12 -12.5 12 -31.5v-607q0 -21 -13.5 -35t-34.5 -14q-11 0 -21.5 3.5t-16.5 10.5l-393 512v-482q0 -19 -12.5 -31.5t-31.5 -12.5t-31 12.5t-12 31.5v608q0 21 13.5 34.5t33.5 13.5q12 0 23 -4.5t17 -12.5l392 -513v486q0 19 12.5 31.5t31.5 12.5t31 -12.5z
M203.5 764.5q-11.5 14.5 -11.5 39.5q0 36 27.5 61t73.5 25q22 0 44 -9.5t50 -26.5q23 -14 34.5 -19.5t21.5 -5.5q12 0 19.5 8t6.5 21q-1 4 -1 10q0 13 8.5 21t21.5 8q19 0 30.5 -15t11.5 -38q0 -33 -24 -60t-65 -27q-24 0 -47.5 10t-54.5 27q-17 9 -32.5 16t-25.5 7
q-12 0 -20 -7.5t-8 -21.5q1 -3 1 -8q0 -14 -9 -22t-22 -8q-18 0 -29.5 14.5z" />
    <glyph glyph-name="O" unicode="O" horiz-adv-x="762" 
d="M675.5 167q-43.5 -82 -120.5 -129.5t-174 -47.5t-174 47.5t-120.5 129.5t-43.5 183t43.5 183t120.5 129.5t174 47.5t174 -47.5t120.5 -129.5t43.5 -183t-43.5 -183zM586 485.5q-30 60.5 -83.5 95t-121.5 34.5t-121.5 -34t-83.5 -94.5t-30 -136.5q0 -75 30 -135.5
t83.5 -95t121.5 -34.5t121.5 34.5t83.5 95t30 135.5t-30 135.5z" />
    <glyph glyph-name="Oacute" unicode="&#xd3;" horiz-adv-x="762" 
d="M675.5 167q-43.5 -82 -120.5 -129.5t-174 -47.5t-174 47.5t-120.5 129.5t-43.5 183t43.5 183t120.5 129.5t174 47.5t174 -47.5t120.5 -129.5t43.5 -183t-43.5 -183zM586 485.5q-30 60.5 -83.5 95t-121.5 34.5t-121.5 -34t-83.5 -94.5t-30 -136.5q0 -75 30 -135.5
t83.5 -95t121.5 -34.5t121.5 34.5t83.5 95t30 135.5t-30 135.5zM358.5 748.5q-8.5 7.5 -8.5 20.5t12 23l88 74q21 17 40 17q17 0 30.5 -12t13.5 -29q0 -13 -8 -25t-22 -19l-99 -51q-12 -6 -23 -6q-15 0 -23.5 7.5z" />
    <glyph glyph-name="Obreve" unicode="&#x14e;" horiz-adv-x="762" 
d="M675.5 167q-43.5 -82 -120.5 -129.5t-174 -47.5t-174 47.5t-120.5 129.5t-43.5 183t43.5 183t120.5 129.5t174 47.5t174 -47.5t120.5 -129.5t43.5 -183t-43.5 -183zM586 485.5q-30 60.5 -83.5 95t-121.5 34.5t-121.5 -34t-83.5 -94.5t-30 -136.5q0 -75 30 -135.5
t83.5 -95t121.5 -34.5t121.5 34.5t83.5 95t30 135.5t-30 135.5zM287.5 790q-39.5 25 -55.5 71q-4 9 -4 18q0 13 7.5 20t20.5 7q16 0 25 -7t23 -24q25 -40 77 -40q54 0 77 40q10 16 20.5 23t26.5 7q14 0 21.5 -6.5t7.5 -19.5q0 -8 -3 -17q-16 -46 -55.5 -71.5t-94.5 -25.5
q-54 0 -93.5 25z" />
    <glyph glyph-name="uni01D1" unicode="&#x1d1;" horiz-adv-x="762" 
d="M675.5 167q-43.5 -82 -120.5 -129.5t-174 -47.5t-174 47.5t-120.5 129.5t-43.5 183t43.5 183t120.5 129.5t174 47.5t174 -47.5t120.5 -129.5t43.5 -183t-43.5 -183zM586 485.5q-30 60.5 -83.5 95t-121.5 34.5t-121.5 -34t-83.5 -94.5t-30 -136.5q0 -75 30 -135.5
t83.5 -95t121.5 -34.5t121.5 34.5t83.5 95t30 135.5t-30 135.5zM511.5 884.5q7.5 -6.5 7.5 -14.5q0 -6 -2.5 -11t-10.5 -13l-68 -76q-11 -12 -22.5 -18t-27.5 -6h-14q-16 0 -27.5 6t-21.5 18l-69 76q-6 7 -9 12.5t-3 11.5q0 8 7 14.5t18 6.5q17 0 41 -17l72 -49l70 49
q24 17 41 17q11 0 18.5 -6.5z" />
    <glyph glyph-name="Ocircumflex" unicode="&#xd4;" horiz-adv-x="762" 
d="M675.5 167q-43.5 -82 -120.5 -129.5t-174 -47.5t-174 47.5t-120.5 129.5t-43.5 183t43.5 183t120.5 129.5t174 47.5t174 -47.5t120.5 -129.5t43.5 -183t-43.5 -183zM586 485.5q-30 60.5 -83.5 95t-121.5 34.5t-121.5 -34t-83.5 -94.5t-30 -136.5q0 -75 30 -135.5
t83.5 -95t121.5 -34.5t121.5 34.5t83.5 95t30 135.5t-30 135.5zM518 770q0 -8 -7.5 -14.5t-17.5 -6.5q-7 0 -18 5.5t-23 12.5l-73 47l-70 -47q-12 -8 -22.5 -13t-18.5 -5q-10 0 -17.5 6.5t-7.5 14.5q0 6 3 11.5t9 12.5l69 76q11 13 22 18.5t27 5.5h14q16 0 27.5 -6t22.5 -18
l69 -76q12 -13 12 -24z" />
    <glyph glyph-name="uni1ED0" unicode="&#x1ed0;" horiz-adv-x="762" 
d="M675.5 167q-43.5 -82 -120.5 -129.5t-174 -47.5t-174 47.5t-120.5 129.5t-43.5 183t43.5 183t120.5 129.5t174 47.5t174 -47.5t120.5 -129.5t43.5 -183t-43.5 -183zM586 485.5q-30 60.5 -83.5 95t-121.5 34.5t-121.5 -34t-83.5 -94.5t-30 -136.5q0 -75 30 -135.5
t83.5 -95t121.5 -34.5t121.5 34.5t83.5 95t30 135.5t-30 135.5zM518 770q0 -8 -7.5 -14.5t-17.5 -6.5q-7 0 -18 5.5t-23 12.5l-73 47l-70 -47q-12 -8 -22.5 -13t-18.5 -5q-10 0 -17.5 6.5t-7.5 14.5q0 6 3 11.5t9 12.5l69 76q11 13 22 18.5t27 5.5h14q16 0 27.5 -6t22.5 -18
l69 -76q12 -13 12 -24zM512.5 830.5q-8.5 7.5 -8.5 20.5t12 23l88 74q21 17 40 17q17 0 30.5 -12t13.5 -29q0 -13 -8 -25t-22 -19l-99 -51q-12 -6 -23 -6q-15 0 -23.5 7.5z" />
    <glyph glyph-name="uni1ED8" unicode="&#x1ed8;" horiz-adv-x="762" 
d="M675.5 167q-43.5 -82 -120.5 -129.5t-174 -47.5t-174 47.5t-120.5 129.5t-43.5 183t43.5 183t120.5 129.5t174 47.5t174 -47.5t120.5 -129.5t43.5 -183t-43.5 -183zM586 485.5q-30 60.5 -83.5 95t-121.5 34.5t-121.5 -34t-83.5 -94.5t-30 -136.5q0 -75 30 -135.5
t83.5 -95t121.5 -34.5t121.5 34.5t83.5 95t30 135.5t-30 135.5zM339.5 -133q-12.5 11 -12.5 35v15q0 46 53 46q30 0 42.5 -10.5t12.5 -35.5v-15q0 -25 -13 -35.5t-42 -10.5q-28 0 -40.5 11zM518 770q0 -8 -7.5 -14.5t-17.5 -6.5q-7 0 -18 5.5t-23 12.5l-73 47l-70 -47
q-12 -8 -22.5 -13t-18.5 -5q-10 0 -17.5 6.5t-7.5 14.5q0 6 3 11.5t9 12.5l69 76q11 13 22 18.5t27 5.5h14q16 0 27.5 -6t22.5 -18l69 -76q12 -13 12 -24z" />
    <glyph glyph-name="uni1ED2" unicode="&#x1ed2;" horiz-adv-x="762" 
d="M675.5 167q-43.5 -82 -120.5 -129.5t-174 -47.5t-174 47.5t-120.5 129.5t-43.5 183t43.5 183t120.5 129.5t174 47.5t174 -47.5t120.5 -129.5t43.5 -183t-43.5 -183zM586 485.5q-30 60.5 -83.5 95t-121.5 34.5t-121.5 -34t-83.5 -94.5t-30 -136.5q0 -75 30 -135.5
t83.5 -95t121.5 -34.5t121.5 34.5t83.5 95t30 135.5t-30 135.5zM518 770q0 -8 -7.5 -14.5t-17.5 -6.5q-7 0 -18 5.5t-23 12.5l-73 47l-70 -47q-12 -8 -22.5 -13t-18.5 -5q-10 0 -17.5 6.5t-7.5 14.5q0 6 3 11.5t9 12.5l69 76q11 13 22 18.5t27 5.5h14q16 0 27.5 -6t22.5 -18
l69 -76q12 -13 12 -24zM510 880l-99 51q-14 8 -22 19.5t-8 24.5q0 17 13.5 29t30.5 12q19 0 41 -18l87 -73q12 -10 12 -23t-8.5 -21t-23.5 -8q-9 0 -23 7z" />
    <glyph glyph-name="uni1ED4" unicode="&#x1ed4;" horiz-adv-x="762" 
d="M675.5 167q-43.5 -82 -120.5 -129.5t-174 -47.5t-174 47.5t-120.5 129.5t-43.5 183t43.5 183t120.5 129.5t174 47.5t174 -47.5t120.5 -129.5t43.5 -183t-43.5 -183zM586 485.5q-30 60.5 -83.5 95t-121.5 34.5t-121.5 -34t-83.5 -94.5t-30 -136.5q0 -75 30 -135.5
t83.5 -95t121.5 -34.5t121.5 34.5t83.5 95t30 135.5t-30 135.5zM505 795q2 -5 2 -12q0 -9 -7 -15t-18 -6q-13 0 -19 3.5t-20 15.5l-64 54l-65 -54q-3 -3 -10.5 -9t-14 -8.5t-15.5 -2.5q-10 0 -17 6.5t-7 14.5t2 13t8 12l59 70q18 24 50 24h27q16 0 26 -5t19 -19l56 -69
q6 -8 8 -13zM519 1022q51 0 72.5 -25t21.5 -57q0 -16 -6 -29t-19 -28q-7 -8 -13 -17t-6 -16q0 -10 -8.5 -17t-20.5 -7t-20 7t-8 18q0 21 15 39q14 17 20 26t6 18q0 12 -10.5 20t-24.5 8q-12 0 -22 -4.5t-22 -12.5q-9 -7 -17 -7q-11 0 -21 11q-7 7 -7 17q0 13 13 26
q35 30 77 30z" />
    <glyph glyph-name="uni1ED6" unicode="&#x1ed6;" horiz-adv-x="762" 
d="M675.5 167q-43.5 -82 -120.5 -129.5t-174 -47.5t-174 47.5t-120.5 129.5t-43.5 183t43.5 183t120.5 129.5t174 47.5t174 -47.5t120.5 -129.5t43.5 -183t-43.5 -183zM586 485.5q-30 60.5 -83.5 95t-121.5 34.5t-121.5 -34t-83.5 -94.5t-30 -136.5q0 -75 30 -135.5
t83.5 -95t121.5 -34.5t121.5 34.5t83.5 95t30 135.5t-30 135.5zM518 770q0 -8 -7.5 -14.5t-17.5 -6.5q-7 0 -18 5.5t-23 12.5l-73 47l-70 -47q-12 -8 -22.5 -13t-18.5 -5q-10 0 -17.5 6.5t-7.5 14.5q0 6 3 11.5t9 12.5l69 76q11 13 22 18.5t27 5.5h14q16 0 27.5 -6t22.5 -18
l69 -76q12 -13 12 -24zM225.5 908.5q-11.5 14.5 -11.5 39.5q0 36 27.5 61t73.5 25q22 0 44 -9.5t50 -26.5q23 -14 34.5 -19.5t21.5 -5.5q12 0 19.5 8t6.5 21q-1 4 -1 10q0 13 8.5 21t21.5 8q19 0 30.5 -15t11.5 -38q0 -33 -24 -60t-65 -27q-24 0 -47.5 10t-54.5 27
q-17 9 -32.5 16t-25.5 7q-12 0 -20 -7.5t-8 -21.5q1 -3 1 -8q0 -14 -9 -22t-22 -8q-18 0 -29.5 14.5z" />
    <glyph glyph-name="uni020C" unicode="&#x20c;" horiz-adv-x="762" 
d="M675.5 167q-43.5 -82 -120.5 -129.5t-174 -47.5t-174 47.5t-120.5 129.5t-43.5 183t43.5 183t120.5 129.5t174 47.5t174 -47.5t120.5 -129.5t43.5 -183t-43.5 -183zM586 485.5q-30 60.5 -83.5 95t-121.5 34.5t-121.5 -34t-83.5 -94.5t-30 -136.5q0 -75 30 -135.5
t83.5 -95t121.5 -34.5t121.5 34.5t83.5 95t30 135.5t-30 135.5zM470 765l-99 51q-30 17 -30 44q0 18 13.5 29.5t30.5 11.5q19 0 40 -17l87 -73q13 -12 13 -24t-9 -20t-24 -8q-8 0 -22 6zM280 760l-99 51q-30 15 -30 44q0 17 13.5 29t29.5 12q21 0 41 -18l87 -73
q13 -10 13 -23t-9 -21t-24 -8q-10 0 -22 7z" />
    <glyph glyph-name="Odieresis" unicode="&#xd6;" horiz-adv-x="762" 
d="M675.5 167q-43.5 -82 -120.5 -129.5t-174 -47.5t-174 47.5t-120.5 129.5t-43.5 183t43.5 183t120.5 129.5t174 47.5t174 -47.5t120.5 -129.5t43.5 -183t-43.5 -183zM586 485.5q-30 60.5 -83.5 95t-121.5 34.5t-121.5 -34t-83.5 -94.5t-30 -136.5q0 -75 30 -135.5
t83.5 -95t121.5 -34.5t121.5 34.5t83.5 95t30 135.5t-30 135.5zM247 777q-13 11 -13 35v15q0 45 53 45q27 0 40 -10.5t13 -34.5v-15q0 -24 -13 -35t-41 -11q-26 0 -39 11zM435 777q-13 11 -13 35v15q0 24 13 34.5t39 10.5q28 0 41 -10.5t13 -34.5v-15q0 -24 -13 -35t-41 -11
q-26 0 -39 11z" />
    <glyph glyph-name="uni022A" unicode="&#x22a;" horiz-adv-x="762" 
d="M675.5 167q-43.5 -82 -120.5 -129.5t-174 -47.5t-174 47.5t-120.5 129.5t-43.5 183t43.5 183t120.5 129.5t174 47.5t174 -47.5t120.5 -129.5t43.5 -183t-43.5 -183zM586 485.5q-30 60.5 -83.5 95t-121.5 34.5t-121.5 -34t-83.5 -94.5t-30 -136.5q0 -75 30 -135.5
t83.5 -95t121.5 -34.5t121.5 34.5t83.5 95t30 135.5t-30 135.5zM247 777q-13 11 -13 35v15q0 45 53 45q27 0 40 -10.5t13 -34.5v-15q0 -24 -13 -35t-41 -11q-26 0 -39 11zM435 777q-13 11 -13 35v15q0 24 13 34.5t39 10.5q28 0 41 -10.5t13 -34.5v-15q0 -24 -13 -35t-41 -11
q-26 0 -39 11zM228.5 960.5q-10.5 9.5 -10.5 27.5q0 36 41 36h248q41 0 41 -36q0 -18 -10.5 -27.5t-30.5 -9.5h-248q-20 0 -30.5 9.5z" />
    <glyph glyph-name="uni0230" unicode="&#x230;" horiz-adv-x="762" 
d="M675.5 167q-43.5 -82 -120.5 -129.5t-174 -47.5t-174 47.5t-120.5 129.5t-43.5 183t43.5 183t120.5 129.5t174 47.5t174 -47.5t120.5 -129.5t43.5 -183t-43.5 -183zM586 485.5q-30 60.5 -83.5 95t-121.5 34.5t-121.5 -34t-83.5 -94.5t-30 -136.5q0 -75 30 -135.5
t83.5 -95t121.5 -34.5t121.5 34.5t83.5 95t30 135.5t-30 135.5zM339.5 763.5q-12.5 10.5 -12.5 34.5v16q0 24 13.5 34.5t40.5 10.5q29 0 41.5 -10.5t12.5 -34.5v-16q0 -24 -13 -34.5t-42 -10.5q-28 0 -40.5 10.5zM228.5 961.5q-10.5 9.5 -10.5 27.5q0 36 41 36h248
q41 0 41 -36q0 -18 -10.5 -27.5t-30.5 -9.5h-248q-20 0 -30.5 9.5z" />
    <glyph glyph-name="uni1ECC" unicode="&#x1ecc;" horiz-adv-x="762" 
d="M675.5 167q-43.5 -82 -120.5 -129.5t-174 -47.5t-174 47.5t-120.5 129.5t-43.5 183t43.5 183t120.5 129.5t174 47.5t174 -47.5t120.5 -129.5t43.5 -183t-43.5 -183zM586 485.5q-30 60.5 -83.5 95t-121.5 34.5t-121.5 -34t-83.5 -94.5t-30 -136.5q0 -75 30 -135.5
t83.5 -95t121.5 -34.5t121.5 34.5t83.5 95t30 135.5t-30 135.5zM339.5 -133q-12.5 11 -12.5 35v15q0 46 53 46q30 0 42.5 -10.5t12.5 -35.5v-15q0 -25 -13 -35.5t-42 -10.5q-28 0 -40.5 11z" />
    <glyph glyph-name="Ograve" unicode="&#xd2;" horiz-adv-x="762" 
d="M675.5 167q-43.5 -82 -120.5 -129.5t-174 -47.5t-174 47.5t-120.5 129.5t-43.5 183t43.5 183t120.5 129.5t174 47.5t174 -47.5t120.5 -129.5t43.5 -183t-43.5 -183zM586 485.5q-30 60.5 -83.5 95t-121.5 34.5t-121.5 -34t-83.5 -94.5t-30 -136.5q0 -75 30 -135.5
t83.5 -95t121.5 -34.5t121.5 34.5t83.5 95t30 135.5t-30 135.5zM357 750l-99 51q-14 8 -22 19.5t-8 24.5q0 17 13.5 29t30.5 12q19 0 41 -18l87 -73q12 -10 12 -23t-8.5 -21t-23.5 -8q-9 0 -23 7z" />
    <glyph glyph-name="uni1ECE" unicode="&#x1ece;" horiz-adv-x="762" 
d="M675.5 167q-43.5 -82 -120.5 -129.5t-174 -47.5t-174 47.5t-120.5 129.5t-43.5 183t43.5 183t120.5 129.5t174 47.5t174 -47.5t120.5 -129.5t43.5 -183t-43.5 -183zM586 485.5q-30 60.5 -83.5 95t-121.5 34.5t-121.5 -34t-83.5 -94.5t-30 -136.5q0 -75 30 -135.5
t83.5 -95t121.5 -34.5t121.5 34.5t83.5 95t30 135.5t-30 135.5zM370 948q51 0 72.5 -25t21.5 -57q0 -16 -6 -29t-19 -28q-19 -21 -20 -33q0 -10 -9 -15t-23 -5q-10 0 -17.5 5.5t-7.5 15.5q0 20 16 39q13 15 19 25t6 19q0 12 -10 20t-25 8q-18 0 -43 -17q-9 -7 -17 -7
q-11 0 -21 11q-7 7 -7 17q0 13 13 26q35 30 77 30z" />
    <glyph glyph-name="Ohorn" unicode="&#x1a0;" horiz-adv-x="762" 
d="M680 523q39 -79 39 -173q0 -101 -43.5 -183t-120.5 -129.5t-174 -47.5t-174 47.5t-120.5 129.5t-43.5 183t43.5 183t120.5 129.5t174 47.5q48 0 90 -12q75 6 75 68q0 18 10.5 32t29.5 14q21 0 30.5 -14t9.5 -32q0 -36 -13.5 -66t-39.5 -50q68 -48 107 -127zM502.5 119.5
q53.5 34.5 83.5 95t30 135.5t-30 135.5t-83.5 95t-121.5 34.5t-121.5 -34t-83.5 -94.5t-30 -136.5q0 -75 30 -135.5t83.5 -95t121.5 -34.5t121.5 34.5z" />
    <glyph glyph-name="uni1EDA" unicode="&#x1eda;" horiz-adv-x="762" 
d="M680 523q39 -79 39 -173q0 -101 -43.5 -183t-120.5 -129.5t-174 -47.5t-174 47.5t-120.5 129.5t-43.5 183t43.5 183t120.5 129.5t174 47.5q48 0 90 -12q75 6 75 68q0 18 10.5 32t29.5 14q21 0 30.5 -14t9.5 -32q0 -36 -13.5 -66t-39.5 -50q68 -48 107 -127zM502.5 119.5
q53.5 34.5 83.5 95t30 135.5t-30 135.5t-83.5 95t-121.5 34.5t-121.5 -34t-83.5 -94.5t-30 -136.5q0 -75 30 -135.5t83.5 -95t121.5 -34.5t121.5 34.5zM358.5 748.5q-8.5 7.5 -8.5 20.5t12 23l88 74q21 17 40 17q17 0 30.5 -12t13.5 -29q0 -13 -8 -25t-22 -19l-99 -51
q-12 -6 -23 -6q-15 0 -23.5 7.5z" />
    <glyph glyph-name="uni1EE2" unicode="&#x1ee2;" horiz-adv-x="762" 
d="M680 523q39 -79 39 -173q0 -101 -43.5 -183t-120.5 -129.5t-174 -47.5t-174 47.5t-120.5 129.5t-43.5 183t43.5 183t120.5 129.5t174 47.5q48 0 90 -12q75 6 75 68q0 18 10.5 32t29.5 14q21 0 30.5 -14t9.5 -32q0 -36 -13.5 -66t-39.5 -50q68 -48 107 -127zM502.5 119.5
q53.5 34.5 83.5 95t30 135.5t-30 135.5t-83.5 95t-121.5 34.5t-121.5 -34t-83.5 -94.5t-30 -136.5q0 -75 30 -135.5t83.5 -95t121.5 -34.5t121.5 34.5zM339.5 -133q-12.5 11 -12.5 35v15q0 46 53 46q30 0 42.5 -10.5t12.5 -35.5v-15q0 -25 -13 -35.5t-42 -10.5
q-28 0 -40.5 11z" />
    <glyph glyph-name="uni1EDC" unicode="&#x1edc;" horiz-adv-x="762" 
d="M680 523q39 -79 39 -173q0 -101 -43.5 -183t-120.5 -129.5t-174 -47.5t-174 47.5t-120.5 129.5t-43.5 183t43.5 183t120.5 129.5t174 47.5q48 0 90 -12q75 6 75 68q0 18 10.5 32t29.5 14q21 0 30.5 -14t9.5 -32q0 -36 -13.5 -66t-39.5 -50q68 -48 107 -127zM502.5 119.5
q53.5 34.5 83.5 95t30 135.5t-30 135.5t-83.5 95t-121.5 34.5t-121.5 -34t-83.5 -94.5t-30 -136.5q0 -75 30 -135.5t83.5 -95t121.5 -34.5t121.5 34.5zM357 750l-99 51q-14 8 -22 19.5t-8 24.5q0 17 13.5 29t30.5 12q19 0 41 -18l87 -73q12 -10 12 -23t-8.5 -21t-23.5 -8
q-9 0 -23 7z" />
    <glyph glyph-name="uni1EDE" unicode="&#x1ede;" horiz-adv-x="762" 
d="M680 523q39 -79 39 -173q0 -101 -43.5 -183t-120.5 -129.5t-174 -47.5t-174 47.5t-120.5 129.5t-43.5 183t43.5 183t120.5 129.5t174 47.5q48 0 90 -12q75 6 75 68q0 18 10.5 32t29.5 14q21 0 30.5 -14t9.5 -32q0 -36 -13.5 -66t-39.5 -50q68 -48 107 -127zM502.5 119.5
q53.5 34.5 83.5 95t30 135.5t-30 135.5t-83.5 95t-121.5 34.5t-121.5 -34t-83.5 -94.5t-30 -136.5q0 -75 30 -135.5t83.5 -95t121.5 -34.5t121.5 34.5zM370 948q51 0 72.5 -25t21.5 -57q0 -16 -6 -29t-19 -28q-19 -21 -20 -33q0 -10 -9 -15t-23 -5q-10 0 -17.5 5.5
t-7.5 15.5q0 20 16 39q13 15 19 25t6 19q0 12 -10 20t-25 8q-18 0 -43 -17q-9 -7 -17 -7q-11 0 -21 11q-7 7 -7 17q0 13 13 26q35 30 77 30z" />
    <glyph glyph-name="uni1EE0" unicode="&#x1ee0;" horiz-adv-x="762" 
d="M680 523q39 -79 39 -173q0 -101 -43.5 -183t-120.5 -129.5t-174 -47.5t-174 47.5t-120.5 129.5t-43.5 183t43.5 183t120.5 129.5t174 47.5q48 0 90 -12q75 6 75 68q0 18 10.5 32t29.5 14q21 0 30.5 -14t9.5 -32q0 -36 -13.5 -66t-39.5 -50q68 -48 107 -127zM502.5 119.5
q53.5 34.5 83.5 95t30 135.5t-30 135.5t-83.5 95t-121.5 34.5t-121.5 -34t-83.5 -94.5t-30 -136.5q0 -75 30 -135.5t83.5 -95t121.5 -34.5t121.5 34.5zM206.5 775.5q-11.5 14.5 -11.5 39.5q0 36 27.5 61t73.5 25q22 0 44 -9.5t50 -26.5q23 -14 34.5 -19.5t21.5 -5.5
q12 0 19.5 8t6.5 21q-1 4 -1 10q0 13 8.5 21t21.5 8q19 0 30.5 -15t11.5 -38q0 -33 -24 -60t-65 -27q-24 0 -47.5 10t-54.5 27q-17 9 -32.5 16t-25.5 7q-12 0 -20 -7.5t-8 -21.5q1 -3 1 -8q0 -14 -9 -22t-22 -8q-18 0 -29.5 14.5z" />
    <glyph glyph-name="Ohungarumlaut" unicode="&#x150;" horiz-adv-x="762" 
d="M675.5 167q-43.5 -82 -120.5 -129.5t-174 -47.5t-174 47.5t-120.5 129.5t-43.5 183t43.5 183t120.5 129.5t174 47.5t174 -47.5t120.5 -129.5t43.5 -183t-43.5 -183zM586 485.5q-30 60.5 -83.5 95t-121.5 34.5t-121.5 -34t-83.5 -94.5t-30 -136.5q0 -75 30 -135.5
t83.5 -95t121.5 -34.5t121.5 34.5t83.5 95t30 135.5t-30 135.5zM263 787q0 12 10 28l47 73q16 26 42 26q19 0 32.5 -11.5t13.5 -29.5q0 -15 -14 -29l-58 -56q-12 -12 -23.5 -17t-26.5 -5q-23 0 -23 21zM440 771.5q-6 5.5 -6 14.5q0 12 11 29l48 74q7 11 16.5 17t24.5 6
q17 0 31.5 -9.5t14.5 -27.5q0 -17 -14 -31l-58 -56q-22 -22 -51 -22q-11 0 -17 5.5z" />
    <glyph glyph-name="uni020E" unicode="&#x20e;" horiz-adv-x="762" 
d="M675.5 167q-43.5 -82 -120.5 -129.5t-174 -47.5t-174 47.5t-120.5 129.5t-43.5 183t43.5 183t120.5 129.5t174 47.5t174 -47.5t120.5 -129.5t43.5 -183t-43.5 -183zM586 485.5q-30 60.5 -83.5 95t-121.5 34.5t-121.5 -34t-83.5 -94.5t-30 -136.5q0 -75 30 -135.5
t83.5 -95t121.5 -34.5t121.5 34.5t83.5 95t30 135.5t-30 135.5zM474 876q40 -26 52 -69q3 -9 3 -16q0 -13 -8 -20.5t-21 -7.5q-16 0 -26 7.5t-21 23.5q-20 37 -73 37q-26 0 -45 -9.5t-28 -27.5q-11 -16 -21 -23.5t-27 -7.5q-13 0 -21 7.5t-8 19.5q0 8 3 15q13 44 53 70.5
t94 26.5t94 -26z" />
    <glyph glyph-name="Omacron" unicode="&#x14c;" horiz-adv-x="762" 
d="M675.5 167q-43.5 -82 -120.5 -129.5t-174 -47.5t-174 47.5t-120.5 129.5t-43.5 183t43.5 183t120.5 129.5t174 47.5t174 -47.5t120.5 -129.5t43.5 -183t-43.5 -183zM586 485.5q-30 60.5 -83.5 95t-121.5 34.5t-121.5 -34t-83.5 -94.5t-30 -136.5q0 -75 30 -135.5
t83.5 -95t121.5 -34.5t121.5 34.5t83.5 95t30 135.5t-30 135.5zM228.5 774.5q-10.5 9.5 -10.5 27.5q0 36 41 36h248q41 0 41 -36q0 -18 -10.5 -27.5t-30.5 -9.5h-248q-20 0 -30.5 9.5z" />
    <glyph glyph-name="uni1E52" unicode="&#x1e52;" horiz-adv-x="762" 
d="M675.5 167q-43.5 -82 -120.5 -129.5t-174 -47.5t-174 47.5t-120.5 129.5t-43.5 183t43.5 183t120.5 129.5t174 47.5t174 -47.5t120.5 -129.5t43.5 -183t-43.5 -183zM586 485.5q-30 60.5 -83.5 95t-121.5 34.5t-121.5 -34t-83.5 -94.5t-30 -136.5q0 -75 30 -135.5
t83.5 -95t121.5 -34.5t121.5 34.5t83.5 95t30 135.5t-30 135.5zM228.5 774.5q-10.5 9.5 -10.5 27.5q0 36 41 36h248q41 0 41 -36q0 -18 -10.5 -27.5t-30.5 -9.5h-248q-20 0 -30.5 9.5zM358.5 910.5q-8.5 7.5 -8.5 20.5t12 23l88 74q21 17 40 17q17 0 30.5 -12t13.5 -29
q0 -13 -8 -25t-22 -19l-99 -51q-12 -6 -23 -6q-15 0 -23.5 7.5z" />
    <glyph glyph-name="uni1E50" unicode="&#x1e50;" horiz-adv-x="762" 
d="M675.5 167q-43.5 -82 -120.5 -129.5t-174 -47.5t-174 47.5t-120.5 129.5t-43.5 183t43.5 183t120.5 129.5t174 47.5t174 -47.5t120.5 -129.5t43.5 -183t-43.5 -183zM586 485.5q-30 60.5 -83.5 95t-121.5 34.5t-121.5 -34t-83.5 -94.5t-30 -136.5q0 -75 30 -135.5
t83.5 -95t121.5 -34.5t121.5 34.5t83.5 95t30 135.5t-30 135.5zM228.5 774.5q-10.5 9.5 -10.5 27.5q0 36 41 36h248q41 0 41 -36q0 -18 -10.5 -27.5t-30.5 -9.5h-248q-20 0 -30.5 9.5zM357 912l-99 51q-14 8 -22 19.5t-8 24.5q0 17 13.5 29t30.5 12q19 0 41 -18l87 -73
q12 -10 12 -23t-8.5 -21t-23.5 -8q-9 0 -23 7z" />
    <glyph glyph-name="uni01EA" unicode="&#x1ea;" horiz-adv-x="762" 
d="M402.5 -36q-17.5 -21 -17.5 -44q0 -21 11 -33t27 -12q15 0 23 11q14 18 36 18q15 0 25 -10t10 -27q0 -15 -14.5 -31t-38 -26t-49.5 -10q-47 0 -78.5 26.5t-31.5 75.5q0 52 35 90q-86 10 -154 59.5t-105.5 127.5t-37.5 171q0 101 43.5 183t120.5 129.5t174 47.5t174 -47.5
t120.5 -129.5t43.5 -183q0 -87 -33.5 -161.5t-94 -124.5t-138.5 -67q-33 -12 -50.5 -33zM176 214.5q30 -60.5 83.5 -95t121.5 -34.5t121.5 34.5t83.5 95t30 135.5t-30 135.5t-83.5 95t-121.5 34.5t-121.5 -34t-83.5 -94.5t-30 -136.5q0 -75 30 -135.5z" />
    <glyph glyph-name="Oslash" unicode="&#xd8;" horiz-adv-x="733" 
d="M694 491q25 -66 25 -141q0 -101 -43.5 -183t-120.5 -129.5t-174 -47.5q-117 0 -205 69l-55 -68q-16 -19 -35 -19q-15 0 -27.5 12t-12.5 28q0 15 9 27l64 78q-37 47 -56.5 106.5t-19.5 126.5q0 101 43.5 183t120.5 129.5t174 47.5q101 0 181 -52l53 65q13 16 33 16
q16 0 28.5 -11t12.5 -27q0 -15 -10 -28l-55 -67q45 -49 70 -115zM185 198l315 384q-53 33 -119 33q-68 0 -121.5 -34t-83.5 -94.5t-30 -136.5q0 -86 39 -152zM502.5 119.5q53.5 34.5 83.5 95t30 135.5q0 105 -56 178l-322 -394q62 -49 143 -49q68 0 121.5 34.5z" />
    <glyph glyph-name="Oslashacute" unicode="&#x1fe;" horiz-adv-x="733" 
d="M694 491q25 -66 25 -141q0 -101 -43.5 -183t-120.5 -129.5t-174 -47.5q-117 0 -205 69l-55 -68q-16 -19 -35 -19q-15 0 -27.5 12t-12.5 28q0 15 9 27l64 78q-37 47 -56.5 106.5t-19.5 126.5q0 101 43.5 183t120.5 129.5t174 47.5q101 0 181 -52l53 65q13 16 33 16
q16 0 28.5 -11t12.5 -27q0 -15 -10 -28l-55 -67q45 -49 70 -115zM185 198l315 384q-53 33 -119 33q-68 0 -121.5 -34t-83.5 -94.5t-30 -136.5q0 -86 39 -152zM502.5 119.5q53.5 34.5 83.5 95t30 135.5q0 105 -56 178l-322 -394q62 -49 143 -49q68 0 121.5 34.5zM344.5 748.5
q-8.5 7.5 -8.5 20.5t12 23l88 74q21 17 40 17q17 0 30.5 -12t13.5 -29q0 -13 -8 -25t-22 -19l-99 -51q-12 -6 -23 -6q-15 0 -23.5 7.5z" />
    <glyph glyph-name="Otilde" unicode="&#xd5;" horiz-adv-x="762" 
d="M675.5 167q-43.5 -82 -120.5 -129.5t-174 -47.5t-174 47.5t-120.5 129.5t-43.5 183t43.5 183t120.5 129.5t174 47.5t174 -47.5t120.5 -129.5t43.5 -183t-43.5 -183zM586 485.5q-30 60.5 -83.5 95t-121.5 34.5t-121.5 -34t-83.5 -94.5t-30 -136.5q0 -75 30 -135.5
t83.5 -95t121.5 -34.5t121.5 34.5t83.5 95t30 135.5t-30 135.5zM218.5 764.5q-11.5 14.5 -11.5 39.5q0 36 27.5 61t73.5 25q22 0 44 -9.5t50 -26.5q23 -14 34.5 -19.5t21.5 -5.5q12 0 19.5 8t6.5 21q-1 4 -1 10q0 13 8.5 21t21.5 8q19 0 30.5 -15t11.5 -38q0 -33 -24 -60
t-65 -27q-24 0 -47.5 10t-54.5 27q-17 9 -32.5 16t-25.5 7q-12 0 -20 -7.5t-8 -21.5q1 -3 1 -8q0 -14 -9 -22t-22 -8q-18 0 -29.5 14.5z" />
    <glyph glyph-name="uni1E4C" unicode="&#x1e4c;" horiz-adv-x="762" 
d="M675.5 167q-43.5 -82 -120.5 -129.5t-174 -47.5t-174 47.5t-120.5 129.5t-43.5 183t43.5 183t120.5 129.5t174 47.5t174 -47.5t120.5 -129.5t43.5 -183t-43.5 -183zM586 485.5q-30 60.5 -83.5 95t-121.5 34.5t-121.5 -34t-83.5 -94.5t-30 -136.5q0 -75 30 -135.5
t83.5 -95t121.5 -34.5t121.5 34.5t83.5 95t30 135.5t-30 135.5zM218.5 764.5q-11.5 14.5 -11.5 39.5q0 36 27.5 61t73.5 25q22 0 44 -9.5t50 -26.5q23 -14 34.5 -19.5t21.5 -5.5q12 0 19.5 8t6.5 21q-1 4 -1 10q0 13 8.5 21t21.5 8q19 0 30.5 -15t11.5 -38q0 -33 -24 -60
t-65 -27q-24 0 -47.5 10t-54.5 27q-17 9 -32.5 16t-25.5 7q-12 0 -20 -7.5t-8 -21.5q1 -3 1 -8q0 -14 -9 -22t-22 -8q-18 0 -29.5 14.5zM358.5 955.5q-8.5 7.5 -8.5 20.5t12 23l88 74q21 17 40 17q17 0 30.5 -12t13.5 -29q0 -13 -8 -25t-22 -19l-99 -51q-12 -6 -23 -6
q-15 0 -23.5 7.5z" />
    <glyph glyph-name="uni1E4E" unicode="&#x1e4e;" horiz-adv-x="762" 
d="M675.5 167q-43.5 -82 -120.5 -129.5t-174 -47.5t-174 47.5t-120.5 129.5t-43.5 183t43.5 183t120.5 129.5t174 47.5t174 -47.5t120.5 -129.5t43.5 -183t-43.5 -183zM586 485.5q-30 60.5 -83.5 95t-121.5 34.5t-121.5 -34t-83.5 -94.5t-30 -136.5q0 -75 30 -135.5
t83.5 -95t121.5 -34.5t121.5 34.5t83.5 95t30 135.5t-30 135.5zM218.5 764.5q-11.5 14.5 -11.5 39.5q0 36 27.5 61t73.5 25q22 0 44 -9.5t50 -26.5q23 -14 34.5 -19.5t21.5 -5.5q12 0 19.5 8t6.5 21q-1 4 -1 10q0 13 8.5 21t21.5 8q19 0 30.5 -15t11.5 -38q0 -33 -24 -60
t-65 -27q-24 0 -47.5 10t-54.5 27q-17 9 -32.5 16t-25.5 7q-12 0 -20 -7.5t-8 -21.5q1 -3 1 -8q0 -14 -9 -22t-22 -8q-18 0 -29.5 14.5zM247 984q-13 11 -13 35v15q0 45 53 45q27 0 40 -10.5t13 -34.5v-15q0 -24 -13 -35t-41 -11q-26 0 -39 11zM435 984q-13 11 -13 35v15
q0 24 13 34.5t39 10.5q28 0 41 -10.5t13 -34.5v-15q0 -24 -13 -35t-41 -11q-26 0 -39 11z" />
    <glyph glyph-name="uni022C" unicode="&#x22c;" horiz-adv-x="762" 
d="M675.5 167q-43.5 -82 -120.5 -129.5t-174 -47.5t-174 47.5t-120.5 129.5t-43.5 183t43.5 183t120.5 129.5t174 47.5t174 -47.5t120.5 -129.5t43.5 -183t-43.5 -183zM586 485.5q-30 60.5 -83.5 95t-121.5 34.5t-121.5 -34t-83.5 -94.5t-30 -136.5q0 -75 30 -135.5
t83.5 -95t121.5 -34.5t121.5 34.5t83.5 95t30 135.5t-30 135.5zM218.5 764.5q-11.5 14.5 -11.5 39.5q0 36 27.5 61t73.5 25q22 0 44 -9.5t50 -26.5q23 -14 34.5 -19.5t21.5 -5.5q12 0 19.5 8t6.5 21q-1 4 -1 10q0 13 8.5 21t21.5 8q19 0 30.5 -15t11.5 -38q0 -33 -24 -60
t-65 -27q-24 0 -47.5 10t-54.5 27q-17 9 -32.5 16t-25.5 7q-12 0 -20 -7.5t-8 -21.5q1 -3 1 -8q0 -14 -9 -22t-22 -8q-18 0 -29.5 14.5zM228.5 981.5q-10.5 9.5 -10.5 27.5q0 36 41 36h248q41 0 41 -36q0 -18 -10.5 -27.5t-30.5 -9.5h-248q-20 0 -30.5 9.5z" />
    <glyph glyph-name="OE" unicode="&#x152;" horiz-adv-x="977" 
d="M920 81q14 -14 14 -34t-14 -33.5t-35 -13.5h-545q-94 0 -161.5 46.5t-101.5 126t-34 177.5q0 97 34.5 176.5t101.5 126.5t161 47h545q21 0 35 -14t14 -34t-14 -33.5t-35 -13.5h-291v-207h246q21 0 35 -13.5t14 -34.5q0 -20 -14 -33.5t-35 -13.5h-246v-208h291
q21 0 35 -14zM189 166q51 -71 154 -71h156v510h-156q-102 0 -153.5 -72t-51.5 -183q0 -113 51 -184z" />
    <glyph glyph-name="P" unicode="P" horiz-adv-x="600" 
d="M461 671.5q45 -28.5 71.5 -77.5t26.5 -108t-26.5 -109t-71.5 -79t-98 -29h-188v-221q0 -20 -13 -34t-33 -14q-21 0 -33.5 13.5t-12.5 34.5v604q0 20 14 34t34 14h232q53 0 98 -28.5zM413 377.5q23 17.5 36.5 46.5t13.5 62q0 51 -29.5 86.5t-70.5 35.5h-188v-248h188
q27 0 50 17.5z" />
    <glyph glyph-name="Thorn" unicode="&#xde;" horiz-adv-x="597" 
d="M457 574.5q45 -28.5 71.5 -77.5t26.5 -109q0 -59 -27 -108.5t-72 -78.5t-97 -29h-181v-124q0 -20 -14 -34t-34 -14q-21 0 -34 13.5t-13 34.5v644q0 20 14 34t34 14q21 0 34 -13.5t13 -34.5v-89h181q53 0 98 -28.5zM430 302.5q30 35.5 30 85.5q0 51 -29.5 85.5t-71.5 34.5
h-181v-241h181q41 0 71 35.5z" />
    <glyph glyph-name="Q" unicode="Q" horiz-adv-x="763" 
d="M771.5 -53.5q13.5 -13.5 13.5 -31.5q0 -26 -32 -50t-78 -39t-84 -15q-61 0 -99 12t-79 35q-31 17 -51 24.5t-47 7.5q-12 0 -22.5 -3.5t-20.5 -8.5q-24 -12 -45 -12q-19 0 -32.5 14.5t-13.5 32.5q0 31 27 41l112 41q-81 14 -144 64t-98 126t-35 165q0 101 43.5 183
t120.5 129.5t174 47.5t174 -47.5t120.5 -129.5t43.5 -183q0 -88 -33.5 -162t-93.5 -124t-138 -66l-76 -28q25 -3 45.5 -11.5t49.5 -23.5q36 -18 63 -27.5t60 -9.5q29 0 50 8t40 22l18.5 14.5t19 13t17.5 4.5q17 0 30.5 -13.5zM176 214.5q30 -60.5 83.5 -95t121.5 -34.5
t121.5 34.5t83.5 95t30 135.5t-30 135.5t-83.5 95t-121.5 34.5t-121.5 -34t-83.5 -94.5t-30 -136.5q0 -75 30 -135.5z" />
    <glyph glyph-name="R" unicode="R" horiz-adv-x="680" 
d="M632 62.5q6 -10.5 6 -21.5q0 -21 -13.5 -31t-32.5 -10t-32 8q-30 17 -49 55t-19 112q0 50 -30 74t-78 24h-202v-225q0 -21 -12 -34.5t-31 -13.5q-23 0 -39.5 14t-16.5 34v604q0 20 14 34t34 14h281q54 0 99 -26.5t72 -73t27 -104.5q0 -56 -30 -104.5t-77 -72.5
q37 -19 58.5 -53t23.5 -79q4 -57 9 -77.5t22 -29.5q10 -7 16 -17.5zM457.5 376q22.5 18 36.5 48.5t14 68.5q0 48 -29.5 81.5t-71.5 33.5h-225v-252h228q25 2 47.5 20z" />
    <glyph glyph-name="Racute" unicode="&#x154;" horiz-adv-x="680" 
d="M632 62.5q6 -10.5 6 -21.5q0 -21 -13.5 -31t-32.5 -10t-32 8q-30 17 -49 55t-19 112q0 50 -30 74t-78 24h-202v-225q0 -21 -12 -34.5t-31 -13.5q-23 0 -39.5 14t-16.5 34v604q0 20 14 34t34 14h281q54 0 99 -26.5t72 -73t27 -104.5q0 -56 -30 -104.5t-77 -72.5
q37 -19 58.5 -53t23.5 -79q4 -57 9 -77.5t22 -29.5q10 -7 16 -17.5zM457.5 376q22.5 18 36.5 48.5t14 68.5q0 48 -29.5 81.5t-71.5 33.5h-225v-252h228q25 2 47.5 20zM316.5 748.5q-8.5 7.5 -8.5 20.5t12 23l88 74q21 17 40 17q17 0 30.5 -12t13.5 -29q0 -13 -8 -25t-22 -19
l-99 -51q-12 -6 -23 -6q-15 0 -23.5 7.5z" />
    <glyph glyph-name="Rcaron" unicode="&#x158;" horiz-adv-x="680" 
d="M632 62.5q6 -10.5 6 -21.5q0 -21 -13.5 -31t-32.5 -10t-32 8q-30 17 -49 55t-19 112q0 50 -30 74t-78 24h-202v-225q0 -21 -12 -34.5t-31 -13.5q-23 0 -39.5 14t-16.5 34v604q0 20 14 34t34 14h281q54 0 99 -26.5t72 -73t27 -104.5q0 -56 -30 -104.5t-77 -72.5
q37 -19 58.5 -53t23.5 -79q4 -57 9 -77.5t22 -29.5q10 -7 16 -17.5zM457.5 376q22.5 18 36.5 48.5t14 68.5q0 48 -29.5 81.5t-71.5 33.5h-225v-252h228q25 2 47.5 20zM469.5 884.5q7.5 -6.5 7.5 -14.5q0 -6 -2.5 -11t-10.5 -13l-68 -76q-11 -12 -22.5 -18t-27.5 -6h-14
q-16 0 -27.5 6t-21.5 18l-69 76q-6 7 -9 12.5t-3 11.5q0 8 7 14.5t18 6.5q17 0 41 -17l72 -49l70 49q24 17 41 17q11 0 18.5 -6.5z" />
    <glyph glyph-name="Rcommaaccent" unicode="&#x156;" horiz-adv-x="680" 
d="M632 62.5q6 -10.5 6 -21.5q0 -21 -13.5 -31t-32.5 -10t-32 8q-30 17 -49 55t-19 112q0 50 -30 74t-78 24h-202v-225q0 -21 -12 -34.5t-31 -13.5q-23 0 -39.5 14t-16.5 34v604q0 20 14 34t34 14h281q54 0 99 -26.5t72 -73t27 -104.5q0 -56 -30 -104.5t-77 -72.5
q37 -19 58.5 -53t23.5 -79q4 -57 9 -77.5t22 -29.5q10 -7 16 -17.5zM457.5 376q22.5 18 36.5 48.5t14 68.5q0 48 -29.5 81.5t-71.5 33.5h-225v-252h228q25 2 47.5 20zM385.5 -165q-27.5 -27 -64.5 -27q-20 0 -31 8t-11 19q0 10 5.5 15.5t13.5 5.5q4 0 11.5 -2t14.5 -2
q11 0 18.5 8t7.5 22q0 13 -10 13q-4 0 -10 -4.5t-15 -4.5q-15 0 -23.5 10t-8.5 25q0 21 16.5 32t44.5 11q30 0 49.5 -18.5t19.5 -50.5q0 -33 -27.5 -60z" />
    <glyph glyph-name="uni0210" unicode="&#x210;" horiz-adv-x="680" 
d="M632 62.5q6 -10.5 6 -21.5q0 -21 -13.5 -31t-32.5 -10t-32 8q-30 17 -49 55t-19 112q0 50 -30 74t-78 24h-202v-225q0 -21 -12 -34.5t-31 -13.5q-23 0 -39.5 14t-16.5 34v604q0 20 14 34t34 14h281q54 0 99 -26.5t72 -73t27 -104.5q0 -56 -30 -104.5t-77 -72.5
q37 -19 58.5 -53t23.5 -79q4 -57 9 -77.5t22 -29.5q10 -7 16 -17.5zM457.5 376q22.5 18 36.5 48.5t14 68.5q0 48 -29.5 81.5t-71.5 33.5h-225v-252h228q25 2 47.5 20zM428 765l-99 51q-30 17 -30 44q0 18 13.5 29.5t30.5 11.5q19 0 40 -17l87 -73q13 -12 13 -24t-9 -20
t-24 -8q-8 0 -22 6zM238 760l-99 51q-30 15 -30 44q0 17 13.5 29t29.5 12q21 0 41 -18l87 -73q13 -10 13 -23t-9 -21t-24 -8q-10 0 -22 7z" />
    <glyph glyph-name="uni1E5A" unicode="&#x1e5a;" horiz-adv-x="680" 
d="M632 62.5q6 -10.5 6 -21.5q0 -21 -13.5 -31t-32.5 -10t-32 8q-30 17 -49 55t-19 112q0 50 -30 74t-78 24h-202v-225q0 -21 -12 -34.5t-31 -13.5q-23 0 -39.5 14t-16.5 34v604q0 20 14 34t34 14h281q54 0 99 -26.5t72 -73t27 -104.5q0 -56 -30 -104.5t-77 -72.5
q37 -19 58.5 -53t23.5 -79q4 -57 9 -77.5t22 -29.5q10 -7 16 -17.5zM457.5 376q22.5 18 36.5 48.5t14 68.5q0 48 -29.5 81.5t-71.5 33.5h-225v-252h228q25 2 47.5 20zM297.5 -133q-12.5 11 -12.5 35v15q0 46 53 46q30 0 42.5 -10.5t12.5 -35.5v-15q0 -25 -13 -35.5
t-42 -10.5q-28 0 -40.5 11z" />
    <glyph glyph-name="uni0212" unicode="&#x212;" horiz-adv-x="680" 
d="M632 62.5q6 -10.5 6 -21.5q0 -21 -13.5 -31t-32.5 -10t-32 8q-30 17 -49 55t-19 112q0 50 -30 74t-78 24h-202v-225q0 -21 -12 -34.5t-31 -13.5q-23 0 -39.5 14t-16.5 34v604q0 20 14 34t34 14h281q54 0 99 -26.5t72 -73t27 -104.5q0 -56 -30 -104.5t-77 -72.5
q37 -19 58.5 -53t23.5 -79q4 -57 9 -77.5t22 -29.5q10 -7 16 -17.5zM457.5 376q22.5 18 36.5 48.5t14 68.5q0 48 -29.5 81.5t-71.5 33.5h-225v-252h228q25 2 47.5 20zM432 876q40 -26 52 -69q3 -9 3 -16q0 -13 -8 -20.5t-21 -7.5q-16 0 -26 7.5t-21 23.5q-20 37 -73 37
q-26 0 -45 -9.5t-28 -27.5q-11 -16 -21 -23.5t-27 -7.5q-13 0 -21 7.5t-8 19.5q0 8 3 15q13 44 53 70.5t94 26.5t94 -26z" />
    <glyph glyph-name="uni1E5E" unicode="&#x1e5e;" horiz-adv-x="680" 
d="M632 62.5q6 -10.5 6 -21.5q0 -21 -13.5 -31t-32.5 -10t-32 8q-30 17 -49 55t-19 112q0 50 -30 74t-78 24h-202v-225q0 -21 -12 -34.5t-31 -13.5q-23 0 -39.5 14t-16.5 34v604q0 20 14 34t34 14h281q54 0 99 -26.5t72 -73t27 -104.5q0 -56 -30 -104.5t-77 -72.5
q37 -19 58.5 -53t23.5 -79q4 -57 9 -77.5t22 -29.5q10 -7 16 -17.5zM457.5 376q22.5 18 36.5 48.5t14 68.5q0 48 -29.5 81.5t-71.5 33.5h-225v-252h228q25 2 47.5 20zM202.5 -131.5q-10.5 9.5 -10.5 26.5t11 27t30 10h229q19 0 29.5 -10t10.5 -27t-10.5 -26.5t-29.5 -9.5
h-229q-20 0 -30.5 9.5z" />
    <glyph glyph-name="S" unicode="S" horiz-adv-x="582" 
d="M166 10.5q-56 20.5 -107 66.5q-21 18 -21 41q0 18 14 32.5t33 14.5q17 0 29 -11q40 -37 82.5 -54.5t96.5 -17.5q63 0 106.5 29t43.5 73q-1 52 -43.5 80.5t-129.5 47.5q-103 21 -158.5 69t-55.5 133q0 59 31 103.5t86 68.5t124 24q62 0 117 -20t89 -53q23 -20 23 -43
q0 -18 -13.5 -32t-32.5 -14q-14 0 -23 8q-26 26 -72 44t-88 18q-67 0 -106.5 -27.5t-39.5 -72.5q0 -49 39.5 -75t117.5 -44q78 -17 127.5 -40t76.5 -64t27 -107q0 -58 -32.5 -103t-88.5 -70t-123 -25q-73 0 -129 20.5z" />
    <glyph glyph-name="Sacute" unicode="&#x15a;" horiz-adv-x="582" 
d="M166 10.5q-56 20.5 -107 66.5q-21 18 -21 41q0 18 14 32.5t33 14.5q17 0 29 -11q40 -37 82.5 -54.5t96.5 -17.5q63 0 106.5 29t43.5 73q-1 52 -43.5 80.5t-129.5 47.5q-103 21 -158.5 69t-55.5 133q0 59 31 103.5t86 68.5t124 24q62 0 117 -20t89 -53q23 -20 23 -43
q0 -18 -13.5 -32t-32.5 -14q-14 0 -23 8q-26 26 -72 44t-88 18q-67 0 -106.5 -27.5t-39.5 -72.5q0 -49 39.5 -75t117.5 -44q78 -17 127.5 -40t76.5 -64t27 -107q0 -58 -32.5 -103t-88.5 -70t-123 -25q-73 0 -129 20.5zM269.5 748.5q-8.5 7.5 -8.5 20.5t12 23l88 74
q21 17 40 17q17 0 30.5 -12t13.5 -29q0 -13 -8 -25t-22 -19l-99 -51q-12 -6 -23 -6q-15 0 -23.5 7.5z" />
    <glyph glyph-name="uni1E64" unicode="&#x1e64;" horiz-adv-x="582" 
d="M166 10.5q-56 20.5 -107 66.5q-21 18 -21 41q0 18 14 32.5t33 14.5q17 0 29 -11q40 -37 82.5 -54.5t96.5 -17.5q63 0 106.5 29t43.5 73q-1 52 -43.5 80.5t-129.5 47.5q-103 21 -158.5 69t-55.5 133q0 59 31 103.5t86 68.5t124 24q62 0 117 -20t89 -53q23 -20 23 -43
q0 -18 -13.5 -32t-32.5 -14q-14 0 -23 8q-26 26 -72 44t-88 18q-67 0 -106.5 -27.5t-39.5 -72.5q0 -49 39.5 -75t117.5 -44q78 -17 127.5 -40t76.5 -64t27 -107q0 -58 -32.5 -103t-88.5 -70t-123 -25q-73 0 -129 20.5zM269.5 748.5q-8.5 7.5 -8.5 20.5t12 23l88 74
q21 17 40 17q17 0 30.5 -12t13.5 -29q0 -13 -8 -25t-22 -19l-99 -51q-12 -6 -23 -6q-15 0 -23.5 7.5zM298.5 939.5q-12.5 10.5 -12.5 34.5v16q0 24 13.5 34.5t40.5 10.5q29 0 41.5 -10.5t12.5 -34.5v-16q0 -24 -13 -34.5t-42 -10.5q-28 0 -40.5 10.5z" />
    <glyph glyph-name="Scaron" unicode="&#x160;" horiz-adv-x="582" 
d="M166 10.5q-56 20.5 -107 66.5q-21 18 -21 41q0 18 14 32.5t33 14.5q17 0 29 -11q40 -37 82.5 -54.5t96.5 -17.5q63 0 106.5 29t43.5 73q-1 52 -43.5 80.5t-129.5 47.5q-103 21 -158.5 69t-55.5 133q0 59 31 103.5t86 68.5t124 24q62 0 117 -20t89 -53q23 -20 23 -43
q0 -18 -13.5 -32t-32.5 -14q-14 0 -23 8q-26 26 -72 44t-88 18q-67 0 -106.5 -27.5t-39.5 -72.5q0 -49 39.5 -75t117.5 -44q78 -17 127.5 -40t76.5 -64t27 -107q0 -58 -32.5 -103t-88.5 -70t-123 -25q-73 0 -129 20.5zM422.5 884.5q7.5 -6.5 7.5 -14.5q0 -6 -2.5 -11
t-10.5 -13l-68 -76q-11 -12 -22.5 -18t-27.5 -6h-14q-16 0 -27.5 6t-21.5 18l-69 76q-6 7 -9 12.5t-3 11.5q0 8 7 14.5t18 6.5q17 0 41 -17l72 -49l70 49q24 17 41 17q11 0 18.5 -6.5z" />
    <glyph glyph-name="uni1E66" unicode="&#x1e66;" horiz-adv-x="582" 
d="M166 10.5q-56 20.5 -107 66.5q-21 18 -21 41q0 18 14 32.5t33 14.5q17 0 29 -11q40 -37 82.5 -54.5t96.5 -17.5q63 0 106.5 29t43.5 73q-1 52 -43.5 80.5t-129.5 47.5q-103 21 -158.5 69t-55.5 133q0 59 31 103.5t86 68.5t124 24q62 0 117 -20t89 -53q23 -20 23 -43
q0 -18 -13.5 -32t-32.5 -14q-14 0 -23 8q-26 26 -72 44t-88 18q-67 0 -106.5 -27.5t-39.5 -72.5q0 -49 39.5 -75t117.5 -44q78 -17 127.5 -40t76.5 -64t27 -107q0 -58 -32.5 -103t-88.5 -70t-123 -25q-73 0 -129 20.5zM422.5 884.5q7.5 -6.5 7.5 -14.5q0 -6 -2.5 -11
t-10.5 -13l-68 -76q-11 -12 -22.5 -18t-27.5 -6h-14q-16 0 -27.5 6t-21.5 18l-69 76q-6 7 -9 12.5t-3 11.5q0 8 7 14.5t18 6.5q17 0 41 -17l72 -49l70 49q24 17 41 17q11 0 18.5 -6.5zM250.5 968.5q-12.5 10.5 -12.5 34.5v16q0 24 13.5 34.5t40.5 10.5q29 0 41.5 -10.5
t12.5 -34.5v-16q0 -24 -13 -34.5t-42 -10.5q-28 0 -40.5 10.5z" />
    <glyph glyph-name="Scedilla" unicode="&#x15e;" horiz-adv-x="582" 
d="M509 89q-30 -44 -82 -69.5t-115 -29.5l-45 -111q-10 -27 -34 -27q-16 0 -36 12t-20 28q0 14 10 25l58 76q-55 5 -99.5 25.5t-86.5 58.5q-21 18 -21 41q0 18 14 32.5t33 14.5q17 0 29 -11q40 -37 82.5 -54.5t96.5 -17.5q63 0 106.5 29t43.5 73q-1 52 -43.5 80.5
t-129.5 47.5q-103 21 -158.5 69t-55.5 133q0 59 31 103.5t86 68.5t124 24q62 0 117 -20t89 -53q23 -20 23 -43q0 -18 -13.5 -32t-32.5 -14q-14 0 -23 8q-26 26 -72 44t-88 18q-67 0 -106.5 -27.5t-39.5 -72.5q0 -49 39.5 -75t117.5 -44q78 -17 127.5 -40t76.5 -64t27 -107
q0 -55 -30 -99z" />
    <glyph glyph-name="Scircumflex" unicode="&#x15c;" horiz-adv-x="582" 
d="M166 10.5q-56 20.5 -107 66.5q-21 18 -21 41q0 18 14 32.5t33 14.5q17 0 29 -11q40 -37 82.5 -54.5t96.5 -17.5q63 0 106.5 29t43.5 73q-1 52 -43.5 80.5t-129.5 47.5q-103 21 -158.5 69t-55.5 133q0 59 31 103.5t86 68.5t124 24q62 0 117 -20t89 -53q23 -20 23 -43
q0 -18 -13.5 -32t-32.5 -14q-14 0 -23 8q-26 26 -72 44t-88 18q-67 0 -106.5 -27.5t-39.5 -72.5q0 -49 39.5 -75t117.5 -44q78 -17 127.5 -40t76.5 -64t27 -107q0 -58 -32.5 -103t-88.5 -70t-123 -25q-73 0 -129 20.5zM429 770q0 -8 -7.5 -14.5t-17.5 -6.5q-7 0 -18 5.5
t-23 12.5l-73 47l-70 -47q-12 -8 -22.5 -13t-18.5 -5q-10 0 -17.5 6.5t-7.5 14.5q0 6 3 11.5t9 12.5l69 76q11 13 22 18.5t27 5.5h14q16 0 27.5 -6t22.5 -18l69 -76q12 -13 12 -24z" />
    <glyph glyph-name="Scommaaccent" unicode="&#x218;" horiz-adv-x="582" 
d="M166 10.5q-56 20.5 -107 66.5q-21 18 -21 41q0 18 14 32.5t33 14.5q17 0 29 -11q40 -37 82.5 -54.5t96.5 -17.5q63 0 106.5 29t43.5 73q-1 52 -43.5 80.5t-129.5 47.5q-103 21 -158.5 69t-55.5 133q0 59 31 103.5t86 68.5t124 24q62 0 117 -20t89 -53q23 -20 23 -43
q0 -18 -13.5 -32t-32.5 -14q-14 0 -23 8q-26 26 -72 44t-88 18q-67 0 -106.5 -27.5t-39.5 -72.5q0 -49 39.5 -75t117.5 -44q78 -17 127.5 -40t76.5 -64t27 -107q0 -58 -32.5 -103t-88.5 -70t-123 -25q-73 0 -129 20.5zM338.5 -165q-27.5 -27 -64.5 -27q-20 0 -31 8t-11 19
q0 10 5.5 15.5t13.5 5.5q4 0 11.5 -2t14.5 -2q11 0 18.5 8t7.5 22q0 13 -10 13q-4 0 -10 -4.5t-15 -4.5q-15 0 -23.5 10t-8.5 25q0 21 16.5 32t44.5 11q30 0 49.5 -18.5t19.5 -50.5q0 -33 -27.5 -60z" />
    <glyph glyph-name="uni1E60" unicode="&#x1e60;" horiz-adv-x="582" 
d="M166 10.5q-56 20.5 -107 66.5q-21 18 -21 41q0 18 14 32.5t33 14.5q17 0 29 -11q40 -37 82.5 -54.5t96.5 -17.5q63 0 106.5 29t43.5 73q-1 52 -43.5 80.5t-129.5 47.5q-103 21 -158.5 69t-55.5 133q0 59 31 103.5t86 68.5t124 24q62 0 117 -20t89 -53q23 -20 23 -43
q0 -18 -13.5 -32t-32.5 -14q-14 0 -23 8q-26 26 -72 44t-88 18q-67 0 -106.5 -27.5t-39.5 -72.5q0 -49 39.5 -75t117.5 -44q78 -17 127.5 -40t76.5 -64t27 -107q0 -58 -32.5 -103t-88.5 -70t-123 -25q-73 0 -129 20.5zM250.5 763.5q-12.5 10.5 -12.5 34.5v16q0 24 13.5 34.5
t40.5 10.5q29 0 41.5 -10.5t12.5 -34.5v-16q0 -24 -13 -34.5t-42 -10.5q-28 0 -40.5 10.5z" />
    <glyph glyph-name="uni1E62" unicode="&#x1e62;" horiz-adv-x="582" 
d="M166 10.5q-56 20.5 -107 66.5q-21 18 -21 41q0 18 14 32.5t33 14.5q17 0 29 -11q40 -37 82.5 -54.5t96.5 -17.5q63 0 106.5 29t43.5 73q-1 52 -43.5 80.5t-129.5 47.5q-103 21 -158.5 69t-55.5 133q0 59 31 103.5t86 68.5t124 24q62 0 117 -20t89 -53q23 -20 23 -43
q0 -18 -13.5 -32t-32.5 -14q-14 0 -23 8q-26 26 -72 44t-88 18q-67 0 -106.5 -27.5t-39.5 -72.5q0 -49 39.5 -75t117.5 -44q78 -17 127.5 -40t76.5 -64t27 -107q0 -58 -32.5 -103t-88.5 -70t-123 -25q-73 0 -129 20.5zM250.5 -133q-12.5 11 -12.5 35v15q0 46 53 46
q30 0 42.5 -10.5t12.5 -35.5v-15q0 -25 -13 -35.5t-42 -10.5q-28 0 -40.5 11z" />
    <glyph glyph-name="uni1E68" unicode="&#x1e68;" horiz-adv-x="582" 
d="M166 10.5q-56 20.5 -107 66.5q-21 18 -21 41q0 18 14 32.5t33 14.5q17 0 29 -11q40 -37 82.5 -54.5t96.5 -17.5q63 0 106.5 29t43.5 73q-1 52 -43.5 80.5t-129.5 47.5q-103 21 -158.5 69t-55.5 133q0 59 31 103.5t86 68.5t124 24q62 0 117 -20t89 -53q23 -20 23 -43
q0 -18 -13.5 -32t-32.5 -14q-14 0 -23 8q-26 26 -72 44t-88 18q-67 0 -106.5 -27.5t-39.5 -72.5q0 -49 39.5 -75t117.5 -44q78 -17 127.5 -40t76.5 -64t27 -107q0 -58 -32.5 -103t-88.5 -70t-123 -25q-73 0 -129 20.5zM250.5 -133q-12.5 11 -12.5 35v15q0 46 53 46
q30 0 42.5 -10.5t12.5 -35.5v-15q0 -25 -13 -35.5t-42 -10.5q-28 0 -40.5 11zM250.5 763.5q-12.5 10.5 -12.5 34.5v16q0 24 13.5 34.5t40.5 10.5q29 0 41.5 -10.5t12.5 -34.5v-16q0 -24 -13 -34.5t-42 -10.5q-28 0 -40.5 10.5z" />
    <glyph glyph-name="uni1E9E" unicode="&#x1e9e;" horiz-adv-x="729" 
d="M607 342.5q32 -19.5 55.5 -58.5t23.5 -101q0 -52 -30 -96.5t-80 -70.5t-107 -26q-56 0 -109 22.5t-84 62.5q-13 20 -13 42q0 19 12.5 35t32.5 16q8 0 17.5 -3.5t15.5 -10.5q25 -30 59.5 -49.5t67.5 -19.5q53 0 84 23t31 63q0 29 -15 48.5t-37 32.5t-60 30q-7 4 -21 10
q-61 29 -96 66t-35 103q0 73 44 117t115 59q-31 7 -83 7q-96 0 -152 -54t-56 -147l-2 -394q0 -21 -14.5 -34.5t-37.5 -13.5q-22 0 -36 13.5t-14 34.5l2 372q0 84 34.5 153t103 110.5t165.5 41.5q60 0 110.5 -11.5t85.5 -29.5q25 -11 36.5 -25.5t11.5 -33.5q0 -18 -12 -25
t-38 -13q-9 -1 -22 -5q-68 -12 -102 -33.5t-34 -63.5q0 -36 26 -59.5t74 -43.5q51 -21 83 -40.5z" />
    <glyph glyph-name="uni018F" unicode="&#x18f;" horiz-adv-x="769" 
d="M554 661.5q79 -48.5 125.5 -131t46.5 -180.5t-46 -180.5t-124.5 -131t-171.5 -48.5q-85 0 -162 41t-125.5 115t-53.5 168v22q0 26 17 41t41 15h522q-12 107 -78.5 165t-162.5 58q-61 0 -111.5 -18.5t-93.5 -60.5q-16 -13 -33 -13t-31 12q-18 14 -18 36q0 21 16 34
q56 56 120.5 80.5t150.5 24.5q93 0 172 -48.5zM493 110.5q50 25.5 84 73.5t44 113h-476q10 -59 44.5 -107.5t85.5 -76.5t109 -28q59 0 109 25.5z" />
    <glyph glyph-name="T" unicode="T" horiz-adv-x="617" 
d="M571.5 687.5q13.5 -12.5 13.5 -33.5t-13.5 -33t-34.5 -12h-178v-561q0 -20 -14.5 -34t-36.5 -14t-36.5 14t-14.5 34v561h-177q-21 0 -34.5 12.5t-13.5 33.5q0 20 13.5 32.5t34.5 12.5h457q21 0 34.5 -12.5z" />
    <glyph glyph-name="Tbar" unicode="&#x166;" horiz-adv-x="617" 
d="M571.5 687.5q13.5 -12.5 13.5 -33.5t-13.5 -33t-34.5 -12h-178v-222h42q21 0 34.5 -12.5t13.5 -31.5t-13.5 -31.5t-34.5 -12.5h-42v-251q0 -20 -14.5 -34t-36.5 -14t-36.5 14t-14.5 34v251h-26q-21 0 -34.5 12.5t-13.5 32.5q0 19 13.5 31t34.5 12h26v222h-177
q-21 0 -34.5 12.5t-13.5 33.5q0 20 13.5 32.5t34.5 12.5h457q21 0 34.5 -12.5z" />
    <glyph glyph-name="Tcaron" unicode="&#x164;" horiz-adv-x="617" 
d="M571.5 687.5q13.5 -12.5 13.5 -33.5t-13.5 -33t-34.5 -12h-178v-561q0 -20 -14.5 -34t-36.5 -14t-36.5 14t-14.5 34v561h-177q-21 0 -34.5 12.5t-13.5 33.5q0 20 13.5 32.5t34.5 12.5h457q21 0 34.5 -12.5zM438.5 884.5q7.5 -6.5 7.5 -14.5q0 -6 -2.5 -11t-10.5 -13
l-68 -76q-11 -12 -22.5 -18t-27.5 -6h-14q-16 0 -27.5 6t-21.5 18l-69 76q-6 7 -9 12.5t-3 11.5q0 8 7 14.5t18 6.5q17 0 41 -17l72 -49l70 49q24 17 41 17q11 0 18.5 -6.5z" />
    <glyph glyph-name="uni0162" unicode="&#x162;" horiz-adv-x="617" 
d="M571.5 687.5q13.5 -12.5 13.5 -33.5t-13.5 -33t-34.5 -12h-178v-561q0 -13 -6.5 -24t-17.5 -17l-52 -128q-10 -27 -34 -27q-16 0 -36 12t-20 28q0 14 10 25l72 94q-8 6 -13 16t-5 21v561h-177q-21 0 -34.5 12.5t-13.5 33.5q0 20 13.5 32.5t34.5 12.5h457q21 0 34.5 -12.5
z" />
    <glyph glyph-name="uni021A" unicode="&#x21a;" horiz-adv-x="617" 
d="M571.5 687.5q13.5 -12.5 13.5 -33.5t-13.5 -33t-34.5 -12h-178v-561q0 -20 -14.5 -34t-36.5 -14t-36.5 14t-14.5 34v561h-177q-21 0 -34.5 12.5t-13.5 33.5q0 20 13.5 32.5t34.5 12.5h457q21 0 34.5 -12.5zM354.5 -165q-27.5 -27 -64.5 -27q-20 0 -31 8t-11 19
q0 10 5.5 15.5t13.5 5.5q4 0 11.5 -2t14.5 -2q11 0 18.5 8t7.5 22q0 13 -10 13q-4 0 -10 -4.5t-15 -4.5q-15 0 -23.5 10t-8.5 25q0 21 16.5 32t44.5 11q30 0 49.5 -18.5t19.5 -50.5q0 -33 -27.5 -60z" />
    <glyph glyph-name="uni1E6C" unicode="&#x1e6c;" horiz-adv-x="617" 
d="M571.5 687.5q13.5 -12.5 13.5 -33.5t-13.5 -33t-34.5 -12h-178v-561q0 -20 -14.5 -34t-36.5 -14t-36.5 14t-14.5 34v561h-177q-21 0 -34.5 12.5t-13.5 33.5q0 20 13.5 32.5t34.5 12.5h457q21 0 34.5 -12.5zM266.5 -133q-12.5 11 -12.5 35v15q0 46 53 46q30 0 42.5 -10.5
t12.5 -35.5v-15q0 -25 -13 -35.5t-42 -10.5q-28 0 -40.5 11z" />
    <glyph glyph-name="uni1E6E" unicode="&#x1e6e;" horiz-adv-x="617" 
d="M571.5 687.5q13.5 -12.5 13.5 -33.5t-13.5 -33t-34.5 -12h-178v-561q0 -20 -14.5 -34t-36.5 -14t-36.5 14t-14.5 34v561h-177q-21 0 -34.5 12.5t-13.5 33.5q0 20 13.5 32.5t34.5 12.5h457q21 0 34.5 -12.5zM171.5 -131.5q-10.5 9.5 -10.5 26.5t11 27t30 10h229
q19 0 29.5 -10t10.5 -27t-10.5 -26.5t-29.5 -9.5h-229q-20 0 -30.5 9.5z" />
    <glyph glyph-name="U" unicode="U" horiz-adv-x="708" 
d="M612.5 687.5q12.5 -13.5 12.5 -34.5v-384q0 -79 -35 -142t-96.5 -98.5t-138.5 -35.5q-78 0 -140 35.5t-97 98.5t-35 142v384q0 21 14 34.5t36 13.5q19 0 33.5 -14t14.5 -34v-384q0 -52 24 -93.5t64 -64.5t86 -23q48 0 89 23t65.5 64.5t24.5 93.5v384q0 21 12 34.5
t33 13.5t33.5 -13.5z" />
    <glyph glyph-name="Uacute" unicode="&#xda;" horiz-adv-x="708" 
d="M612.5 687.5q12.5 -13.5 12.5 -34.5v-384q0 -79 -35 -142t-96.5 -98.5t-138.5 -35.5q-78 0 -140 35.5t-97 98.5t-35 142v384q0 21 14 34.5t36 13.5q19 0 33.5 -14t14.5 -34v-384q0 -52 24 -93.5t64 -64.5t86 -23q48 0 89 23t65.5 64.5t24.5 93.5v384q0 21 12 34.5
t33 13.5t33.5 -13.5zM332.5 748.5q-8.5 7.5 -8.5 20.5t12 23l88 74q21 17 40 17q17 0 30.5 -12t13.5 -29q0 -13 -8 -25t-22 -19l-99 -51q-12 -6 -23 -6q-15 0 -23.5 7.5z" />
    <glyph glyph-name="Ubreve" unicode="&#x16c;" horiz-adv-x="708" 
d="M612.5 687.5q12.5 -13.5 12.5 -34.5v-384q0 -79 -35 -142t-96.5 -98.5t-138.5 -35.5q-78 0 -140 35.5t-97 98.5t-35 142v384q0 21 14 34.5t36 13.5q19 0 33.5 -14t14.5 -34v-384q0 -52 24 -93.5t64 -64.5t86 -23q48 0 89 23t65.5 64.5t24.5 93.5v384q0 21 12 34.5
t33 13.5t33.5 -13.5zM261.5 790q-39.5 25 -55.5 71q-4 9 -4 18q0 13 7.5 20t20.5 7q16 0 25 -7t23 -24q25 -40 77 -40q54 0 77 40q10 16 20.5 23t26.5 7q14 0 21.5 -6.5t7.5 -19.5q0 -8 -3 -17q-16 -46 -55.5 -71.5t-94.5 -25.5q-54 0 -93.5 25z" />
    <glyph glyph-name="uni01D3" unicode="&#x1d3;" horiz-adv-x="708" 
d="M612.5 687.5q12.5 -13.5 12.5 -34.5v-384q0 -79 -35 -142t-96.5 -98.5t-138.5 -35.5q-78 0 -140 35.5t-97 98.5t-35 142v384q0 21 14 34.5t36 13.5q19 0 33.5 -14t14.5 -34v-384q0 -52 24 -93.5t64 -64.5t86 -23q48 0 89 23t65.5 64.5t24.5 93.5v384q0 21 12 34.5
t33 13.5t33.5 -13.5zM485.5 884.5q7.5 -6.5 7.5 -14.5q0 -6 -2.5 -11t-10.5 -13l-68 -76q-11 -12 -22.5 -18t-27.5 -6h-14q-16 0 -27.5 6t-21.5 18l-69 76q-6 7 -9 12.5t-3 11.5q0 8 7 14.5t18 6.5q17 0 41 -17l72 -49l70 49q24 17 41 17q11 0 18.5 -6.5z" />
    <glyph glyph-name="Ucircumflex" unicode="&#xdb;" horiz-adv-x="708" 
d="M612.5 687.5q12.5 -13.5 12.5 -34.5v-384q0 -79 -35 -142t-96.5 -98.5t-138.5 -35.5q-78 0 -140 35.5t-97 98.5t-35 142v384q0 21 14 34.5t36 13.5q19 0 33.5 -14t14.5 -34v-384q0 -52 24 -93.5t64 -64.5t86 -23q48 0 89 23t65.5 64.5t24.5 93.5v384q0 21 12 34.5
t33 13.5t33.5 -13.5zM492 770q0 -8 -7.5 -14.5t-17.5 -6.5q-7 0 -18 5.5t-23 12.5l-73 47l-70 -47q-12 -8 -22.5 -13t-18.5 -5q-10 0 -17.5 6.5t-7.5 14.5q0 6 3 11.5t9 12.5l69 76q11 13 22 18.5t27 5.5h14q16 0 27.5 -6t22.5 -18l69 -76q12 -13 12 -24z" />
    <glyph glyph-name="uni0214" unicode="&#x214;" horiz-adv-x="708" 
d="M612.5 687.5q12.5 -13.5 12.5 -34.5v-384q0 -79 -35 -142t-96.5 -98.5t-138.5 -35.5q-78 0 -140 35.5t-97 98.5t-35 142v384q0 21 14 34.5t36 13.5q19 0 33.5 -14t14.5 -34v-384q0 -52 24 -93.5t64 -64.5t86 -23q48 0 89 23t65.5 64.5t24.5 93.5v384q0 21 12 34.5
t33 13.5t33.5 -13.5zM444 765l-99 51q-30 17 -30 44q0 18 13.5 29.5t30.5 11.5q19 0 40 -17l87 -73q13 -12 13 -24t-9 -20t-24 -8q-8 0 -22 6zM254 760l-99 51q-30 15 -30 44q0 17 13.5 29t29.5 12q21 0 41 -18l87 -73q13 -10 13 -23t-9 -21t-24 -8q-10 0 -22 7z" />
    <glyph glyph-name="Udieresis" unicode="&#xdc;" horiz-adv-x="708" 
d="M612.5 687.5q12.5 -13.5 12.5 -34.5v-384q0 -79 -35 -142t-96.5 -98.5t-138.5 -35.5q-78 0 -140 35.5t-97 98.5t-35 142v384q0 21 14 34.5t36 13.5q19 0 33.5 -14t14.5 -34v-384q0 -52 24 -93.5t64 -64.5t86 -23q48 0 89 23t65.5 64.5t24.5 93.5v384q0 21 12 34.5
t33 13.5t33.5 -13.5zM221 777q-13 11 -13 35v15q0 45 53 45q27 0 40 -10.5t13 -34.5v-15q0 -24 -13 -35t-41 -11q-26 0 -39 11zM409 777q-13 11 -13 35v15q0 24 13 34.5t39 10.5q28 0 41 -10.5t13 -34.5v-15q0 -24 -13 -35t-41 -11q-26 0 -39 11z" />
    <glyph glyph-name="uni1EE4" unicode="&#x1ee4;" horiz-adv-x="708" 
d="M612.5 687.5q12.5 -13.5 12.5 -34.5v-384q0 -79 -35 -142t-96.5 -98.5t-138.5 -35.5q-78 0 -140 35.5t-97 98.5t-35 142v384q0 21 14 34.5t36 13.5q19 0 33.5 -14t14.5 -34v-384q0 -52 24 -93.5t64 -64.5t86 -23q48 0 89 23t65.5 64.5t24.5 93.5v384q0 21 12 34.5
t33 13.5t33.5 -13.5zM313.5 -133q-12.5 11 -12.5 35v15q0 46 53 46q30 0 42.5 -10.5t12.5 -35.5v-15q0 -25 -13 -35.5t-42 -10.5q-28 0 -40.5 11z" />
    <glyph glyph-name="Ugrave" unicode="&#xd9;" horiz-adv-x="708" 
d="M612.5 687.5q12.5 -13.5 12.5 -34.5v-384q0 -79 -35 -142t-96.5 -98.5t-138.5 -35.5q-78 0 -140 35.5t-97 98.5t-35 142v384q0 21 14 34.5t36 13.5q19 0 33.5 -14t14.5 -34v-384q0 -52 24 -93.5t64 -64.5t86 -23q48 0 89 23t65.5 64.5t24.5 93.5v384q0 21 12 34.5
t33 13.5t33.5 -13.5zM331 750l-99 51q-14 8 -22 19.5t-8 24.5q0 17 13.5 29t30.5 12q19 0 41 -18l87 -73q12 -10 12 -23t-8.5 -21t-23.5 -8q-9 0 -23 7z" />
    <glyph glyph-name="uni1EE6" unicode="&#x1ee6;" horiz-adv-x="708" 
d="M612.5 687.5q12.5 -13.5 12.5 -34.5v-384q0 -79 -35 -142t-96.5 -98.5t-138.5 -35.5q-78 0 -140 35.5t-97 98.5t-35 142v384q0 21 14 34.5t36 13.5q19 0 33.5 -14t14.5 -34v-384q0 -52 24 -93.5t64 -64.5t86 -23q48 0 89 23t65.5 64.5t24.5 93.5v384q0 21 12 34.5
t33 13.5t33.5 -13.5zM344 948q51 0 72.5 -25t21.5 -57q0 -16 -6 -29t-19 -28q-19 -21 -20 -33q0 -10 -9 -15t-23 -5q-10 0 -17.5 5.5t-7.5 15.5q0 20 16 39q13 15 19 25t6 19q0 12 -10 20t-25 8q-18 0 -43 -17q-9 -7 -17 -7q-11 0 -21 11q-7 7 -7 17q0 13 13 26q35 30 77 30
z" />
    <glyph glyph-name="Uhorn" unicode="&#x1af;" horiz-adv-x="708" 
d="M711 675.5q-29 -38.5 -86 -50.5v-356q0 -79 -35 -142t-96.5 -98.5t-138.5 -35.5q-78 0 -140 35.5t-97 98.5t-35 142v384q0 21 14 34.5t36 13.5q19 0 33.5 -14t14.5 -34v-384q0 -52 24 -93.5t64 -64.5t86 -23q48 0 89 23t65.5 64.5t24.5 93.5v384q0 21 12 34.5t33 13.5h7
q74 5 74 67q0 18 10.5 32t29.5 14q21 0 30.5 -14t9.5 -32q0 -54 -29 -92.5z" />
    <glyph glyph-name="uni1EE8" unicode="&#x1ee8;" horiz-adv-x="708" 
d="M711 675.5q-29 -38.5 -86 -50.5v-356q0 -79 -35 -142t-96.5 -98.5t-138.5 -35.5q-78 0 -140 35.5t-97 98.5t-35 142v384q0 21 14 34.5t36 13.5q19 0 33.5 -14t14.5 -34v-384q0 -52 24 -93.5t64 -64.5t86 -23q48 0 89 23t65.5 64.5t24.5 93.5v384q0 21 12 34.5t33 13.5h7
q74 5 74 67q0 18 10.5 32t29.5 14q21 0 30.5 -14t9.5 -32q0 -54 -29 -92.5zM337.5 748.5q-8.5 7.5 -8.5 20.5t12 23l88 74q21 17 40 17q17 0 30.5 -12t13.5 -29q0 -13 -8 -25t-22 -19l-99 -51q-12 -6 -23 -6q-15 0 -23.5 7.5z" />
    <glyph glyph-name="uni1EF0" unicode="&#x1ef0;" horiz-adv-x="708" 
d="M711 675.5q-29 -38.5 -86 -50.5v-356q0 -79 -35 -142t-96.5 -98.5t-138.5 -35.5q-78 0 -140 35.5t-97 98.5t-35 142v384q0 21 14 34.5t36 13.5q19 0 33.5 -14t14.5 -34v-384q0 -52 24 -93.5t64 -64.5t86 -23q48 0 89 23t65.5 64.5t24.5 93.5v384q0 21 12 34.5t33 13.5h7
q74 5 74 67q0 18 10.5 32t29.5 14q21 0 30.5 -14t9.5 -32q0 -54 -29 -92.5zM317.5 -133q-12.5 11 -12.5 35v15q0 46 53 46q30 0 42.5 -10.5t12.5 -35.5v-15q0 -25 -13 -35.5t-42 -10.5q-28 0 -40.5 11z" />
    <glyph glyph-name="uni1EEA" unicode="&#x1eea;" horiz-adv-x="708" 
d="M711 675.5q-29 -38.5 -86 -50.5v-356q0 -79 -35 -142t-96.5 -98.5t-138.5 -35.5q-78 0 -140 35.5t-97 98.5t-35 142v384q0 21 14 34.5t36 13.5q19 0 33.5 -14t14.5 -34v-384q0 -52 24 -93.5t64 -64.5t86 -23q48 0 89 23t65.5 64.5t24.5 93.5v384q0 21 12 34.5t33 13.5h7
q74 5 74 67q0 18 10.5 32t29.5 14q21 0 30.5 -14t9.5 -32q0 -54 -29 -92.5zM336 750l-99 51q-14 8 -22 19.5t-8 24.5q0 17 13.5 29t30.5 12q19 0 41 -18l87 -73q12 -10 12 -23t-8.5 -21t-23.5 -8q-9 0 -23 7z" />
    <glyph glyph-name="uni1EEC" unicode="&#x1eec;" horiz-adv-x="708" 
d="M711 675.5q-29 -38.5 -86 -50.5v-356q0 -79 -35 -142t-96.5 -98.5t-138.5 -35.5q-78 0 -140 35.5t-97 98.5t-35 142v384q0 21 14 34.5t36 13.5q19 0 33.5 -14t14.5 -34v-384q0 -52 24 -93.5t64 -64.5t86 -23q48 0 89 23t65.5 64.5t24.5 93.5v384q0 21 12 34.5t33 13.5h7
q74 5 74 67q0 18 10.5 32t29.5 14q21 0 30.5 -14t9.5 -32q0 -54 -29 -92.5zM349 948q51 0 72.5 -25t21.5 -57q0 -16 -6 -29t-19 -28q-19 -21 -20 -33q0 -10 -9 -15t-23 -5q-10 0 -17.5 5.5t-7.5 15.5q0 20 16 39q13 15 19 25t6 19q0 12 -10 20t-25 8q-18 0 -43 -17
q-9 -7 -17 -7q-11 0 -21 11q-7 7 -7 17q0 13 13 26q35 30 77 30z" />
    <glyph glyph-name="uni1EEE" unicode="&#x1eee;" horiz-adv-x="708" 
d="M711 675.5q-29 -38.5 -86 -50.5v-356q0 -79 -35 -142t-96.5 -98.5t-138.5 -35.5q-78 0 -140 35.5t-97 98.5t-35 142v384q0 21 14 34.5t36 13.5q19 0 33.5 -14t14.5 -34v-384q0 -52 24 -93.5t64 -64.5t86 -23q48 0 89 23t65.5 64.5t24.5 93.5v384q0 21 12 34.5t33 13.5h7
q74 5 74 67q0 18 10.5 32t29.5 14q21 0 30.5 -14t9.5 -32q0 -54 -29 -92.5zM197.5 764.5q-11.5 14.5 -11.5 39.5q0 36 27.5 61t73.5 25q22 0 44 -9.5t50 -26.5q23 -14 34.5 -19.5t21.5 -5.5q12 0 19.5 8t6.5 21q-1 4 -1 10q0 13 8.5 21t21.5 8q19 0 30.5 -15t11.5 -38
q0 -33 -24 -60t-65 -27q-24 0 -47.5 10t-54.5 27q-17 9 -32.5 16t-25.5 7q-12 0 -20 -7.5t-8 -21.5q1 -3 1 -8q0 -14 -9 -22t-22 -8q-18 0 -29.5 14.5z" />
    <glyph glyph-name="Uhungarumlaut" unicode="&#x170;" horiz-adv-x="708" 
d="M612.5 687.5q12.5 -13.5 12.5 -34.5v-384q0 -79 -35 -142t-96.5 -98.5t-138.5 -35.5q-78 0 -140 35.5t-97 98.5t-35 142v384q0 21 14 34.5t36 13.5q19 0 33.5 -14t14.5 -34v-384q0 -52 24 -93.5t64 -64.5t86 -23q48 0 89 23t65.5 64.5t24.5 93.5v384q0 21 12 34.5
t33 13.5t33.5 -13.5zM237 787q0 12 10 28l47 73q16 26 42 26q19 0 32.5 -11.5t13.5 -29.5q0 -15 -14 -29l-58 -56q-12 -12 -23.5 -17t-26.5 -5q-23 0 -23 21zM414 771.5q-6 5.5 -6 14.5q0 12 11 29l48 74q7 11 16.5 17t24.5 6q17 0 31.5 -9.5t14.5 -27.5q0 -17 -14 -31
l-58 -56q-22 -22 -51 -22q-11 0 -17 5.5z" />
    <glyph glyph-name="uni0216" unicode="&#x216;" horiz-adv-x="708" 
d="M612.5 687.5q12.5 -13.5 12.5 -34.5v-384q0 -79 -35 -142t-96.5 -98.5t-138.5 -35.5q-78 0 -140 35.5t-97 98.5t-35 142v384q0 21 14 34.5t36 13.5q19 0 33.5 -14t14.5 -34v-384q0 -52 24 -93.5t64 -64.5t86 -23q48 0 89 23t65.5 64.5t24.5 93.5v384q0 21 12 34.5
t33 13.5t33.5 -13.5zM448 876q40 -26 52 -69q3 -9 3 -16q0 -13 -8 -20.5t-21 -7.5q-16 0 -26 7.5t-21 23.5q-20 37 -73 37q-26 0 -45 -9.5t-28 -27.5q-11 -16 -21 -23.5t-27 -7.5q-13 0 -21 7.5t-8 19.5q0 8 3 15q13 44 53 70.5t94 26.5t94 -26z" />
    <glyph glyph-name="Umacron" unicode="&#x16a;" horiz-adv-x="708" 
d="M612.5 687.5q12.5 -13.5 12.5 -34.5v-384q0 -79 -35 -142t-96.5 -98.5t-138.5 -35.5q-78 0 -140 35.5t-97 98.5t-35 142v384q0 21 14 34.5t36 13.5q19 0 33.5 -14t14.5 -34v-384q0 -52 24 -93.5t64 -64.5t86 -23q48 0 89 23t65.5 64.5t24.5 93.5v384q0 21 12 34.5
t33 13.5t33.5 -13.5zM202.5 774.5q-10.5 9.5 -10.5 27.5q0 36 41 36h248q41 0 41 -36q0 -18 -10.5 -27.5t-30.5 -9.5h-248q-20 0 -30.5 9.5z" />
    <glyph glyph-name="uni1E7A" unicode="&#x1e7a;" horiz-adv-x="708" 
d="M612.5 687.5q12.5 -13.5 12.5 -34.5v-384q0 -79 -35 -142t-96.5 -98.5t-138.5 -35.5q-78 0 -140 35.5t-97 98.5t-35 142v384q0 21 14 34.5t36 13.5q19 0 33.5 -14t14.5 -34v-384q0 -52 24 -93.5t64 -64.5t86 -23q48 0 89 23t65.5 64.5t24.5 93.5v384q0 21 12 34.5
t33 13.5t33.5 -13.5zM202.5 774.5q-10.5 9.5 -10.5 27.5q0 36 41 36h248q41 0 41 -36q0 -18 -10.5 -27.5t-30.5 -9.5h-248q-20 0 -30.5 9.5zM221 939q-13 11 -13 35v15q0 45 53 45q27 0 40 -10.5t13 -34.5v-15q0 -24 -13 -35t-41 -11q-26 0 -39 11zM409 939q-13 11 -13 35
v15q0 24 13 34.5t39 10.5q28 0 41 -10.5t13 -34.5v-15q0 -24 -13 -35t-41 -11q-26 0 -39 11z" />
    <glyph glyph-name="Uogonek" unicode="&#x172;" horiz-adv-x="708" 
d="M612.5 687.5q12.5 -13.5 12.5 -34.5v-384q0 -69 -30 -133.5t-88 -98.5q-100 -63 -100 -117q0 -21 11.5 -33t27.5 -12q15 0 24 12q12 17 35 17q15 0 25 -10t10 -27q0 -15 -14.5 -31t-38.5 -26t-50 -10q-47 0 -78.5 26.5t-31.5 75.5t32 91h-4q-78 0 -140 35.5t-97 98.5
t-35 142v384q0 21 14 34.5t36 13.5t35 -13.5t13 -34.5v-384q0 -52 24 -93.5t64 -64.5t86 -23q48 0 89 23t65.5 64.5t24.5 93.5v384q0 20 13.5 34t31.5 14q21 0 33.5 -13.5z" />
    <glyph glyph-name="Uring" unicode="&#x16e;" horiz-adv-x="708" 
d="M612.5 687.5q12.5 -13.5 12.5 -34.5v-384q0 -79 -35 -142t-96.5 -98.5t-138.5 -35.5q-78 0 -140 35.5t-97 98.5t-35 142v384q0 21 14 34.5t36 13.5q19 0 33.5 -14t14.5 -34v-384q0 -52 24 -93.5t64 -64.5t86 -23q48 0 89 23t65.5 64.5t24.5 93.5v384q0 21 12 34.5
t33 13.5t33.5 -13.5zM279 778q-33 31 -33 73q0 44 33 75t76 31q44 0 76.5 -31t32.5 -75q0 -42 -32.5 -73t-76.5 -31q-43 0 -76 31zM390.5 818.5q14.5 13.5 14.5 32.5q0 22 -15 35t-35 13q-21 0 -35.5 -13.5t-14.5 -34.5q0 -19 14.5 -32.5t35.5 -13.5t35.5 13.5z" />
    <glyph glyph-name="Utilde" unicode="&#x168;" horiz-adv-x="708" 
d="M612.5 687.5q12.5 -13.5 12.5 -34.5v-384q0 -79 -35 -142t-96.5 -98.5t-138.5 -35.5q-78 0 -140 35.5t-97 98.5t-35 142v384q0 21 14 34.5t36 13.5q19 0 33.5 -14t14.5 -34v-384q0 -52 24 -93.5t64 -64.5t86 -23q48 0 89 23t65.5 64.5t24.5 93.5v384q0 21 12 34.5
t33 13.5t33.5 -13.5zM192.5 764.5q-11.5 14.5 -11.5 39.5q0 36 27.5 61t73.5 25q22 0 44 -9.5t50 -26.5q23 -14 34.5 -19.5t21.5 -5.5q12 0 19.5 8t6.5 21q-1 4 -1 10q0 13 8.5 21t21.5 8q19 0 30.5 -15t11.5 -38q0 -33 -24 -60t-65 -27q-24 0 -47.5 10t-54.5 27
q-17 9 -32.5 16t-25.5 7q-12 0 -20 -7.5t-8 -21.5q1 -3 1 -8q0 -14 -9 -22t-22 -8q-18 0 -29.5 14.5z" />
    <glyph glyph-name="uni1E78" unicode="&#x1e78;" horiz-adv-x="708" 
d="M612.5 687.5q12.5 -13.5 12.5 -34.5v-384q0 -79 -35 -142t-96.5 -98.5t-138.5 -35.5q-78 0 -140 35.5t-97 98.5t-35 142v384q0 21 14 34.5t36 13.5q19 0 33.5 -14t14.5 -34v-384q0 -52 24 -93.5t64 -64.5t86 -23q48 0 89 23t65.5 64.5t24.5 93.5v384q0 21 12 34.5
t33 13.5t33.5 -13.5zM192.5 764.5q-11.5 14.5 -11.5 39.5q0 36 27.5 61t73.5 25q22 0 44 -9.5t50 -26.5q23 -14 34.5 -19.5t21.5 -5.5q12 0 19.5 8t6.5 21q-1 4 -1 10q0 13 8.5 21t21.5 8q19 0 30.5 -15t11.5 -38q0 -33 -24 -60t-65 -27q-24 0 -47.5 10t-54.5 27
q-17 9 -32.5 16t-25.5 7q-12 0 -20 -7.5t-8 -21.5q1 -3 1 -8q0 -14 -9 -22t-22 -8q-18 0 -29.5 14.5zM332.5 955.5q-8.5 7.5 -8.5 20.5t12 23l88 74q21 17 40 17q17 0 30.5 -12t13.5 -29q0 -13 -8 -25t-22 -19l-99 -51q-12 -6 -23 -6q-15 0 -23.5 7.5z" />
    <glyph glyph-name="V" unicode="V" horiz-adv-x="672" 
d="M626.5 688q14.5 -13 14.5 -32q0 -10 -5 -22l-255 -603q-7 -15 -20 -23t-27 -8q-13 1 -24.5 8.5t-18.5 21.5l-255 604q-4 8 -4 21q0 21 15 34t33 13q30 0 44 -32l218 -515l206 516q7 14 18.5 22t25.5 8q20 0 34.5 -13z" />
    <glyph glyph-name="W" unicode="W" horiz-adv-x="953" 
d="M915 689q16 -14 16 -37q0 -8 -3 -17l-207 -605q-4 -14 -16.5 -21.5t-26.5 -8.5q-14 0 -27 8t-19 23l-156 365l-155 -365q-6 -15 -19 -23t-28 -8q-14 1 -26 9t-16 21l-207 605q-3 9 -3 17q0 22 16.5 36.5t35.5 14.5q16 0 29 -8.5t17 -22.5l169 -501l145 356q6 14 18 22
t27 8t27 -8t18 -22l141 -356l168 501q4 15 17 23t30 8q19 0 35 -14z" />
    <glyph glyph-name="Wacute" unicode="&#x1e82;" horiz-adv-x="953" 
d="M915 689q16 -14 16 -37q0 -8 -3 -17l-207 -605q-4 -14 -16.5 -21.5t-26.5 -8.5q-14 0 -27 8t-19 23l-156 365l-155 -365q-6 -15 -19 -23t-28 -8q-14 1 -26 9t-16 21l-207 605q-3 9 -3 17q0 22 16.5 36.5t35.5 14.5q16 0 29 -8.5t17 -22.5l169 -501l145 356q6 14 18 22
t27 8t27 -8t18 -22l141 -356l168 501q4 15 17 23t30 8q19 0 35 -14zM454.5 748.5q-8.5 7.5 -8.5 20.5t12 23l88 74q21 17 40 17q17 0 30.5 -12t13.5 -29q0 -13 -8 -25t-22 -19l-99 -51q-12 -6 -23 -6q-15 0 -23.5 7.5z" />
    <glyph glyph-name="Wcircumflex" unicode="&#x174;" horiz-adv-x="953" 
d="M915 689q16 -14 16 -37q0 -8 -3 -17l-207 -605q-4 -14 -16.5 -21.5t-26.5 -8.5q-14 0 -27 8t-19 23l-156 365l-155 -365q-6 -15 -19 -23t-28 -8q-14 1 -26 9t-16 21l-207 605q-3 9 -3 17q0 22 16.5 36.5t35.5 14.5q16 0 29 -8.5t17 -22.5l169 -501l145 356q6 14 18 22
t27 8t27 -8t18 -22l141 -356l168 501q4 15 17 23t30 8q19 0 35 -14zM614 770q0 -8 -7.5 -14.5t-17.5 -6.5q-7 0 -18 5.5t-23 12.5l-73 47l-70 -47q-12 -8 -22.5 -13t-18.5 -5q-10 0 -17.5 6.5t-7.5 14.5q0 6 3 11.5t9 12.5l69 76q11 13 22 18.5t27 5.5h14q16 0 27.5 -6
t22.5 -18l69 -76q12 -13 12 -24z" />
    <glyph glyph-name="Wdieresis" unicode="&#x1e84;" horiz-adv-x="953" 
d="M915 689q16 -14 16 -37q0 -8 -3 -17l-207 -605q-4 -14 -16.5 -21.5t-26.5 -8.5q-14 0 -27 8t-19 23l-156 365l-155 -365q-6 -15 -19 -23t-28 -8q-14 1 -26 9t-16 21l-207 605q-3 9 -3 17q0 22 16.5 36.5t35.5 14.5q16 0 29 -8.5t17 -22.5l169 -501l145 356q6 14 18 22
t27 8t27 -8t18 -22l141 -356l168 501q4 15 17 23t30 8q19 0 35 -14zM343 777q-13 11 -13 35v15q0 45 53 45q27 0 40 -10.5t13 -34.5v-15q0 -24 -13 -35t-41 -11q-26 0 -39 11zM531 777q-13 11 -13 35v15q0 24 13 34.5t39 10.5q28 0 41 -10.5t13 -34.5v-15q0 -24 -13 -35
t-41 -11q-26 0 -39 11z" />
    <glyph glyph-name="Wgrave" unicode="&#x1e80;" horiz-adv-x="953" 
d="M915 689q16 -14 16 -37q0 -8 -3 -17l-207 -605q-4 -14 -16.5 -21.5t-26.5 -8.5q-14 0 -27 8t-19 23l-156 365l-155 -365q-6 -15 -19 -23t-28 -8q-14 1 -26 9t-16 21l-207 605q-3 9 -3 17q0 22 16.5 36.5t35.5 14.5q16 0 29 -8.5t17 -22.5l169 -501l145 356q6 14 18 22
t27 8t27 -8t18 -22l141 -356l168 501q4 15 17 23t30 8q19 0 35 -14zM453 750l-99 51q-14 8 -22 19.5t-8 24.5q0 17 13.5 29t30.5 12q19 0 41 -18l87 -73q12 -10 12 -23t-8.5 -21t-23.5 -8q-9 0 -23 7z" />
    <glyph glyph-name="X" unicode="X" horiz-adv-x="634" 
d="M584 72q9 -12 9 -29q0 -21 -14.5 -34t-32.5 -13q-25 0 -39 20l-194 260l-190 -259q-15 -21 -39 -21q-18 0 -30.5 12.5t-12.5 28.5q0 17 12 33l205 279l-206 277q-10 13 -10 29q0 20 14.5 34t33.5 14q11 0 21.5 -5t17.5 -15l192 -258l190 255q17 22 38 22q18 0 31.5 -13.5
t13.5 -30.5q0 -15 -10 -29l-208 -278z" />
    <glyph glyph-name="Y" unicode="Y" horiz-adv-x="581" 
d="M555 625l-215 -303v-274q0 -20 -13.5 -34t-32.5 -14q-20 0 -34 14t-14 34v282l-214 289q-14 18 -14 36q0 20 16 34t35 14q23 0 39 -22l188 -260l181 259q16 23 40 23q19 0 33 -14t14 -34q0 -15 -9 -30z" />
    <glyph glyph-name="Yacute" unicode="&#xdd;" horiz-adv-x="581" 
d="M555 625l-215 -303v-274q0 -20 -13.5 -34t-32.5 -14q-20 0 -34 14t-14 34v282l-214 289q-14 18 -14 36q0 20 16 34t35 14q23 0 39 -22l188 -260l181 259q16 23 40 23q19 0 33 -14t14 -34q0 -15 -9 -30zM268.5 748.5q-8.5 7.5 -8.5 20.5t12 23l88 74q21 17 40 17
q17 0 30.5 -12t13.5 -29q0 -13 -8 -25t-22 -19l-99 -51q-12 -6 -23 -6q-15 0 -23.5 7.5z" />
    <glyph glyph-name="Ycircumflex" unicode="&#x176;" horiz-adv-x="581" 
d="M555 625l-215 -303v-274q0 -20 -13.5 -34t-32.5 -14q-20 0 -34 14t-14 34v282l-214 289q-14 18 -14 36q0 20 16 34t35 14q23 0 39 -22l188 -260l181 259q16 23 40 23q19 0 33 -14t14 -34q0 -15 -9 -30zM428 770q0 -8 -7.5 -14.5t-17.5 -6.5q-7 0 -18 5.5t-23 12.5l-73 47
l-70 -47q-12 -8 -22.5 -13t-18.5 -5q-10 0 -17.5 6.5t-7.5 14.5q0 6 3 11.5t9 12.5l69 76q11 13 22 18.5t27 5.5h14q16 0 27.5 -6t22.5 -18l69 -76q12 -13 12 -24z" />
    <glyph glyph-name="Ydieresis" unicode="&#x178;" horiz-adv-x="581" 
d="M555 625l-215 -303v-274q0 -20 -13.5 -34t-32.5 -14q-20 0 -34 14t-14 34v282l-214 289q-14 18 -14 36q0 20 16 34t35 14q23 0 39 -22l188 -260l181 259q16 23 40 23q19 0 33 -14t14 -34q0 -15 -9 -30zM157 777q-13 11 -13 35v15q0 45 53 45q27 0 40 -10.5t13 -34.5v-15
q0 -24 -13 -35t-41 -11q-26 0 -39 11zM345 777q-13 11 -13 35v15q0 24 13 34.5t39 10.5q28 0 41 -10.5t13 -34.5v-15q0 -24 -13 -35t-41 -11q-26 0 -39 11z" />
    <glyph glyph-name="uni1E8E" unicode="&#x1e8e;" horiz-adv-x="581" 
d="M555 625l-215 -303v-274q0 -20 -13.5 -34t-32.5 -14q-20 0 -34 14t-14 34v282l-214 289q-14 18 -14 36q0 20 16 34t35 14q23 0 39 -22l188 -260l181 259q16 23 40 23q19 0 33 -14t14 -34q0 -15 -9 -30zM249.5 763.5q-12.5 10.5 -12.5 34.5v16q0 24 13.5 34.5t40.5 10.5
q29 0 41.5 -10.5t12.5 -34.5v-16q0 -24 -13 -34.5t-42 -10.5q-28 0 -40.5 10.5z" />
    <glyph glyph-name="uni1EF4" unicode="&#x1ef4;" horiz-adv-x="581" 
d="M555 625l-215 -303v-274q0 -20 -13.5 -34t-32.5 -14q-20 0 -34 14t-14 34v282l-214 289q-14 18 -14 36q0 20 16 34t35 14q23 0 39 -22l188 -260l181 259q16 23 40 23q19 0 33 -14t14 -34q0 -15 -9 -30zM252.5 -134q-12.5 11 -12.5 35v15q0 46 53 46q30 0 42.5 -10.5
t12.5 -35.5v-15q0 -25 -13 -35.5t-42 -10.5q-28 0 -40.5 11z" />
    <glyph glyph-name="Ygrave" unicode="&#x1ef2;" horiz-adv-x="581" 
d="M555 625l-215 -303v-274q0 -20 -13.5 -34t-32.5 -14q-20 0 -34 14t-14 34v282l-214 289q-14 18 -14 36q0 20 16 34t35 14q23 0 39 -22l188 -260l181 259q16 23 40 23q19 0 33 -14t14 -34q0 -15 -9 -30zM267 750l-99 51q-14 8 -22 19.5t-8 24.5q0 17 13.5 29t30.5 12
q19 0 41 -18l87 -73q12 -10 12 -23t-8.5 -21t-23.5 -8q-9 0 -23 7z" />
    <glyph glyph-name="uni1EF6" unicode="&#x1ef6;" horiz-adv-x="581" 
d="M555 625l-215 -303v-274q0 -20 -13.5 -34t-32.5 -14q-20 0 -34 14t-14 34v282l-214 289q-14 18 -14 36q0 20 16 34t35 14q23 0 39 -22l188 -260l181 259q16 23 40 23q19 0 33 -14t14 -34q0 -15 -9 -30zM280 948q51 0 72.5 -25t21.5 -57q0 -16 -6 -29t-19 -28
q-19 -21 -20 -33q0 -10 -9 -15t-23 -5q-10 0 -17.5 5.5t-7.5 15.5q0 20 16 39q13 15 19 25t6 19q0 12 -10 20t-25 8q-18 0 -43 -17q-9 -7 -17 -7q-11 0 -21 11q-7 7 -7 17q0 13 13 26q35 30 77 30z" />
    <glyph glyph-name="uni0232" unicode="&#x232;" horiz-adv-x="581" 
d="M555 625l-215 -303v-274q0 -20 -13.5 -34t-32.5 -14q-20 0 -34 14t-14 34v282l-214 289q-14 18 -14 36q0 20 16 34t35 14q23 0 39 -22l188 -260l181 259q16 23 40 23q19 0 33 -14t14 -34q0 -15 -9 -30zM138.5 774.5q-10.5 9.5 -10.5 27.5q0 36 41 36h248q41 0 41 -36
q0 -18 -10.5 -27.5t-30.5 -9.5h-248q-20 0 -30.5 9.5z" />
    <glyph glyph-name="uni1EF8" unicode="&#x1ef8;" horiz-adv-x="581" 
d="M555 625l-215 -303v-274q0 -20 -13.5 -34t-32.5 -14q-20 0 -34 14t-14 34v282l-214 289q-14 18 -14 36q0 20 16 34t35 14q23 0 39 -22l188 -260l181 259q16 23 40 23q19 0 33 -14t14 -34q0 -15 -9 -30zM128.5 764.5q-11.5 14.5 -11.5 39.5q0 36 27.5 61t73.5 25
q22 0 44 -9.5t50 -26.5q23 -14 34.5 -19.5t21.5 -5.5q12 0 19.5 8t6.5 21q-1 4 -1 10q0 13 8.5 21t21.5 8q19 0 30.5 -15t11.5 -38q0 -33 -24 -60t-65 -27q-24 0 -47.5 10t-54.5 27q-17 9 -32.5 16t-25.5 7q-12 0 -20 -7.5t-8 -21.5q1 -3 1 -8q0 -14 -9 -22t-22 -8
q-18 0 -29.5 14.5z" />
    <glyph glyph-name="Z" unicode="Z" horiz-adv-x="646" 
d="M583.5 78.5q13.5 -12.5 13.5 -32.5t-14 -33t-34 -13h-456q-21 0 -35.5 14.5t-14.5 32.5q0 16 11 30l408 532h-335q-21 0 -34.5 13t-13.5 33t13.5 32.5t34.5 12.5h428q20 0 36 -13.5t16 -33.5q0 -14 -11 -30l-408 -532h361q21 0 34.5 -12.5z" />
    <glyph glyph-name="Zacute" unicode="&#x179;" horiz-adv-x="646" 
d="M583.5 78.5q13.5 -12.5 13.5 -32.5t-14 -33t-34 -13h-456q-21 0 -35.5 14.5t-14.5 32.5q0 16 11 30l408 532h-335q-21 0 -34.5 13t-13.5 33t13.5 32.5t34.5 12.5h428q20 0 36 -13.5t16 -33.5q0 -14 -11 -30l-408 -532h361q21 0 34.5 -12.5zM300.5 748.5
q-8.5 7.5 -8.5 20.5t12 23l88 74q21 17 40 17q17 0 30.5 -12t13.5 -29q0 -13 -8 -25t-22 -19l-99 -51q-12 -6 -23 -6q-15 0 -23.5 7.5z" />
    <glyph glyph-name="Zcaron" unicode="&#x17d;" horiz-adv-x="646" 
d="M583.5 78.5q13.5 -12.5 13.5 -32.5t-14 -33t-34 -13h-456q-21 0 -35.5 14.5t-14.5 32.5q0 16 11 30l408 532h-335q-21 0 -34.5 13t-13.5 33t13.5 32.5t34.5 12.5h428q20 0 36 -13.5t16 -33.5q0 -14 -11 -30l-408 -532h361q21 0 34.5 -12.5zM453.5 884.5
q7.5 -6.5 7.5 -14.5q0 -6 -2.5 -11t-10.5 -13l-68 -76q-11 -12 -22.5 -18t-27.5 -6h-14q-16 0 -27.5 6t-21.5 18l-69 76q-6 7 -9 12.5t-3 11.5q0 8 7 14.5t18 6.5q17 0 41 -17l72 -49l70 49q24 17 41 17q11 0 18.5 -6.5z" />
    <glyph glyph-name="Zdotaccent" unicode="&#x17b;" horiz-adv-x="646" 
d="M583.5 78.5q13.5 -12.5 13.5 -32.5t-14 -33t-34 -13h-456q-21 0 -35.5 14.5t-14.5 32.5q0 16 11 30l408 532h-335q-21 0 -34.5 13t-13.5 33t13.5 32.5t34.5 12.5h428q20 0 36 -13.5t16 -33.5q0 -14 -11 -30l-408 -532h361q21 0 34.5 -12.5zM281.5 763.5
q-12.5 10.5 -12.5 34.5v16q0 24 13.5 34.5t40.5 10.5q29 0 41.5 -10.5t12.5 -34.5v-16q0 -24 -13 -34.5t-42 -10.5q-28 0 -40.5 10.5z" />
    <glyph glyph-name="uni1E92" unicode="&#x1e92;" horiz-adv-x="646" 
d="M583.5 78.5q13.5 -12.5 13.5 -32.5t-14 -33t-34 -13h-456q-21 0 -35.5 14.5t-14.5 32.5q0 16 11 30l408 532h-335q-21 0 -34.5 13t-13.5 33t13.5 32.5t34.5 12.5h428q20 0 36 -13.5t16 -33.5q0 -14 -11 -30l-408 -532h361q21 0 34.5 -12.5zM281.5 -133q-12.5 11 -12.5 35
v15q0 46 53 46q30 0 42.5 -10.5t12.5 -35.5v-15q0 -25 -13 -35.5t-42 -10.5q-28 0 -40.5 11z" />
    <glyph glyph-name="a" unicode="a" horiz-adv-x="614" 
d="M530.5 517.5q13.5 -13.5 13.5 -35.5v-434q0 -20 -13.5 -34t-34.5 -14t-34 13.5t-13 34.5v26q-26 -35 -71 -59.5t-97 -24.5q-68 0 -123.5 35t-87 97.5t-31.5 140.5t31.5 140.5t86.5 97.5t121 35q53 0 98.5 -22t72.5 -56v24q0 21 13 35t34 14t34.5 -13.5zM375.5 102
q36.5 24 57 66t20.5 95q0 52 -20.5 94t-57 66.5t-83.5 24.5t-83.5 -24t-57 -66t-20.5 -95t20.5 -95t57 -66t83.5 -24t83.5 24z" />
    <glyph glyph-name="aacute" unicode="&#xe1;" horiz-adv-x="614" 
d="M530.5 517.5q13.5 -13.5 13.5 -35.5v-434q0 -20 -13.5 -34t-34.5 -14t-34 13.5t-13 34.5v26q-26 -35 -71 -59.5t-97 -24.5q-68 0 -123.5 35t-87 97.5t-31.5 140.5t31.5 140.5t86.5 97.5t121 35q53 0 98.5 -22t72.5 -56v24q0 21 13 35t34 14t34.5 -13.5zM375.5 102
q36.5 24 57 66t20.5 95q0 52 -20.5 94t-57 66.5t-83.5 24.5t-83.5 -24t-57 -66t-20.5 -95t20.5 -95t57 -66t83.5 -24t83.5 24zM278 568q-9 7 -8 19q0 8 6 18l59 99q8 14 19.5 23t26.5 9q22 0 33.5 -11.5t10.5 -30.5q0 -18 -15 -35l-75 -82q-16 -16 -40 -16q-8 0 -17 7z" />
    <glyph glyph-name="abreve" unicode="&#x103;" horiz-adv-x="614" 
d="M530.5 517.5q13.5 -13.5 13.5 -35.5v-434q0 -20 -13.5 -34t-34.5 -14t-34 13.5t-13 34.5v26q-26 -35 -71 -59.5t-97 -24.5q-68 0 -123.5 35t-87 97.5t-31.5 140.5t31.5 140.5t86.5 97.5t121 35q53 0 98.5 -22t72.5 -56v24q0 21 13 35t34 14t34.5 -13.5zM375.5 102
q36.5 24 57 66t20.5 95q0 52 -20.5 94t-57 66.5t-83.5 24.5t-83.5 -24t-57 -66t-20.5 -95t20.5 -95t57 -66t83.5 -24t83.5 24zM201 600q-40 29 -53 76q-3 8 -3 15q0 13 8 20.5t21 7.5q17 0 27 -7.5t21 -23.5q9 -23 28 -35t45 -12t44.5 12.5t28.5 34.5q11 16 21 23.5t26 7.5
q13 0 21.5 -7.5t8.5 -19.5q0 -7 -3 -15q-13 -48 -53 -77t-94 -29t-94 29z" />
    <glyph glyph-name="uni1EAF" unicode="&#x1eaf;" horiz-adv-x="614" 
d="M530.5 517.5q13.5 -13.5 13.5 -35.5v-434q0 -20 -13.5 -34t-34.5 -14t-34 13.5t-13 34.5v26q-26 -35 -71 -59.5t-97 -24.5q-68 0 -123.5 35t-87 97.5t-31.5 140.5t31.5 140.5t86.5 97.5t121 35q53 0 98.5 -22t72.5 -56v24q0 21 13 35t34 14t34.5 -13.5zM375.5 102
q36.5 24 57 66t20.5 95q0 52 -20.5 94t-57 66.5t-83.5 24.5t-83.5 -24t-57 -66t-20.5 -95t20.5 -95t57 -66t83.5 -24t83.5 24zM213 608q-40 29 -53 76q-3 8 -3 15q0 13 8 20.5t21 7.5q17 0 27 -7.5t21 -23.5q9 -23 28 -35t45 -12t44.5 12.5t28.5 34.5q11 16 21 23.5t26 7.5
q13 0 21.5 -7.5t8.5 -19.5q0 -7 -3 -15q-13 -48 -53 -77t-94 -29t-94 29zM290 735q-9 7 -8 19q0 8 6 18l59 99q8 14 19.5 23t26.5 9q22 0 33.5 -11.5t10.5 -30.5q0 -18 -15 -35l-75 -82q-16 -16 -40 -16q-8 0 -17 7z" />
    <glyph glyph-name="uni1EB7" unicode="&#x1eb7;" horiz-adv-x="614" 
d="M530.5 517.5q13.5 -13.5 13.5 -35.5v-434q0 -20 -13.5 -34t-34.5 -14t-34 13.5t-13 34.5v26q-26 -35 -71 -59.5t-97 -24.5q-68 0 -123.5 35t-87 97.5t-31.5 140.5t31.5 140.5t86.5 97.5t121 35q53 0 98.5 -22t72.5 -56v24q0 21 13 35t34 14t34.5 -13.5zM375.5 102
q36.5 24 57 66t20.5 95q0 52 -20.5 94t-57 66.5t-83.5 24.5t-83.5 -24t-57 -66t-20.5 -95t20.5 -95t57 -66t83.5 -24t83.5 24zM259.5 -140.5q-12.5 10.5 -12.5 34.5v15q0 45 53 45q30 0 42.5 -10.5t12.5 -34.5v-15q0 -24 -13 -34.5t-42 -10.5q-28 0 -40.5 10.5zM201 600
q-40 29 -53 76q-3 8 -3 15q0 13 8 20.5t21 7.5q17 0 27 -7.5t21 -23.5q9 -23 28 -35t45 -12t44.5 12.5t28.5 34.5q11 16 21 23.5t26 7.5q13 0 21.5 -7.5t8.5 -19.5q0 -7 -3 -15q-13 -48 -53 -77t-94 -29t-94 29z" />
    <glyph glyph-name="uni1EB1" unicode="&#x1eb1;" horiz-adv-x="614" 
d="M530.5 517.5q13.5 -13.5 13.5 -35.5v-434q0 -20 -13.5 -34t-34.5 -14t-34 13.5t-13 34.5v26q-26 -35 -71 -59.5t-97 -24.5q-68 0 -123.5 35t-87 97.5t-31.5 140.5t31.5 140.5t86.5 97.5t121 35q53 0 98.5 -22t72.5 -56v24q0 21 13 35t34 14t34.5 -13.5zM375.5 102
q36.5 24 57 66t20.5 95q0 52 -20.5 94t-57 66.5t-83.5 24.5t-83.5 -24t-57 -66t-20.5 -95t20.5 -95t57 -66t83.5 -24t83.5 24zM217 612q-40 29 -53 76q-3 8 -3 15q0 13 8 20.5t21 7.5q17 0 27 -7.5t21 -23.5q9 -23 28 -35t45 -12t44.5 12.5t28.5 34.5q11 16 21 23.5t26 7.5
q13 0 21.5 -7.5t8.5 -19.5q0 -7 -3 -15q-13 -48 -53 -77t-94 -29t-94 29zM292 744l-91 62q-27 15 -27 41q0 18 13.5 29.5t29.5 11.5q22 0 42 -20l78 -81q11 -11 11 -23q0 -13 -9 -20.5t-23 -7.5q-8 0 -24 8z" />
    <glyph glyph-name="uni1EB3" unicode="&#x1eb3;" horiz-adv-x="614" 
d="M530.5 517.5q13.5 -13.5 13.5 -35.5v-434q0 -20 -13.5 -34t-34.5 -14t-34 13.5t-13 34.5v26q-26 -35 -71 -59.5t-97 -24.5q-68 0 -123.5 35t-87 97.5t-31.5 140.5t31.5 140.5t86.5 97.5t121 35q53 0 98.5 -22t72.5 -56v24q0 21 13 35t34 14t34.5 -13.5zM375.5 102
q36.5 24 57 66t20.5 95q0 52 -20.5 94t-57 66.5t-83.5 24.5t-83.5 -24t-57 -66t-20.5 -95t20.5 -95t57 -66t83.5 -24t83.5 24zM208 612q-40 29 -53 76q-3 8 -3 15q0 13 8 20.5t21 7.5q17 0 27 -7.5t21 -23.5q9 -23 28 -35t45 -12t44.5 12.5t28.5 34.5q11 16 21 23.5t26 7.5
q13 0 21.5 -7.5t8.5 -19.5q0 -7 -3 -15q-13 -48 -53 -77t-94 -29t-94 29zM293 929q51 0 72.5 -25t21.5 -57q0 -16 -6 -29t-19 -28q-7 -8 -13 -17t-6 -16q0 -10 -8.5 -17t-20.5 -7t-20 7t-8 18q0 21 15 39q14 17 20 26t6 18q0 12 -10.5 20t-24.5 8q-12 0 -22 -4.5t-22 -12.5
q-9 -7 -17 -7q-11 0 -21 11q-7 7 -7 17q0 13 13 26q35 30 77 30z" />
    <glyph glyph-name="uni1EB5" unicode="&#x1eb5;" horiz-adv-x="614" 
d="M530.5 517.5q13.5 -13.5 13.5 -35.5v-434q0 -20 -13.5 -34t-34.5 -14t-34 13.5t-13 34.5v26q-26 -35 -71 -59.5t-97 -24.5q-68 0 -123.5 35t-87 97.5t-31.5 140.5t31.5 140.5t86.5 97.5t121 35q53 0 98.5 -22t72.5 -56v24q0 21 13 35t34 14t34.5 -13.5zM375.5 102
q36.5 24 57 66t20.5 95q0 52 -20.5 94t-57 66.5t-83.5 24.5t-83.5 -24t-57 -66t-20.5 -95t20.5 -95t57 -66t83.5 -24t83.5 24zM194 597q-40 29 -53 76q-3 8 -3 15q0 13 8 20.5t21 7.5q17 0 27 -7.5t21 -23.5q9 -23 28 -35t45 -12t44.5 12.5t28.5 34.5q11 16 21 23.5t26 7.5
q13 0 21.5 -7.5t8.5 -19.5q0 -7 -3 -15q-13 -48 -53 -77t-94 -29t-94 29zM127.5 757q-11.5 15 -10.5 43q3 34 32 57t78 23q22 0 42 -9.5t48 -27.5q18 -12 30 -18.5t22 -6.5q12 0 19 7.5t6 20.5q-1 3 -1 10q0 13 9 21t22 8q20 0 31.5 -15t10.5 -41q-3 -33 -28.5 -57.5
t-73.5 -24.5q-18 0 -37.5 8.5t-48.5 25.5q-22 13 -36.5 20t-25.5 7q-12 0 -19.5 -7t-7.5 -21q1 -3 1 -8q0 -14 -9 -22t-22 -8q-20 0 -31.5 15z" />
    <glyph glyph-name="uni01CE" unicode="&#x1ce;" horiz-adv-x="614" 
d="M530.5 517.5q13.5 -13.5 13.5 -35.5v-434q0 -20 -13.5 -34t-34.5 -14t-34 13.5t-13 34.5v26q-26 -35 -71 -59.5t-97 -24.5q-68 0 -123.5 35t-87 97.5t-31.5 140.5t31.5 140.5t86.5 97.5t121 35q53 0 98.5 -22t72.5 -56v24q0 21 13 35t34 14t34.5 -13.5zM375.5 102
q36.5 24 57 66t20.5 95q0 52 -20.5 94t-57 66.5t-83.5 24.5t-83.5 -24t-57 -66t-20.5 -95t20.5 -95t57 -66t83.5 -24t83.5 24zM420 718.5q8 -6.5 8 -14.5q0 -14 -13 -28l-55 -65q-18 -24 -50 -24h-28q-16 0 -27.5 5.5t-21.5 18.5l-56 65q-10 13 -10 25q0 11 8.5 17.5
t23.5 6.5t37 -19l62 -52l60 52q12 10 21 14.5t23 4.5q10 0 18 -6.5z" />
    <glyph glyph-name="acircumflex" unicode="&#xe2;" horiz-adv-x="614" 
d="M530.5 517.5q13.5 -13.5 13.5 -35.5v-434q0 -20 -13.5 -34t-34.5 -14t-34 13.5t-13 34.5v26q-26 -35 -71 -59.5t-97 -24.5q-68 0 -123.5 35t-87 97.5t-31.5 140.5t31.5 140.5t86.5 97.5t121 35q53 0 98.5 -22t72.5 -56v24q0 21 13 35t34 14t34.5 -13.5zM375.5 102
q36.5 24 57 66t20.5 95q0 52 -20.5 94t-57 66.5t-83.5 24.5t-83.5 -24t-57 -66t-20.5 -95t20.5 -95t57 -66t83.5 -24t83.5 24zM425 623q2 -5 2 -12q0 -9 -7 -15t-18 -6q-13 0 -19 3.5t-20 15.5l-64 54l-65 -54q-3 -3 -10.5 -9t-14 -8.5t-15.5 -2.5q-10 0 -17 6.5t-7 14.5
t2 13t8 12l59 70q18 24 50 24h27q16 0 26 -5t19 -19l56 -69q6 -8 8 -13z" />
    <glyph glyph-name="uni1EA5" unicode="&#x1ea5;" horiz-adv-x="614" 
d="M530.5 517.5q13.5 -13.5 13.5 -35.5v-434q0 -20 -13.5 -34t-34.5 -14t-34 13.5t-13 34.5v26q-26 -35 -71 -59.5t-97 -24.5q-68 0 -123.5 35t-87 97.5t-31.5 140.5t31.5 140.5t86.5 97.5t121 35q53 0 98.5 -22t72.5 -56v24q0 21 13 35t34 14t34.5 -13.5zM375.5 102
q36.5 24 57 66t20.5 95q0 52 -20.5 94t-57 66.5t-83.5 24.5t-83.5 -24t-57 -66t-20.5 -95t20.5 -95t57 -66t83.5 -24t83.5 24zM417 621q2 -5 2 -12q0 -9 -7 -15t-18 -6q-13 0 -19 3.5t-20 15.5l-64 54l-65 -54q-3 -3 -10.5 -9t-14 -8.5t-15.5 -2.5q-10 0 -17 6.5t-7 14.5
t2 13t8 12l59 70q18 24 50 24h27q16 0 26 -5t19 -19l56 -69q6 -8 8 -13zM405 675q-9 7 -8 19q0 8 6 18l59 99q8 14 19.5 23t26.5 9q22 0 33.5 -11.5t10.5 -30.5q0 -18 -15 -35l-75 -82q-16 -16 -40 -16q-8 0 -17 7z" />
    <glyph glyph-name="uni1EAD" unicode="&#x1ead;" horiz-adv-x="614" 
d="M530.5 517.5q13.5 -13.5 13.5 -35.5v-434q0 -20 -13.5 -34t-34.5 -14t-34 13.5t-13 34.5v26q-26 -35 -71 -59.5t-97 -24.5q-68 0 -123.5 35t-87 97.5t-31.5 140.5t31.5 140.5t86.5 97.5t121 35q53 0 98.5 -22t72.5 -56v24q0 21 13 35t34 14t34.5 -13.5zM375.5 102
q36.5 24 57 66t20.5 95q0 52 -20.5 94t-57 66.5t-83.5 24.5t-83.5 -24t-57 -66t-20.5 -95t20.5 -95t57 -66t83.5 -24t83.5 24zM259.5 -140.5q-12.5 10.5 -12.5 34.5v15q0 45 53 45q30 0 42.5 -10.5t12.5 -34.5v-15q0 -24 -13 -34.5t-42 -10.5q-28 0 -40.5 10.5zM425 623
q2 -5 2 -12q0 -9 -7 -15t-18 -6q-13 0 -19 3.5t-20 15.5l-64 54l-65 -54q-3 -3 -10.5 -9t-14 -8.5t-15.5 -2.5q-10 0 -17 6.5t-7 14.5t2 13t8 12l59 70q18 24 50 24h27q16 0 26 -5t19 -19l56 -69q6 -8 8 -13z" />
    <glyph glyph-name="uni1EA7" unicode="&#x1ea7;" horiz-adv-x="614" 
d="M530.5 517.5q13.5 -13.5 13.5 -35.5v-434q0 -20 -13.5 -34t-34.5 -14t-34 13.5t-13 34.5v26q-26 -35 -71 -59.5t-97 -24.5q-68 0 -123.5 35t-87 97.5t-31.5 140.5t31.5 140.5t86.5 97.5t121 35q53 0 98.5 -22t72.5 -56v24q0 21 13 35t34 14t34.5 -13.5zM375.5 102
q36.5 24 57 66t20.5 95q0 52 -20.5 94t-57 66.5t-83.5 24.5t-83.5 -24t-57 -66t-20.5 -95t20.5 -95t57 -66t83.5 -24t83.5 24zM415 621q2 -5 2 -12q0 -9 -7 -15t-18 -6q-13 0 -19 3.5t-20 15.5l-64 54l-65 -54q-3 -3 -10.5 -9t-14 -8.5t-15.5 -2.5q-10 0 -17 6.5t-7 14.5
t2 13t8 12l59 70q18 24 50 24h27q16 0 26 -5t19 -19l56 -69q6 -8 8 -13zM405 718l-91 62q-27 15 -27 41q0 18 13.5 29.5t29.5 11.5q22 0 42 -20l78 -81q11 -11 11 -23q0 -13 -9 -20.5t-23 -7.5q-8 0 -24 8z" />
    <glyph glyph-name="uni1EA9" unicode="&#x1ea9;" horiz-adv-x="614" 
d="M530.5 517.5q13.5 -13.5 13.5 -35.5v-434q0 -20 -13.5 -34t-34.5 -14t-34 13.5t-13 34.5v26q-26 -35 -71 -59.5t-97 -24.5q-68 0 -123.5 35t-87 97.5t-31.5 140.5t31.5 140.5t86.5 97.5t121 35q53 0 98.5 -22t72.5 -56v24q0 21 13 35t34 14t34.5 -13.5zM375.5 102
q36.5 24 57 66t20.5 95q0 52 -20.5 94t-57 66.5t-83.5 24.5t-83.5 -24t-57 -66t-20.5 -95t20.5 -95t57 -66t83.5 -24t83.5 24zM422 605q2 -5 2 -12q0 -9 -7 -15t-18 -6q-13 0 -19 3.5t-20 15.5l-64 54l-65 -54q-3 -3 -10.5 -9t-14 -8.5t-15.5 -2.5q-10 0 -17 6.5t-7 14.5
t2 13t8 12l59 70q18 24 50 24h27q16 0 26 -5t19 -19l56 -69q6 -8 8 -13zM436 832q51 0 72.5 -25t21.5 -57q0 -16 -6 -29t-19 -28q-7 -8 -13 -17t-6 -16q0 -10 -8.5 -17t-20.5 -7t-20 7t-8 18q0 21 15 39q14 17 20 26t6 18q0 12 -10.5 20t-24.5 8q-12 0 -22 -4.5t-22 -12.5
q-9 -7 -17 -7q-11 0 -21 11q-7 7 -7 17q0 13 13 26q35 30 77 30z" />
    <glyph glyph-name="uni1EAB" unicode="&#x1eab;" horiz-adv-x="614" 
d="M530.5 517.5q13.5 -13.5 13.5 -35.5v-434q0 -20 -13.5 -34t-34.5 -14t-34 13.5t-13 34.5v26q-26 -35 -71 -59.5t-97 -24.5q-68 0 -123.5 35t-87 97.5t-31.5 140.5t31.5 140.5t86.5 97.5t121 35q53 0 98.5 -22t72.5 -56v24q0 21 13 35t34 14t34.5 -13.5zM375.5 102
q36.5 24 57 66t20.5 95q0 52 -20.5 94t-57 66.5t-83.5 24.5t-83.5 -24t-57 -66t-20.5 -95t20.5 -95t57 -66t83.5 -24t83.5 24zM421 597q2 -5 2 -12q0 -9 -7 -15t-18 -6q-13 0 -19 3.5t-20 15.5l-64 54l-65 -54q-3 -3 -10.5 -9t-14 -8.5t-15.5 -2.5q-10 0 -17 6.5t-7 14.5
t2 13t8 12l59 70q18 24 50 24h27q16 0 26 -5t19 -19l56 -69q6 -8 8 -13zM137.5 731q-11.5 15 -10.5 43q3 34 32 57t78 23q22 0 42 -9.5t48 -27.5q18 -12 30 -18.5t22 -6.5q12 0 19 7.5t6 20.5q-1 3 -1 10q0 13 9 21t22 8q20 0 31.5 -15t10.5 -41q-3 -33 -28.5 -57.5
t-73.5 -24.5q-18 0 -37.5 8.5t-48.5 25.5q-22 13 -36.5 20t-25.5 7q-12 0 -19.5 -7t-7.5 -21q1 -3 1 -8q0 -14 -9 -22t-22 -8q-20 0 -31.5 15z" />
    <glyph glyph-name="uni0201" unicode="&#x201;" horiz-adv-x="614" 
d="M530.5 517.5q13.5 -13.5 13.5 -35.5v-434q0 -20 -13.5 -34t-34.5 -14t-34 13.5t-13 34.5v26q-26 -35 -71 -59.5t-97 -24.5q-68 0 -123.5 35t-87 97.5t-31.5 140.5t31.5 140.5t86.5 97.5t121 35q53 0 98.5 -22t72.5 -56v24q0 21 13 35t34 14t34.5 -13.5zM375.5 102
q36.5 24 57 66t20.5 95q0 52 -20.5 94t-57 66.5t-83.5 24.5t-83.5 -24t-57 -66t-20.5 -95t20.5 -95t57 -66t83.5 -24t83.5 24zM207 606l-91 62q-28 16 -28 41q0 18 13.5 29.5t30.5 11.5q21 0 41 -20l79 -81q11 -11 11 -23q0 -13 -9 -20.5t-23 -7.5q-10 0 -24 8zM375 606
l-91 62q-28 16 -28 41q0 18 13.5 29.5t29.5 11.5q22 0 42 -20l79 -81q11 -11 11 -23q0 -13 -9 -20.5t-23 -7.5q-10 0 -24 8z" />
    <glyph glyph-name="adieresis" unicode="&#xe4;" horiz-adv-x="614" 
d="M530.5 517.5q13.5 -13.5 13.5 -35.5v-434q0 -20 -13.5 -34t-34.5 -14t-34 13.5t-13 34.5v26q-26 -35 -71 -59.5t-97 -24.5q-68 0 -123.5 35t-87 97.5t-31.5 140.5t31.5 140.5t86.5 97.5t121 35q53 0 98.5 -22t72.5 -56v24q0 21 13 35t34 14t34.5 -13.5zM375.5 102
q36.5 24 57 66t20.5 95q0 52 -20.5 94t-57 66.5t-83.5 24.5t-83.5 -24t-57 -66t-20.5 -95t20.5 -95t57 -66t83.5 -24t83.5 24zM160 608q-13 11 -13 35v15q0 45 52 45q29 0 42 -10.5t13 -34.5v-15q0 -25 -13.5 -35.5t-41.5 -10.5q-26 0 -39 11zM348 608q-13 11 -13 35v15
q0 45 53 45q28 0 40.5 -10.5t12.5 -34.5v-15q0 -25 -13 -35.5t-41 -10.5q-26 0 -39 11z" />
    <glyph glyph-name="uni1EA1" unicode="&#x1ea1;" horiz-adv-x="614" 
d="M530.5 517.5q13.5 -13.5 13.5 -35.5v-434q0 -20 -13.5 -34t-34.5 -14t-34 13.5t-13 34.5v26q-26 -35 -71 -59.5t-97 -24.5q-68 0 -123.5 35t-87 97.5t-31.5 140.5t31.5 140.5t86.5 97.5t121 35q53 0 98.5 -22t72.5 -56v24q0 21 13 35t34 14t34.5 -13.5zM375.5 102
q36.5 24 57 66t20.5 95q0 52 -20.5 94t-57 66.5t-83.5 24.5t-83.5 -24t-57 -66t-20.5 -95t20.5 -95t57 -66t83.5 -24t83.5 24zM259.5 -140.5q-12.5 10.5 -12.5 34.5v15q0 45 53 45q30 0 42.5 -10.5t12.5 -34.5v-15q0 -24 -13 -34.5t-42 -10.5q-28 0 -40.5 10.5z" />
    <glyph glyph-name="agrave" unicode="&#xe0;" horiz-adv-x="614" 
d="M530.5 517.5q13.5 -13.5 13.5 -35.5v-434q0 -20 -13.5 -34t-34.5 -14t-34 13.5t-13 34.5v26q-26 -35 -71 -59.5t-97 -24.5q-68 0 -123.5 35t-87 97.5t-31.5 140.5t31.5 140.5t86.5 97.5t121 35q53 0 98.5 -22t72.5 -56v24q0 21 13 35t34 14t34.5 -13.5zM375.5 102
q36.5 24 57 66t20.5 95q0 52 -20.5 94t-57 66.5t-83.5 24.5t-83.5 -24t-57 -66t-20.5 -95t20.5 -95t57 -66t83.5 -24t83.5 24zM276 573l-91 62q-27 15 -27 41q0 18 13.5 29.5t29.5 11.5q22 0 42 -20l78 -81q11 -11 11 -23q0 -13 -9 -20.5t-23 -7.5q-8 0 -24 8z" />
    <glyph glyph-name="uni1EA3" unicode="&#x1ea3;" horiz-adv-x="614" 
d="M530.5 517.5q13.5 -13.5 13.5 -35.5v-434q0 -20 -13.5 -34t-34.5 -14t-34 13.5t-13 34.5v26q-26 -35 -71 -59.5t-97 -24.5q-68 0 -123.5 35t-87 97.5t-31.5 140.5t31.5 140.5t86.5 97.5t121 35q53 0 98.5 -22t72.5 -56v24q0 21 13 35t34 14t34.5 -13.5zM375.5 102
q36.5 24 57 66t20.5 95q0 52 -20.5 94t-57 66.5t-83.5 24.5t-83.5 -24t-57 -66t-20.5 -95t20.5 -95t57 -66t83.5 -24t83.5 24zM286 758q51 0 72.5 -25t21.5 -57q0 -16 -6 -29t-19 -28q-7 -8 -13 -17t-6 -16q0 -10 -8.5 -17t-20.5 -7t-20 7t-8 18q0 21 15 39q14 17 20 26
t6 18q0 12 -10.5 20t-24.5 8q-12 0 -22 -4.5t-22 -12.5q-9 -7 -17 -7q-11 0 -21 11q-7 7 -7 17q0 13 13 26q35 30 77 30z" />
    <glyph glyph-name="uni0203" unicode="&#x203;" horiz-adv-x="614" 
d="M530.5 517.5q13.5 -13.5 13.5 -35.5v-434q0 -20 -13.5 -34t-34.5 -14t-34 13.5t-13 34.5v26q-26 -35 -71 -59.5t-97 -24.5q-68 0 -123.5 35t-87 97.5t-31.5 140.5t31.5 140.5t86.5 97.5t121 35q53 0 98.5 -22t72.5 -56v24q0 21 13 35t34 14t34.5 -13.5zM375.5 102
q36.5 24 57 66t20.5 95q0 52 -20.5 94t-57 66.5t-83.5 24.5t-83.5 -24t-57 -66t-20.5 -95t20.5 -95t57 -66t83.5 -24t83.5 24zM395 708.5q40 -28.5 53 -76.5q3 -7 3 -15q0 -13 -8 -20.5t-21 -7.5q-17 0 -27 7.5t-21 23.5q-9 23 -28 35t-45 12t-44.5 -12.5t-28.5 -34.5
q-11 -16 -21 -23.5t-26 -7.5q-13 0 -21.5 7.5t-8.5 19.5q0 8 3 15q13 48 53 77t94 29t94 -28.5z" />
    <glyph glyph-name="amacron" unicode="&#x101;" horiz-adv-x="614" 
d="M530.5 517.5q13.5 -13.5 13.5 -35.5v-434q0 -20 -13.5 -34t-34.5 -14t-34 13.5t-13 34.5v26q-26 -35 -71 -59.5t-97 -24.5q-68 0 -123.5 35t-87 97.5t-31.5 140.5t31.5 140.5t86.5 97.5t121 35q53 0 98.5 -22t72.5 -56v24q0 21 13 35t34 14t34.5 -13.5zM375.5 102
q36.5 24 57 66t20.5 95q0 52 -20.5 94t-57 66.5t-83.5 24.5t-83.5 -24t-57 -66t-20.5 -95t20.5 -95t57 -66t83.5 -24t83.5 24zM147 611q-11 10 -11 28q0 17 10.5 26.5t30.5 9.5h241q20 0 30.5 -9.5t10.5 -26.5q0 -18 -10.5 -28t-30.5 -10h-241q-19 0 -30 10z" />
    <glyph glyph-name="aogonek" unicode="&#x105;" horiz-adv-x="614" 
d="M548 -113q10 -10 10 -27q0 -15 -14.5 -31t-38.5 -26t-50 -10q-47 0 -78.5 26.5t-31.5 75.5q0 89 104 131v48q-26 -35 -71 -59.5t-97 -24.5q-68 0 -123.5 35t-87 97.5t-31.5 140.5t31.5 140.5t86.5 97.5t121 35q53 0 98.5 -22t72.5 -56v24q0 21 13 35t34 14t34.5 -13.5
t13.5 -35.5v-459q0 -25 -28 -34q-40 -12 -65.5 -32t-25.5 -44q0 -21 11.5 -33t27.5 -12q15 0 24 12q12 17 35 17q15 0 25 -10zM375.5 102q36.5 24 57 66t20.5 95q0 52 -20.5 94t-57 66.5t-83.5 24.5t-83.5 -24t-57 -66t-20.5 -95t20.5 -95t57 -66t83.5 -24t83.5 24z" />
    <glyph glyph-name="aring" unicode="&#xe5;" horiz-adv-x="614" 
d="M530.5 517.5q13.5 -13.5 13.5 -35.5v-434q0 -20 -13.5 -34t-34.5 -14t-34 13.5t-13 34.5v26q-26 -35 -71 -59.5t-97 -24.5q-68 0 -123.5 35t-87 97.5t-31.5 140.5t31.5 140.5t86.5 97.5t121 35q53 0 98.5 -22t72.5 -56v24q0 21 13 35t34 14t34.5 -13.5zM375.5 102
q36.5 24 57 66t20.5 95q0 52 -20.5 94t-57 66.5t-83.5 24.5t-83.5 -24t-57 -66t-20.5 -95t20.5 -95t57 -66t83.5 -24t83.5 24zM223 595q-33 31 -33 73q0 44 33 75t76 31q44 0 76.5 -31t32.5 -75q0 -42 -32.5 -73t-76.5 -31q-43 0 -76 31zM334.5 635.5q14.5 13.5 14.5 32.5
q0 22 -15 35t-35 13q-21 0 -35.5 -13.5t-14.5 -34.5q0 -19 14.5 -32.5t35.5 -13.5t35.5 13.5z" />
    <glyph glyph-name="aringacute" unicode="&#x1fb;" horiz-adv-x="614" 
d="M530.5 517.5q13.5 -13.5 13.5 -35.5v-434q0 -20 -13.5 -34t-34.5 -14t-34 13.5t-13 34.5v26q-26 -35 -71 -59.5t-97 -24.5q-68 0 -123.5 35t-87 97.5t-31.5 140.5t31.5 140.5t86.5 97.5t121 35q53 0 98.5 -22t72.5 -56v24q0 21 13 35t34 14t34.5 -13.5zM375.5 102
q36.5 24 57 66t20.5 95q0 52 -20.5 94t-57 66.5t-83.5 24.5t-83.5 -24t-57 -66t-20.5 -95t20.5 -95t57 -66t83.5 -24t83.5 24zM223 595q-33 31 -33 73q0 44 33 75t76 31q44 0 76.5 -31t32.5 -75q0 -42 -32.5 -73t-76.5 -31q-43 0 -76 31zM334.5 635.5q14.5 13.5 14.5 32.5
q0 22 -15 35t-35 13q-21 0 -35.5 -13.5t-14.5 -34.5q0 -19 14.5 -32.5t35.5 -13.5t35.5 13.5zM275.5 811.5q-8.5 7.5 -8.5 20.5t12 23l88 74q21 17 40 17q17 0 30.5 -12t13.5 -29q0 -13 -8 -25t-22 -19l-99 -51q-12 -6 -23 -6q-15 0 -23.5 7.5z" />
    <glyph glyph-name="atilde" unicode="&#xe3;" horiz-adv-x="614" 
d="M530.5 517.5q13.5 -13.5 13.5 -35.5v-434q0 -20 -13.5 -34t-34.5 -14t-34 13.5t-13 34.5v26q-26 -35 -71 -59.5t-97 -24.5q-68 0 -123.5 35t-87 97.5t-31.5 140.5t31.5 140.5t86.5 97.5t121 35q53 0 98.5 -22t72.5 -56v24q0 21 13 35t34 14t34.5 -13.5zM375.5 102
q36.5 24 57 66t20.5 95q0 52 -20.5 94t-57 66.5t-83.5 24.5t-83.5 -24t-57 -66t-20.5 -95t20.5 -95t57 -66t83.5 -24t83.5 24zM134.5 601q-11.5 15 -10.5 43q3 34 32 57t78 23q22 0 42 -9.5t48 -27.5q18 -12 30 -18.5t22 -6.5q12 0 19 7.5t6 20.5q-1 3 -1 10q0 13 9 21t22 8
q20 0 31.5 -15t10.5 -41q-3 -33 -28.5 -57.5t-73.5 -24.5q-18 0 -37.5 8.5t-48.5 25.5q-22 13 -36.5 20t-25.5 7q-12 0 -19.5 -7t-7.5 -21q1 -3 1 -8q0 -14 -9 -22t-22 -8q-20 0 -31.5 15z" />
    <glyph glyph-name="ae" unicode="&#xe6;" horiz-adv-x="907" 
d="M853 251.5q-14 -12.5 -33 -12.5h-352q7 -73 55.5 -117t118.5 -44q48 0 78 14t53 36q15 9 29 9q17 0 28.5 -12t11.5 -28q0 -21 -20 -38q-29 -29 -77 -49t-99 -20q-72 0 -129.5 28t-92.5 78q-34 -43 -86 -74.5t-119 -31.5q-44 0 -85 17.5t-67 53t-26 87.5q0 81 57.5 126
t175.5 45h103v38q0 53 -33 72t-79 19q-87 0 -145 -75q-15 -17 -36 -17q-16 0 -28.5 11t-12.5 27q0 17 11 32q37 46 90.5 78t122.5 32q60 0 109 -18.5t73 -58.5q34 37 79.5 57t94.5 20q64 0 120 -33t90 -91t35 -130q-1 -18 -15 -30.5zM526 416.5q-41 -31.5 -54 -97.5h295v8
q-5 53 -47.5 87t-96.5 34q-56 0 -97 -31.5zM376 239h-110q-67 0 -98.5 -25t-31.5 -63q0 -36 26 -55.5t61 -19.5q58 0 101.5 29.5t63.5 65.5q-9 31 -12 68z" />
    <glyph glyph-name="aeacute" unicode="&#x1fd;" horiz-adv-x="907" 
d="M853 251.5q-14 -12.5 -33 -12.5h-352q7 -73 55.5 -117t118.5 -44q48 0 78 14t53 36q15 9 29 9q17 0 28.5 -12t11.5 -28q0 -21 -20 -38q-29 -29 -77 -49t-99 -20q-72 0 -129.5 28t-92.5 78q-34 -43 -86 -74.5t-119 -31.5q-44 0 -85 17.5t-67 53t-26 87.5q0 81 57.5 126
t175.5 45h103v38q0 53 -33 72t-79 19q-87 0 -145 -75q-15 -17 -36 -17q-16 0 -28.5 11t-12.5 27q0 17 11 32q37 46 90.5 78t122.5 32q60 0 109 -18.5t73 -58.5q34 37 79.5 57t94.5 20q64 0 120 -33t90 -91t35 -130q-1 -18 -15 -30.5zM526 416.5q-41 -31.5 -54 -97.5h295v8
q-5 53 -47.5 87t-96.5 34q-56 0 -97 -31.5zM376 239h-110q-67 0 -98.5 -25t-31.5 -63q0 -36 26 -55.5t61 -19.5q58 0 101.5 29.5t63.5 65.5q-9 31 -12 68zM409 573q-9 7 -8 19q0 8 6 18l59 99q8 14 19.5 23t26.5 9q22 0 33.5 -11.5t10.5 -30.5q0 -18 -15 -35l-75 -82
q-16 -16 -40 -16q-8 0 -17 7z" />
    <glyph glyph-name="b" unicode="b" horiz-adv-x="614" 
d="M457 501q55 -35 86.5 -97t31.5 -140t-31.5 -141t-86.5 -98t-121 -35q-52 0 -97 23t-73 57v-29q0 -20 -13.5 -34t-34.5 -14q-20 0 -33.5 13.5t-13.5 34.5v651q0 21 13 34.5t34 13.5t34.5 -14t13.5 -34v-244q24 36 70 62t98 26q68 0 123 -35zM406 102.5q37 24.5 57.5 67
t20.5 94.5t-20.5 94t-57.5 66t-83 24q-47 0 -84 -24t-57.5 -65.5t-20.5 -94.5t20.5 -95t57.5 -66.5t84 -24.5q46 0 83 24.5z" />
    <glyph glyph-name="c" unicode="c" horiz-adv-x="514" 
d="M430.5 511q52.5 -25 52.5 -64q0 -17 -11 -30.5t-28 -13.5q-13 0 -20.5 4t-20.5 13q-6 6 -19 14q-12 6 -34 10t-40 4q-52 0 -92 -24t-62 -66.5t-22 -94.5q0 -53 21.5 -95t60.5 -66t89 -24q52 0 84 16q7 4 19 13q10 8 17.5 12t18.5 4q20 0 31.5 -12.5t11.5 -32.5
q0 -21 -26.5 -41.5t-71 -33.5t-95.5 -13q-76 0 -134 35.5t-89.5 98t-31.5 139.5t33 139.5t92 98t135 35.5q79 0 131.5 -25z" />
    <glyph glyph-name="cacute" unicode="&#x107;" horiz-adv-x="514" 
d="M430.5 511q52.5 -25 52.5 -64q0 -17 -11 -30.5t-28 -13.5q-13 0 -20.5 4t-20.5 13q-6 6 -19 14q-12 6 -34 10t-40 4q-52 0 -92 -24t-62 -66.5t-22 -94.5q0 -53 21.5 -95t60.5 -66t89 -24q52 0 84 16q7 4 19 13q10 8 17.5 12t18.5 4q20 0 31.5 -12.5t11.5 -32.5
q0 -21 -26.5 -41.5t-71 -33.5t-95.5 -13q-76 0 -134 35.5t-89.5 98t-31.5 139.5t33 139.5t92 98t135 35.5q79 0 131.5 -25zM278 568q-9 7 -8 19q0 8 6 18l59 99q8 14 19.5 23t26.5 9q22 0 33.5 -11.5t10.5 -30.5q0 -18 -15 -35l-75 -82q-16 -16 -40 -16q-8 0 -17 7z" />
    <glyph glyph-name="ccaron" unicode="&#x10d;" horiz-adv-x="514" 
d="M430.5 511q52.5 -25 52.5 -64q0 -17 -11 -30.5t-28 -13.5q-13 0 -20.5 4t-20.5 13q-6 6 -19 14q-12 6 -34 10t-40 4q-52 0 -92 -24t-62 -66.5t-22 -94.5q0 -53 21.5 -95t60.5 -66t89 -24q52 0 84 16q7 4 19 13q10 8 17.5 12t18.5 4q20 0 31.5 -12.5t11.5 -32.5
q0 -21 -26.5 -41.5t-71 -33.5t-95.5 -13q-76 0 -134 35.5t-89.5 98t-31.5 139.5t33 139.5t92 98t135 35.5q79 0 131.5 -25zM420 718.5q8 -6.5 8 -14.5q0 -14 -13 -28l-55 -65q-18 -24 -50 -24h-28q-16 0 -27.5 5.5t-21.5 18.5l-56 65q-10 13 -10 25q0 11 8.5 17.5t23.5 6.5
t37 -19l62 -52l60 52q12 10 21 14.5t23 4.5q10 0 18 -6.5z" />
    <glyph glyph-name="ccedilla" unicode="&#xe7;" horiz-adv-x="514" 
d="M464.5 39.5q-22.5 -19.5 -61.5 -32.5t-85 -16l-45 -112q-10 -27 -34 -27q-17 0 -36.5 11.5t-19.5 28.5q0 14 10 25l58 76q-64 10 -112 47.5t-74 95t-26 127.5q0 77 33 139.5t92 98t135 35.5q79 0 131.5 -25t52.5 -64q0 -17 -11 -30.5t-28 -13.5q-13 0 -20.5 4t-20.5 13
q-6 6 -19 14q-12 6 -34 10t-40 4q-52 0 -92 -24t-62 -66.5t-22 -94.5q0 -53 21.5 -95t60.5 -66t89 -24q52 0 84 16q7 4 19 13q10 8 17.5 12t18.5 4q20 0 31.5 -12.5t11.5 -32.5q0 -19 -22.5 -38.5z" />
    <glyph glyph-name="uni1E09" unicode="&#x1e09;" horiz-adv-x="514" 
d="M278 568q-9 7 -8 19q0 8 6 18l59 99q8 14 19.5 23t26.5 9q22 0 33.5 -11.5t10.5 -30.5q0 -18 -15 -35l-75 -82q-16 -16 -40 -16q-8 0 -17 7zM464.5 39.5q-22.5 -19.5 -61.5 -32.5t-85 -16l-45 -112q-10 -27 -34 -27q-17 0 -36.5 11.5t-19.5 28.5q0 14 10 25l58 76
q-64 10 -112 47.5t-74 95t-26 127.5q0 77 33 139.5t92 98t135 35.5q79 0 131.5 -25t52.5 -64q0 -17 -11 -30.5t-28 -13.5q-13 0 -20.5 4t-20.5 13q-6 6 -19 14q-12 6 -34 10t-40 4q-52 0 -92 -24t-62 -66.5t-22 -94.5q0 -53 21.5 -95t60.5 -66t89 -24q52 0 84 16q7 4 19 13
q10 8 17.5 12t18.5 4q20 0 31.5 -12.5t11.5 -32.5q0 -19 -22.5 -38.5z" />
    <glyph glyph-name="ccircumflex" unicode="&#x109;" horiz-adv-x="514" 
d="M430.5 511q52.5 -25 52.5 -64q0 -17 -11 -30.5t-28 -13.5q-13 0 -20.5 4t-20.5 13q-6 6 -19 14q-12 6 -34 10t-40 4q-52 0 -92 -24t-62 -66.5t-22 -94.5q0 -53 21.5 -95t60.5 -66t89 -24q52 0 84 16q7 4 19 13q10 8 17.5 12t18.5 4q20 0 31.5 -12.5t11.5 -32.5
q0 -21 -26.5 -41.5t-71 -33.5t-95.5 -13q-76 0 -134 35.5t-89.5 98t-31.5 139.5t33 139.5t92 98t135 35.5q79 0 131.5 -25zM425 623q2 -5 2 -12q0 -9 -7 -15t-18 -6q-13 0 -19 3.5t-20 15.5l-64 54l-65 -54q-3 -3 -10.5 -9t-14 -8.5t-15.5 -2.5q-10 0 -17 6.5t-7 14.5t2 13
t8 12l59 70q18 24 50 24h27q16 0 26 -5t19 -19l56 -69q6 -8 8 -13z" />
    <glyph glyph-name="cdotaccent" unicode="&#x10b;" horiz-adv-x="514" 
d="M430.5 511q52.5 -25 52.5 -64q0 -17 -11 -30.5t-28 -13.5q-13 0 -20.5 4t-20.5 13q-6 6 -19 14q-12 6 -34 10t-40 4q-52 0 -92 -24t-62 -66.5t-22 -94.5q0 -53 21.5 -95t60.5 -66t89 -24q52 0 84 16q7 4 19 13q10 8 17.5 12t18.5 4q20 0 31.5 -12.5t11.5 -32.5
q0 -21 -26.5 -41.5t-71 -33.5t-95.5 -13q-76 0 -134 35.5t-89.5 98t-31.5 139.5t33 139.5t92 98t135 35.5q79 0 131.5 -25zM256.5 605.5q-12.5 10.5 -12.5 33.5v16q0 24 13.5 34t41.5 10t40.5 -10.5t12.5 -33.5v-16q0 -24 -13 -34t-41 -10q-29 0 -41.5 10.5z" />
    <glyph glyph-name="d" unicode="d" horiz-adv-x="614" 
d="M530.5 726.5q13.5 -13.5 13.5 -34.5v-644q0 -20 -13.5 -34t-34.5 -14t-34 13.5t-13 34.5v28q-25 -36 -70.5 -61t-97.5 -25q-68 0 -123 35t-87 97.5t-32 140.5t31.5 140.5t86.5 97.5t121 35q53 0 98 -22t73 -57v235q0 21 13 34.5t34 13.5t34.5 -13.5zM375.5 102
q36.5 24 57 66t20.5 95q0 52 -20.5 94.5t-57 66.5t-83.5 24t-83.5 -24t-57 -66.5t-20.5 -94.5q0 -53 20.5 -95t57 -66t83.5 -24t83.5 24z" />
    <glyph glyph-name="eth" unicode="&#xf0;" horiz-adv-x="571" 
d="M507 451q25 -84 25 -169q0 -87 -32.5 -152.5t-88.5 -101t-125 -35.5q-68 0 -124.5 36t-89.5 97.5t-33 135.5q0 72 33.5 133t88 96.5t114.5 35.5q75 0 127 -50q-18 57 -56 97l-153 -38q-10 -2 -16 -2q-15 0 -24.5 8.5t-9.5 25.5q0 27 32 33l95 24q-29 12 -61 21
q-18 5 -29.5 18t-11.5 29q0 19 10.5 33t30.5 14q11 0 24 -3q83 -21 147 -79l70 16q10 2 15 2q15 0 25 -9t10 -25q0 -13 -8.5 -22t-23.5 -11l-35 -8q49 -66 74 -150zM362.5 110.5q34.5 23.5 54.5 63.5t20 88q0 46 -20 85.5t-54.5 62.5t-76.5 23t-77 -22.5t-55 -61.5t-20 -87
t20 -88t55 -63.5t77 -23.5t76.5 23.5z" />
    <glyph glyph-name="dcaron" unicode="&#x10f;" horiz-adv-x="776" 
d="M530.5 726.5q13.5 -13.5 13.5 -34.5v-644q0 -20 -13.5 -34t-34.5 -14t-34 13.5t-13 34.5v28q-25 -36 -70.5 -61t-97.5 -25q-68 0 -123 35t-87 97.5t-32 140.5t31.5 140.5t86.5 97.5t121 35q53 0 98 -22t73 -57v235q0 21 13 34.5t34 13.5t34.5 -13.5zM375.5 102
q36.5 24 57 66t20.5 95q0 52 -20.5 94.5t-57 66.5t-83.5 24t-83.5 -24t-57 -66.5t-20.5 -94.5q0 -53 20.5 -95t57 -66t83.5 -24t83.5 24zM753 532.5q-16 -32.5 -40.5 -55.5t-50.5 -23q-17 0 -28 8.5t-11 24.5q0 14 7 19.5t16.5 8.5t14.5 5q14 7 21.5 18.5t7.5 25.5
q0 11 -9 19t-23 8q-16 0 -27 -8q-10 5 -15 12.5t-5 20.5q1 24 26 42.5t53 18.5q37 0 58 -23t21 -64q0 -25 -16 -57.5z" />
    <glyph glyph-name="dcroat" unicode="&#x111;" horiz-adv-x="614" 
d="M599.5 647.5q13.5 -12.5 13.5 -31.5t-13.5 -31.5t-34.5 -12.5h-21v-524q0 -20 -13.5 -34t-34.5 -14t-34 13.5t-13 34.5v28q-25 -36 -70.5 -61t-97.5 -25q-68 0 -123 35t-87 97.5t-32 140.5t31.5 140.5t86.5 97.5t121 35q53 0 98 -22t73 -57v115h-54q-21 0 -34.5 12.5
t-13.5 32.5q0 19 13.5 31t34.5 12h54v32q0 21 13 34.5t34 13.5t34.5 -13.5t13.5 -34.5v-32h21q21 0 34.5 -12.5zM375.5 102q36.5 24 57 66t20.5 95q0 52 -20.5 94.5t-57 66.5t-83.5 24t-83.5 -24t-57 -66.5t-20.5 -94.5q0 -53 20.5 -95t57 -66t83.5 -24t83.5 24z" />
    <glyph glyph-name="uni1E0D" unicode="&#x1e0d;" horiz-adv-x="614" 
d="M530.5 726.5q13.5 -13.5 13.5 -34.5v-644q0 -20 -13.5 -34t-34.5 -14t-34 13.5t-13 34.5v28q-25 -36 -70.5 -61t-97.5 -25q-68 0 -123 35t-87 97.5t-32 140.5t31.5 140.5t86.5 97.5t121 35q53 0 98 -22t73 -57v235q0 21 13 34.5t34 13.5t34.5 -13.5zM375.5 102
q36.5 24 57 66t20.5 95q0 52 -20.5 94.5t-57 66.5t-83.5 24t-83.5 -24t-57 -66.5t-20.5 -94.5q0 -53 20.5 -95t57 -66t83.5 -24t83.5 24zM266.5 -140.5q-12.5 10.5 -12.5 34.5v15q0 45 53 45q30 0 42.5 -10.5t12.5 -34.5v-15q0 -24 -13 -34.5t-42 -10.5q-28 0 -40.5 10.5z
" />
    <glyph glyph-name="uni1E0F" unicode="&#x1e0f;" horiz-adv-x="614" 
d="M530.5 726.5q13.5 -13.5 13.5 -34.5v-644q0 -20 -13.5 -34t-34.5 -14t-34 13.5t-13 34.5v28q-25 -36 -70.5 -61t-97.5 -25q-68 0 -123 35t-87 97.5t-32 140.5t31.5 140.5t86.5 97.5t121 35q53 0 98 -22t73 -57v235q0 21 13 34.5t34 13.5t34.5 -13.5zM375.5 102
q36.5 24 57 66t20.5 95q0 52 -20.5 94.5t-57 66.5t-83.5 24t-83.5 -24t-57 -66.5t-20.5 -94.5q0 -53 20.5 -95t57 -66t83.5 -24t83.5 24zM156.5 -128.5q-10.5 9.5 -10.5 27.5q0 17 10.5 26.5t30.5 9.5h238q20 0 30.5 -9.5t10.5 -26.5q0 -37 -41 -37h-238q-20 0 -30.5 9.5z
" />
    <glyph glyph-name="uni01C6" unicode="&#x1c6;" horiz-adv-x="1096" 
d="M530.5 726.5q13.5 -13.5 13.5 -34.5v-644q0 -20 -13.5 -34t-34.5 -14t-34 13.5t-13 34.5v28q-25 -36 -70.5 -61t-97.5 -25q-68 0 -123 35t-87 97.5t-32 140.5t31.5 140.5t86.5 97.5t121 35q53 0 98 -22t73 -57v235q0 21 13 34.5t34 13.5t34.5 -13.5zM375.5 102
q36.5 24 57 66t20.5 95q0 52 -20.5 94.5t-57 66.5t-83.5 24t-83.5 -24t-57 -66.5t-20.5 -94.5q0 -53 20.5 -95t57 -66t83.5 -24t83.5 24zM1049 75.5q13 -12.5 13 -31.5t-13 -31.5t-32 -12.5h-323q-19 0 -31.5 14t-12.5 29q1 13 4 21.5t11 19.5l262 350h-217q-19 0 -32 13
t-13 32t12.5 31t32.5 12h307q19 0 31.5 -14t11.5 -34q-1 -10 -3.5 -17.5t-10.5 -16.5l-264 -352h235q19 0 32 -12.5zM984 718.5q8 -6.5 8 -14.5q0 -14 -13 -28l-55 -65q-18 -24 -50 -24h-28q-16 0 -27.5 5.5t-21.5 18.5l-56 65q-10 13 -10 25q0 11 8.5 17.5t23.5 6.5t37 -19
l62 -52l60 52q12 10 21 14.5t23 4.5q10 0 18 -6.5z" />
    <glyph glyph-name="e" unicode="e" horiz-adv-x="570" 
d="M516 251.5q-14 -12.5 -33 -12.5h-352q7 -73 55.5 -117t118.5 -44q48 0 78 14t53 36q15 9 29 9q17 0 28.5 -12t11.5 -28q0 -21 -20 -38q-29 -29 -77 -49t-98 -20q-81 0 -142.5 34t-95 95t-33.5 138q0 84 34.5 147.5t91 97.5t121.5 34q64 0 120 -33t90 -91t35 -130
q-1 -18 -15 -30.5zM189 416.5q-41 -31.5 -54 -97.5h295v8q-5 53 -47.5 87t-96.5 34q-56 0 -97 -31.5z" />
    <glyph glyph-name="eacute" unicode="&#xe9;" horiz-adv-x="570" 
d="M516 251.5q-14 -12.5 -33 -12.5h-352q7 -73 55.5 -117t118.5 -44q48 0 78 14t53 36q15 9 29 9q17 0 28.5 -12t11.5 -28q0 -21 -20 -38q-29 -29 -77 -49t-98 -20q-81 0 -142.5 34t-95 95t-33.5 138q0 84 34.5 147.5t91 97.5t121.5 34q64 0 120 -33t90 -91t35 -130
q-1 -18 -15 -30.5zM189 416.5q-41 -31.5 -54 -97.5h295v8q-5 53 -47.5 87t-96.5 34q-56 0 -97 -31.5zM266 568q-9 7 -8 19q0 8 6 18l59 99q8 14 19.5 23t26.5 9q22 0 33.5 -11.5t10.5 -30.5q0 -18 -15 -35l-75 -82q-16 -16 -40 -16q-8 0 -17 7z" />
    <glyph glyph-name="ebreve" unicode="&#x115;" horiz-adv-x="570" 
d="M516 251.5q-14 -12.5 -33 -12.5h-352q7 -73 55.5 -117t118.5 -44q48 0 78 14t53 36q15 9 29 9q17 0 28.5 -12t11.5 -28q0 -21 -20 -38q-29 -29 -77 -49t-98 -20q-81 0 -142.5 34t-95 95t-33.5 138q0 84 34.5 147.5t91 97.5t121.5 34q64 0 120 -33t90 -91t35 -130
q-1 -18 -15 -30.5zM189 416.5q-41 -31.5 -54 -97.5h295v8q-5 53 -47.5 87t-96.5 34q-56 0 -97 -31.5zM189 600q-40 29 -53 76q-3 8 -3 15q0 13 8 20.5t21 7.5q17 0 27 -7.5t21 -23.5q9 -23 28 -35t45 -12t44.5 12.5t28.5 34.5q11 16 21 23.5t26 7.5q13 0 21.5 -7.5
t8.5 -19.5q0 -7 -3 -15q-13 -48 -53 -77t-94 -29t-94 29z" />
    <glyph glyph-name="ecaron" unicode="&#x11b;" horiz-adv-x="570" 
d="M516 251.5q-14 -12.5 -33 -12.5h-352q7 -73 55.5 -117t118.5 -44q48 0 78 14t53 36q15 9 29 9q17 0 28.5 -12t11.5 -28q0 -21 -20 -38q-29 -29 -77 -49t-98 -20q-81 0 -142.5 34t-95 95t-33.5 138q0 84 34.5 147.5t91 97.5t121.5 34q64 0 120 -33t90 -91t35 -130
q-1 -18 -15 -30.5zM189 416.5q-41 -31.5 -54 -97.5h295v8q-5 53 -47.5 87t-96.5 34q-56 0 -97 -31.5zM408 718.5q8 -6.5 8 -14.5q0 -14 -13 -28l-55 -65q-18 -24 -50 -24h-28q-16 0 -27.5 5.5t-21.5 18.5l-56 65q-10 13 -10 25q0 11 8.5 17.5t23.5 6.5t37 -19l62 -52l60 52
q12 10 21 14.5t23 4.5q10 0 18 -6.5z" />
    <glyph glyph-name="uni1E1D" unicode="&#x1e1d;" horiz-adv-x="570" 
d="M189 600q-40 29 -53 76q-3 8 -3 15q0 13 8 20.5t21 7.5q17 0 27 -7.5t21 -23.5q9 -23 28 -35t45 -12t44.5 12.5t28.5 34.5q11 16 21 23.5t26 7.5q13 0 21.5 -7.5t8.5 -19.5q0 -7 -3 -15q-13 -48 -53 -77t-94 -29t-94 29zM516 251.5q-14 -12.5 -33 -12.5h-352
q7 -73 55.5 -117t118.5 -44q48 0 78 14t53 36q15 9 29 9q17 0 28.5 -12t11.5 -28q0 -21 -20 -38q-24 -24 -61 -42t-78 -24l-46 -114q-10 -27 -34 -27q-17 0 -36.5 11.5t-19.5 28.5q0 14 10 25l57 75q-72 6 -126 42t-83 93.5t-29 129.5q0 84 34.5 147.5t91 97.5t121.5 34
q64 0 120 -33t90 -91t35 -130q-1 -18 -15 -30.5zM189 416.5q-41 -31.5 -54 -97.5h295v8q-5 53 -47.5 87t-96.5 34q-56 0 -97 -31.5z" />
    <glyph glyph-name="ecircumflex" unicode="&#xea;" horiz-adv-x="570" 
d="M516 251.5q-14 -12.5 -33 -12.5h-352q7 -73 55.5 -117t118.5 -44q48 0 78 14t53 36q15 9 29 9q17 0 28.5 -12t11.5 -28q0 -21 -20 -38q-29 -29 -77 -49t-98 -20q-81 0 -142.5 34t-95 95t-33.5 138q0 84 34.5 147.5t91 97.5t121.5 34q64 0 120 -33t90 -91t35 -130
q-1 -18 -15 -30.5zM189 416.5q-41 -31.5 -54 -97.5h295v8q-5 53 -47.5 87t-96.5 34q-56 0 -97 -31.5zM413 623q2 -5 2 -12q0 -9 -7 -15t-18 -6q-13 0 -19 3.5t-20 15.5l-64 54l-65 -54q-3 -3 -10.5 -9t-14 -8.5t-15.5 -2.5q-10 0 -17 6.5t-7 14.5t2 13t8 12l59 70
q18 24 50 24h27q16 0 26 -5t19 -19l56 -69q6 -8 8 -13z" />
    <glyph glyph-name="uni1EBF" unicode="&#x1ebf;" horiz-adv-x="570" 
d="M516 251.5q-14 -12.5 -33 -12.5h-352q7 -73 55.5 -117t118.5 -44q48 0 78 14t53 36q15 9 29 9q17 0 28.5 -12t11.5 -28q0 -21 -20 -38q-29 -29 -77 -49t-98 -20q-81 0 -142.5 34t-95 95t-33.5 138q0 84 34.5 147.5t91 97.5t121.5 34q64 0 120 -33t90 -91t35 -130
q-1 -18 -15 -30.5zM189 416.5q-41 -31.5 -54 -97.5h295v8q-5 53 -47.5 87t-96.5 34q-56 0 -97 -31.5zM405 621q2 -5 2 -12q0 -9 -7 -15t-18 -6q-13 0 -19 3.5t-20 15.5l-64 54l-65 -54q-3 -3 -10.5 -9t-14 -8.5t-15.5 -2.5q-10 0 -17 6.5t-7 14.5t2 13t8 12l59 70
q18 24 50 24h27q16 0 26 -5t19 -19l56 -69q6 -8 8 -13zM393 675q-9 7 -8 19q0 8 6 18l59 99q8 14 19.5 23t26.5 9q22 0 33.5 -11.5t10.5 -30.5q0 -18 -15 -35l-75 -82q-16 -16 -40 -16q-8 0 -17 7z" />
    <glyph glyph-name="uni1EC7" unicode="&#x1ec7;" horiz-adv-x="570" 
d="M516 251.5q-14 -12.5 -33 -12.5h-352q7 -73 55.5 -117t118.5 -44q48 0 78 14t53 36q15 9 29 9q17 0 28.5 -12t11.5 -28q0 -21 -20 -38q-29 -29 -77 -49t-98 -20q-81 0 -142.5 34t-95 95t-33.5 138q0 84 34.5 147.5t91 97.5t121.5 34q64 0 120 -33t90 -91t35 -130
q-1 -18 -15 -30.5zM189 416.5q-41 -31.5 -54 -97.5h295v8q-5 53 -47.5 87t-96.5 34q-56 0 -97 -31.5zM243.5 -140.5q-12.5 10.5 -12.5 34.5v15q0 45 53 45q30 0 42.5 -10.5t12.5 -34.5v-15q0 -24 -13 -34.5t-42 -10.5q-28 0 -40.5 10.5zM413 623q2 -5 2 -12q0 -9 -7 -15
t-18 -6q-13 0 -19 3.5t-20 15.5l-64 54l-65 -54q-3 -3 -10.5 -9t-14 -8.5t-15.5 -2.5q-10 0 -17 6.5t-7 14.5t2 13t8 12l59 70q18 24 50 24h27q16 0 26 -5t19 -19l56 -69q6 -8 8 -13z" />
    <glyph glyph-name="uni1EC1" unicode="&#x1ec1;" horiz-adv-x="570" 
d="M516 251.5q-14 -12.5 -33 -12.5h-352q7 -73 55.5 -117t118.5 -44q48 0 78 14t53 36q15 9 29 9q17 0 28.5 -12t11.5 -28q0 -21 -20 -38q-29 -29 -77 -49t-98 -20q-81 0 -142.5 34t-95 95t-33.5 138q0 84 34.5 147.5t91 97.5t121.5 34q64 0 120 -33t90 -91t35 -130
q-1 -18 -15 -30.5zM189 416.5q-41 -31.5 -54 -97.5h295v8q-5 53 -47.5 87t-96.5 34q-56 0 -97 -31.5zM403 621q2 -5 2 -12q0 -9 -7 -15t-18 -6q-13 0 -19 3.5t-20 15.5l-64 54l-65 -54q-3 -3 -10.5 -9t-14 -8.5t-15.5 -2.5q-10 0 -17 6.5t-7 14.5t2 13t8 12l59 70
q18 24 50 24h27q16 0 26 -5t19 -19l56 -69q6 -8 8 -13zM393 718l-91 62q-27 15 -27 41q0 18 13.5 29.5t29.5 11.5q22 0 42 -20l78 -81q11 -11 11 -23q0 -13 -9 -20.5t-23 -7.5q-8 0 -24 8z" />
    <glyph glyph-name="uni1EC3" unicode="&#x1ec3;" horiz-adv-x="570" 
d="M516 251.5q-14 -12.5 -33 -12.5h-352q7 -73 55.5 -117t118.5 -44q48 0 78 14t53 36q15 9 29 9q17 0 28.5 -12t11.5 -28q0 -21 -20 -38q-29 -29 -77 -49t-98 -20q-81 0 -142.5 34t-95 95t-33.5 138q0 84 34.5 147.5t91 97.5t121.5 34q64 0 120 -33t90 -91t35 -130
q-1 -18 -15 -30.5zM189 416.5q-41 -31.5 -54 -97.5h295v8q-5 53 -47.5 87t-96.5 34q-56 0 -97 -31.5zM410 605q2 -5 2 -12q0 -9 -7 -15t-18 -6q-13 0 -19 3.5t-20 15.5l-64 54l-65 -54q-3 -3 -10.5 -9t-14 -8.5t-15.5 -2.5q-10 0 -17 6.5t-7 14.5t2 13t8 12l59 70
q18 24 50 24h27q16 0 26 -5t19 -19l56 -69q6 -8 8 -13zM424 832q51 0 72.5 -25t21.5 -57q0 -16 -6 -29t-19 -28q-7 -8 -13 -17t-6 -16q0 -10 -8.5 -17t-20.5 -7t-20 7t-8 18q0 21 15 39q14 17 20 26t6 18q0 12 -10.5 20t-24.5 8q-12 0 -22 -4.5t-22 -12.5q-9 -7 -17 -7
q-11 0 -21 11q-7 7 -7 17q0 13 13 26q35 30 77 30z" />
    <glyph glyph-name="uni1EC5" unicode="&#x1ec5;" horiz-adv-x="570" 
d="M516 251.5q-14 -12.5 -33 -12.5h-352q7 -73 55.5 -117t118.5 -44q48 0 78 14t53 36q15 9 29 9q17 0 28.5 -12t11.5 -28q0 -21 -20 -38q-29 -29 -77 -49t-98 -20q-81 0 -142.5 34t-95 95t-33.5 138q0 84 34.5 147.5t91 97.5t121.5 34q64 0 120 -33t90 -91t35 -130
q-1 -18 -15 -30.5zM189 416.5q-41 -31.5 -54 -97.5h295v8q-5 53 -47.5 87t-96.5 34q-56 0 -97 -31.5zM409 597q2 -5 2 -12q0 -9 -7 -15t-18 -6q-13 0 -19 3.5t-20 15.5l-64 54l-65 -54q-3 -3 -10.5 -9t-14 -8.5t-15.5 -2.5q-10 0 -17 6.5t-7 14.5t2 13t8 12l59 70
q18 24 50 24h27q16 0 26 -5t19 -19l56 -69q6 -8 8 -13zM125.5 731q-11.5 15 -10.5 43q3 34 32 57t78 23q22 0 42 -9.5t48 -27.5q18 -12 30 -18.5t22 -6.5q12 0 19 7.5t6 20.5q-1 3 -1 10q0 13 9 21t22 8q20 0 31.5 -15t10.5 -41q-3 -33 -28.5 -57.5t-73.5 -24.5
q-18 0 -37.5 8.5t-48.5 25.5q-22 13 -36.5 20t-25.5 7q-12 0 -19.5 -7t-7.5 -21q1 -3 1 -8q0 -14 -9 -22t-22 -8q-20 0 -31.5 15z" />
    <glyph glyph-name="uni0205" unicode="&#x205;" horiz-adv-x="570" 
d="M516 251.5q-14 -12.5 -33 -12.5h-352q7 -73 55.5 -117t118.5 -44q48 0 78 14t53 36q15 9 29 9q17 0 28.5 -12t11.5 -28q0 -21 -20 -38q-29 -29 -77 -49t-98 -20q-81 0 -142.5 34t-95 95t-33.5 138q0 84 34.5 147.5t91 97.5t121.5 34q64 0 120 -33t90 -91t35 -130
q-1 -18 -15 -30.5zM189 416.5q-41 -31.5 -54 -97.5h295v8q-5 53 -47.5 87t-96.5 34q-56 0 -97 -31.5zM195 606l-91 62q-28 16 -28 41q0 18 13.5 29.5t30.5 11.5q21 0 41 -20l79 -81q11 -11 11 -23q0 -13 -9 -20.5t-23 -7.5q-10 0 -24 8zM363 606l-91 62q-28 16 -28 41
q0 18 13.5 29.5t29.5 11.5q22 0 42 -20l79 -81q11 -11 11 -23q0 -13 -9 -20.5t-23 -7.5q-10 0 -24 8z" />
    <glyph glyph-name="edieresis" unicode="&#xeb;" horiz-adv-x="570" 
d="M516 251.5q-14 -12.5 -33 -12.5h-352q7 -73 55.5 -117t118.5 -44q48 0 78 14t53 36q15 9 29 9q17 0 28.5 -12t11.5 -28q0 -21 -20 -38q-29 -29 -77 -49t-98 -20q-81 0 -142.5 34t-95 95t-33.5 138q0 84 34.5 147.5t91 97.5t121.5 34q64 0 120 -33t90 -91t35 -130
q-1 -18 -15 -30.5zM189 416.5q-41 -31.5 -54 -97.5h295v8q-5 53 -47.5 87t-96.5 34q-56 0 -97 -31.5zM148 608q-13 11 -13 35v15q0 45 52 45q29 0 42 -10.5t13 -34.5v-15q0 -25 -13.5 -35.5t-41.5 -10.5q-26 0 -39 11zM336 608q-13 11 -13 35v15q0 45 53 45q28 0 40.5 -10.5
t12.5 -34.5v-15q0 -25 -13 -35.5t-41 -10.5q-26 0 -39 11z" />
    <glyph glyph-name="edotaccent" unicode="&#x117;" horiz-adv-x="570" 
d="M516 251.5q-14 -12.5 -33 -12.5h-352q7 -73 55.5 -117t118.5 -44q48 0 78 14t53 36q15 9 29 9q17 0 28.5 -12t11.5 -28q0 -21 -20 -38q-29 -29 -77 -49t-98 -20q-81 0 -142.5 34t-95 95t-33.5 138q0 84 34.5 147.5t91 97.5t121.5 34q64 0 120 -33t90 -91t35 -130
q-1 -18 -15 -30.5zM189 416.5q-41 -31.5 -54 -97.5h295v8q-5 53 -47.5 87t-96.5 34q-56 0 -97 -31.5zM244.5 605.5q-12.5 10.5 -12.5 33.5v16q0 24 13.5 34t41.5 10t40.5 -10.5t12.5 -33.5v-16q0 -24 -13 -34t-41 -10q-29 0 -41.5 10.5z" />
    <glyph glyph-name="uni1EB9" unicode="&#x1eb9;" horiz-adv-x="570" 
d="M516 251.5q-14 -12.5 -33 -12.5h-352q7 -73 55.5 -117t118.5 -44q48 0 78 14t53 36q15 9 29 9q17 0 28.5 -12t11.5 -28q0 -21 -20 -38q-29 -29 -77 -49t-98 -20q-81 0 -142.5 34t-95 95t-33.5 138q0 84 34.5 147.5t91 97.5t121.5 34q64 0 120 -33t90 -91t35 -130
q-1 -18 -15 -30.5zM189 416.5q-41 -31.5 -54 -97.5h295v8q-5 53 -47.5 87t-96.5 34q-56 0 -97 -31.5zM243.5 -140.5q-12.5 10.5 -12.5 34.5v15q0 45 53 45q30 0 42.5 -10.5t12.5 -34.5v-15q0 -24 -13 -34.5t-42 -10.5q-28 0 -40.5 10.5z" />
    <glyph glyph-name="egrave" unicode="&#xe8;" horiz-adv-x="570" 
d="M516 251.5q-14 -12.5 -33 -12.5h-352q7 -73 55.5 -117t118.5 -44q48 0 78 14t53 36q15 9 29 9q17 0 28.5 -12t11.5 -28q0 -21 -20 -38q-29 -29 -77 -49t-98 -20q-81 0 -142.5 34t-95 95t-33.5 138q0 84 34.5 147.5t91 97.5t121.5 34q64 0 120 -33t90 -91t35 -130
q-1 -18 -15 -30.5zM189 416.5q-41 -31.5 -54 -97.5h295v8q-5 53 -47.5 87t-96.5 34q-56 0 -97 -31.5zM264 573l-91 62q-27 15 -27 41q0 18 13.5 29.5t29.5 11.5q22 0 42 -20l78 -81q11 -11 11 -23q0 -13 -9 -20.5t-23 -7.5q-8 0 -24 8z" />
    <glyph glyph-name="uni1EBB" unicode="&#x1ebb;" horiz-adv-x="570" 
d="M516 251.5q-14 -12.5 -33 -12.5h-352q7 -73 55.5 -117t118.5 -44q48 0 78 14t53 36q15 9 29 9q17 0 28.5 -12t11.5 -28q0 -21 -20 -38q-29 -29 -77 -49t-98 -20q-81 0 -142.5 34t-95 95t-33.5 138q0 84 34.5 147.5t91 97.5t121.5 34q64 0 120 -33t90 -91t35 -130
q-1 -18 -15 -30.5zM189 416.5q-41 -31.5 -54 -97.5h295v8q-5 53 -47.5 87t-96.5 34q-56 0 -97 -31.5zM274 758q51 0 72.5 -25t21.5 -57q0 -16 -6 -29t-19 -28q-7 -8 -13 -17t-6 -16q0 -10 -8.5 -17t-20.5 -7t-20 7t-8 18q0 21 15 39q14 17 20 26t6 18q0 12 -10.5 20t-24.5 8
q-12 0 -22 -4.5t-22 -12.5q-9 -7 -17 -7q-11 0 -21 11q-7 7 -7 17q0 13 13 26q35 30 77 30z" />
    <glyph glyph-name="uni0207" unicode="&#x207;" horiz-adv-x="570" 
d="M516 251.5q-14 -12.5 -33 -12.5h-352q7 -73 55.5 -117t118.5 -44q48 0 78 14t53 36q15 9 29 9q17 0 28.5 -12t11.5 -28q0 -21 -20 -38q-29 -29 -77 -49t-98 -20q-81 0 -142.5 34t-95 95t-33.5 138q0 84 34.5 147.5t91 97.5t121.5 34q64 0 120 -33t90 -91t35 -130
q-1 -18 -15 -30.5zM189 416.5q-41 -31.5 -54 -97.5h295v8q-5 53 -47.5 87t-96.5 34q-56 0 -97 -31.5zM383 708.5q40 -28.5 53 -76.5q3 -7 3 -15q0 -13 -8 -20.5t-21 -7.5q-17 0 -27 7.5t-21 23.5q-9 23 -28 35t-45 12t-44.5 -12.5t-28.5 -34.5q-11 -16 -21 -23.5t-26 -7.5
q-13 0 -21.5 7.5t-8.5 19.5q0 8 3 15q13 48 53 77t94 29t94 -28.5z" />
    <glyph glyph-name="emacron" unicode="&#x113;" horiz-adv-x="570" 
d="M516 251.5q-14 -12.5 -33 -12.5h-352q7 -73 55.5 -117t118.5 -44q48 0 78 14t53 36q15 9 29 9q17 0 28.5 -12t11.5 -28q0 -21 -20 -38q-29 -29 -77 -49t-98 -20q-81 0 -142.5 34t-95 95t-33.5 138q0 84 34.5 147.5t91 97.5t121.5 34q64 0 120 -33t90 -91t35 -130
q-1 -18 -15 -30.5zM189 416.5q-41 -31.5 -54 -97.5h295v8q-5 53 -47.5 87t-96.5 34q-56 0 -97 -31.5zM135 611q-11 10 -11 28q0 17 10.5 26.5t30.5 9.5h241q20 0 30.5 -9.5t10.5 -26.5q0 -18 -10.5 -28t-30.5 -10h-241q-19 0 -30 10z" />
    <glyph glyph-name="uni1E17" unicode="&#x1e17;" horiz-adv-x="570" 
d="M516 251.5q-14 -12.5 -33 -12.5h-352q7 -73 55.5 -117t118.5 -44q48 0 78 14t53 36q15 9 29 9q17 0 28.5 -12t11.5 -28q0 -21 -20 -38q-29 -29 -77 -49t-98 -20q-81 0 -142.5 34t-95 95t-33.5 138q0 84 34.5 147.5t91 97.5t121.5 34q64 0 120 -33t90 -91t35 -130
q-1 -18 -15 -30.5zM189 416.5q-41 -31.5 -54 -97.5h295v8q-5 53 -47.5 87t-96.5 34q-56 0 -97 -31.5zM135 611q-11 10 -11 28q0 17 10.5 26.5t30.5 9.5h241q20 0 30.5 -9.5t10.5 -26.5q0 -18 -10.5 -28t-30.5 -10h-241q-19 0 -30 10zM266 746q-9 7 -8 19q0 8 6 18l59 99
q8 14 19.5 23t26.5 9q22 0 33.5 -11.5t10.5 -30.5q0 -18 -15 -35l-75 -82q-16 -16 -40 -16q-8 0 -17 7z" />
    <glyph glyph-name="uni1E15" unicode="&#x1e15;" horiz-adv-x="570" 
d="M516 251.5q-14 -12.5 -33 -12.5h-352q7 -73 55.5 -117t118.5 -44q48 0 78 14t53 36q15 9 29 9q17 0 28.5 -12t11.5 -28q0 -21 -20 -38q-29 -29 -77 -49t-98 -20q-81 0 -142.5 34t-95 95t-33.5 138q0 84 34.5 147.5t91 97.5t121.5 34q64 0 120 -33t90 -91t35 -130
q-1 -18 -15 -30.5zM189 416.5q-41 -31.5 -54 -97.5h295v8q-5 53 -47.5 87t-96.5 34q-56 0 -97 -31.5zM135 611q-11 10 -11 28q0 17 10.5 26.5t30.5 9.5h241q20 0 30.5 -9.5t10.5 -26.5q0 -18 -10.5 -28t-30.5 -10h-241q-19 0 -30 10zM264 751l-91 62q-27 15 -27 41
q0 18 13.5 29.5t29.5 11.5q22 0 42 -20l78 -81q11 -11 11 -23q0 -13 -9 -20.5t-23 -7.5q-8 0 -24 8z" />
    <glyph glyph-name="eogonek" unicode="&#x119;" horiz-adv-x="570" 
d="M516 251.5q-14 -12.5 -33 -12.5h-352q7 -73 55.5 -117t118.5 -44q48 0 78 14t53 36q13 9 29 9q18 0 30 -14t12 -29q0 -21 -21 -36l-39.5 -34t-48 -53.5t-15.5 -51.5q0 -20 11 -32t28 -12q16 0 25 12q12 17 34 17q15 0 25 -10t10 -27q0 -15 -15 -30.5t-38.5 -26
t-48.5 -10.5q-47 0 -79 26.5t-32 75.5q0 53 39 90q-22 -2 -32 -2q-81 0 -142.5 34t-95 95t-33.5 138q0 84 34.5 147.5t91 97.5t121.5 34q64 0 120 -33t90 -91t35 -130q-1 -18 -15 -30.5zM187.5 416.5q-40.5 -31.5 -52.5 -97.5h295v8q-5 53 -47.5 87t-96.5 34
q-58 0 -98.5 -31.5z" />
    <glyph glyph-name="uni1EBD" unicode="&#x1ebd;" horiz-adv-x="570" 
d="M516 251.5q-14 -12.5 -33 -12.5h-352q7 -73 55.5 -117t118.5 -44q48 0 78 14t53 36q15 9 29 9q17 0 28.5 -12t11.5 -28q0 -21 -20 -38q-29 -29 -77 -49t-98 -20q-81 0 -142.5 34t-95 95t-33.5 138q0 84 34.5 147.5t91 97.5t121.5 34q64 0 120 -33t90 -91t35 -130
q-1 -18 -15 -30.5zM189 416.5q-41 -31.5 -54 -97.5h295v8q-5 53 -47.5 87t-96.5 34q-56 0 -97 -31.5zM122.5 601q-11.5 15 -10.5 43q3 34 32 57t78 23q22 0 42 -9.5t48 -27.5q18 -12 30 -18.5t22 -6.5q12 0 19 7.5t6 20.5q-1 3 -1 10q0 13 9 21t22 8q20 0 31.5 -15t10.5 -41
q-3 -33 -28.5 -57.5t-73.5 -24.5q-18 0 -37.5 8.5t-48.5 25.5q-22 13 -36.5 20t-25.5 7q-12 0 -19.5 -7t-7.5 -21q1 -3 1 -8q0 -14 -9 -22t-22 -8q-20 0 -31.5 15z" />
    <glyph glyph-name="uni0259" unicode="&#x259;" horiz-adv-x="570" 
d="M402.5 487q61.5 -34 95 -95t33.5 -138q0 -84 -34.5 -147.5t-91 -97.5t-121.5 -34q-64 0 -120 33t-90 91t-35 130q1 18 15 30.5t33 12.5h352q-7 73 -55.5 117t-118.5 44q-48 0 -78 -14t-53 -36q-15 -9 -29 -9q-17 0 -28.5 12t-11.5 28q0 21 20 38q29 29 77 49t98 20
q81 0 142.5 -34zM381 94.5q41 31.5 54 97.5h-295v-8q5 -53 47.5 -87t96.5 -34q56 0 97 31.5z" />
    <glyph glyph-name="f" unicode="f" horiz-adv-x="390" 
d="M246.5 634q-15.5 -20 -15.5 -49v-70h99q20 0 32.5 -12.5t12.5 -31.5t-12.5 -31t-32.5 -12h-99v-380q0 -20 -13.5 -34t-34.5 -14q-20 0 -33.5 14t-13.5 34v380h-62q-19 0 -32 12t-13 31t13 31.5t32 12.5h62v70q0 70 45 111.5t127 41.5q34 0 60 -12.5t26 -37.5
q0 -19 -11.5 -31.5t-27.5 -12.5q-4 0 -22 4q-22 6 -38 6q-33 0 -48.5 -20z" />
    <glyph glyph-name="g" unicode="g" horiz-adv-x="627" 
d="M543.5 517.5q13.5 -13.5 13.5 -35.5v-440q0 -81 -34.5 -135.5t-93.5 -80.5t-133 -26q-40 0 -93.5 14t-68.5 29q-31 16 -31 40q0 6 4 16q11 25 37 25q13 0 28 -6q80 -31 125 -31q80 0 122.5 38.5t42.5 105.5v54q-21 -39 -70.5 -67t-104.5 -28q-69 0 -126 35t-89.5 97.5
t-32.5 140.5t32.5 140.5t89 97.5t124.5 35q55 0 102.5 -25t74.5 -61v32q0 21 13 35t34 14t34.5 -13.5zM385 101.5q38 23.5 59.5 66t21.5 95.5t-21.5 95t-59.5 66t-87 24q-48 0 -86 -24t-59.5 -66.5t-21.5 -94.5t21.5 -94.5t59.5 -66.5t86 -24q49 0 87 23.5z" />
    <glyph glyph-name="gbreve" unicode="&#x11f;" horiz-adv-x="627" 
d="M543.5 517.5q13.5 -13.5 13.5 -35.5v-440q0 -81 -34.5 -135.5t-93.5 -80.5t-133 -26q-40 0 -93.5 14t-68.5 29q-31 16 -31 40q0 6 4 16q11 25 37 25q13 0 28 -6q80 -31 125 -31q80 0 122.5 38.5t42.5 105.5v54q-21 -39 -70.5 -67t-104.5 -28q-69 0 -126 35t-89.5 97.5
t-32.5 140.5t32.5 140.5t89 97.5t124.5 35q55 0 102.5 -25t74.5 -61v32q0 21 13 35t34 14t34.5 -13.5zM385 101.5q38 23.5 59.5 66t21.5 95.5t-21.5 95t-59.5 66t-87 24q-48 0 -86 -24t-59.5 -66.5t-21.5 -94.5t21.5 -94.5t59.5 -66.5t86 -24q49 0 87 23.5zM217 600
q-40 29 -53 76q-3 8 -3 15q0 13 8 20.5t21 7.5q17 0 27 -7.5t21 -23.5q9 -23 28 -35t45 -12t44.5 12.5t28.5 34.5q11 16 21 23.5t26 7.5q13 0 21.5 -7.5t8.5 -19.5q0 -7 -3 -15q-13 -48 -53 -77t-94 -29t-94 29z" />
    <glyph glyph-name="gcaron" unicode="&#x1e7;" horiz-adv-x="627" 
d="M543.5 517.5q13.5 -13.5 13.5 -35.5v-440q0 -81 -34.5 -135.5t-93.5 -80.5t-133 -26q-40 0 -93.5 14t-68.5 29q-31 16 -31 40q0 6 4 16q11 25 37 25q13 0 28 -6q80 -31 125 -31q80 0 122.5 38.5t42.5 105.5v54q-21 -39 -70.5 -67t-104.5 -28q-69 0 -126 35t-89.5 97.5
t-32.5 140.5t32.5 140.5t89 97.5t124.5 35q55 0 102.5 -25t74.5 -61v32q0 21 13 35t34 14t34.5 -13.5zM385 101.5q38 23.5 59.5 66t21.5 95.5t-21.5 95t-59.5 66t-87 24q-48 0 -86 -24t-59.5 -66.5t-21.5 -94.5t21.5 -94.5t59.5 -66.5t86 -24q49 0 87 23.5zM436 718.5
q8 -6.5 8 -14.5q0 -14 -13 -28l-55 -65q-18 -24 -50 -24h-28q-16 0 -27.5 5.5t-21.5 18.5l-56 65q-10 13 -10 25q0 11 8.5 17.5t23.5 6.5t37 -19l62 -52l60 52q12 10 21 14.5t23 4.5q10 0 18 -6.5z" />
    <glyph glyph-name="gcircumflex" unicode="&#x11d;" horiz-adv-x="627" 
d="M543.5 517.5q13.5 -13.5 13.5 -35.5v-440q0 -81 -34.5 -135.5t-93.5 -80.5t-133 -26q-40 0 -93.5 14t-68.5 29q-31 16 -31 40q0 6 4 16q11 25 37 25q13 0 28 -6q80 -31 125 -31q80 0 122.5 38.5t42.5 105.5v54q-21 -39 -70.5 -67t-104.5 -28q-69 0 -126 35t-89.5 97.5
t-32.5 140.5t32.5 140.5t89 97.5t124.5 35q55 0 102.5 -25t74.5 -61v32q0 21 13 35t34 14t34.5 -13.5zM385 101.5q38 23.5 59.5 66t21.5 95.5t-21.5 95t-59.5 66t-87 24q-48 0 -86 -24t-59.5 -66.5t-21.5 -94.5t21.5 -94.5t59.5 -66.5t86 -24q49 0 87 23.5zM441 623
q2 -5 2 -12q0 -9 -7 -15t-18 -6q-13 0 -19 3.5t-20 15.5l-64 54l-65 -54q-3 -3 -10.5 -9t-14 -8.5t-15.5 -2.5q-10 0 -17 6.5t-7 14.5t2 13t8 12l59 70q18 24 50 24h27q16 0 26 -5t19 -19l56 -69q6 -8 8 -13z" />
    <glyph glyph-name="gcommaaccent" unicode="&#x123;" horiz-adv-x="627" 
d="M274 606q-21 23 -21 64q0 25 16 57.5t40.5 55.5t50.5 23q17 0 28 -8.5t11 -24.5q0 -14 -7 -19.5t-16.5 -8.5t-14.5 -5q-14 -7 -21.5 -18.5t-7.5 -25.5q0 -11 9 -19t23 -8q16 0 27 8q10 -5 15 -12.5t5 -20.5q-1 -24 -26 -42.5t-53 -18.5q-37 0 -58 23zM543.5 517.5
q13.5 -13.5 13.5 -35.5v-440q0 -81 -34.5 -135.5t-93.5 -80.5t-133 -26q-40 0 -93.5 14t-68.5 29q-31 16 -31 40q0 6 4 16q11 25 37 25q13 0 28 -6q80 -31 125 -31q80 0 122.5 38.5t42.5 105.5v54q-21 -39 -70.5 -67t-104.5 -28q-69 0 -126 35t-89.5 97.5t-32.5 140.5
t32.5 140.5t89 97.5t124.5 35q55 0 102.5 -25t74.5 -61v32q0 21 13 35t34 14t34.5 -13.5zM385 101.5q38 23.5 59.5 66t21.5 95.5t-21.5 95t-59.5 66t-87 24q-48 0 -86 -24t-59.5 -66.5t-21.5 -94.5t21.5 -94.5t59.5 -66.5t86 -24q49 0 87 23.5z" />
    <glyph glyph-name="gdotaccent" unicode="&#x121;" horiz-adv-x="627" 
d="M543.5 517.5q13.5 -13.5 13.5 -35.5v-440q0 -81 -34.5 -135.5t-93.5 -80.5t-133 -26q-40 0 -93.5 14t-68.5 29q-31 16 -31 40q0 6 4 16q11 25 37 25q13 0 28 -6q80 -31 125 -31q80 0 122.5 38.5t42.5 105.5v54q-21 -39 -70.5 -67t-104.5 -28q-69 0 -126 35t-89.5 97.5
t-32.5 140.5t32.5 140.5t89 97.5t124.5 35q55 0 102.5 -25t74.5 -61v32q0 21 13 35t34 14t34.5 -13.5zM385 101.5q38 23.5 59.5 66t21.5 95.5t-21.5 95t-59.5 66t-87 24q-48 0 -86 -24t-59.5 -66.5t-21.5 -94.5t21.5 -94.5t59.5 -66.5t86 -24q49 0 87 23.5zM272.5 605.5
q-12.5 10.5 -12.5 33.5v16q0 24 13.5 34t41.5 10t40.5 -10.5t12.5 -33.5v-16q0 -24 -13 -34t-41 -10q-29 0 -41.5 10.5z" />
    <glyph glyph-name="uni1E21" unicode="&#x1e21;" horiz-adv-x="627" 
d="M543.5 517.5q13.5 -13.5 13.5 -35.5v-440q0 -81 -34.5 -135.5t-93.5 -80.5t-133 -26q-40 0 -93.5 14t-68.5 29q-31 16 -31 40q0 6 4 16q11 25 37 25q13 0 28 -6q80 -31 125 -31q80 0 122.5 38.5t42.5 105.5v54q-21 -39 -70.5 -67t-104.5 -28q-69 0 -126 35t-89.5 97.5
t-32.5 140.5t32.5 140.5t89 97.5t124.5 35q55 0 102.5 -25t74.5 -61v32q0 21 13 35t34 14t34.5 -13.5zM385 101.5q38 23.5 59.5 66t21.5 95.5t-21.5 95t-59.5 66t-87 24q-48 0 -86 -24t-59.5 -66.5t-21.5 -94.5t21.5 -94.5t59.5 -66.5t86 -24q49 0 87 23.5zM163 611
q-11 10 -11 28q0 17 10.5 26.5t30.5 9.5h241q20 0 30.5 -9.5t10.5 -26.5q0 -18 -10.5 -28t-30.5 -10h-241q-19 0 -30 10z" />
    <glyph glyph-name="h" unicode="h" horiz-adv-x="579" 
d="M508 315v-267q0 -20 -13.5 -34t-34.5 -14q-20 0 -33.5 14t-13.5 34v267q0 130 -110 130q-59 0 -98 -37.5t-39 -92.5v-267q0 -20 -13.5 -34t-34.5 -14t-34 13.5t-13 34.5v644q0 20 13.5 34t33.5 14q21 0 34.5 -14t13.5 -34v-253q25 39 70 66.5t96 27.5q176 0 176 -218z
" />
    <glyph glyph-name="hbar" unicode="&#x127;" horiz-adv-x="579" 
d="M508 315v-267q0 -20 -13.5 -34t-34.5 -14q-20 0 -33.5 14t-13.5 34v267q0 130 -110 130q-59 0 -98 -37.5t-39 -92.5v-267q0 -20 -13.5 -34t-34.5 -14t-34 13.5t-13 34.5v502h-29q-21 0 -34.5 12.5t-13.5 32.5q0 19 13.5 31t34.5 12h29v54q0 20 13.5 34t33.5 14
q21 0 34.5 -14t13.5 -34v-54h46q21 0 34.5 -12.5t13.5 -31.5t-13.5 -31.5t-34.5 -12.5h-46v-111q25 39 70 66.5t96 27.5q176 0 176 -218z" />
    <glyph glyph-name="uni1E2B" unicode="&#x1e2b;" horiz-adv-x="579" 
d="M508 315v-267q0 -20 -13.5 -34t-34.5 -14q-20 0 -33.5 14t-13.5 34v267q0 130 -110 130q-59 0 -98 -37.5t-39 -92.5v-267q0 -20 -13.5 -34t-34.5 -14t-34 13.5t-13 34.5v644q0 20 13.5 34t33.5 14q21 0 34.5 -14t13.5 -34v-253q25 39 70 66.5t96 27.5q176 0 176 -218z
M193 -139q-40 29 -53 76q-3 7 -3 15q0 13 8 20.5t21 7.5q17 0 27 -7.5t21 -23.5q9 -23 28 -35t45 -12t44.5 12.5t28.5 34.5q11 16 21 23.5t26 7.5q13 0 21.5 -7.5t8.5 -19.5q0 -8 -3 -15q-13 -48 -53 -77t-94 -29t-94 29z" />
    <glyph glyph-name="hcircumflex" unicode="&#x125;" horiz-adv-x="579" 
d="M508 315v-267q0 -20 -13.5 -34t-34.5 -14q-20 0 -33.5 14t-13.5 34v267q0 130 -110 130q-59 0 -98 -37.5t-39 -92.5v-267q0 -20 -13.5 -34t-34.5 -14t-34 13.5t-13 34.5v644q0 20 13.5 34t33.5 14q21 0 34.5 -14t13.5 -34v-253q25 39 70 66.5t96 27.5q176 0 176 -218z
M255 798q0 -8 -7.5 -14.5t-17.5 -6.5q-7 0 -18 5.5t-23 12.5l-73 47l-70 -47q-12 -8 -22.5 -13t-18.5 -5q-10 0 -17.5 6.5t-7.5 14.5q0 6 3 11.5t9 12.5l69 76q11 13 22 18.5t27 5.5h14q16 0 27.5 -6t22.5 -18l69 -76q12 -13 12 -24z" />
    <glyph glyph-name="uni1E25" unicode="&#x1e25;" horiz-adv-x="579" 
d="M508 315v-267q0 -20 -13.5 -34t-34.5 -14q-20 0 -33.5 14t-13.5 34v267q0 130 -110 130q-59 0 -98 -37.5t-39 -92.5v-267q0 -20 -13.5 -34t-34.5 -14t-34 13.5t-13 34.5v644q0 20 13.5 34t33.5 14q21 0 34.5 -14t13.5 -34v-253q25 39 70 66.5t96 27.5q176 0 176 -218z
M247.5 -140.5q-12.5 10.5 -12.5 34.5v15q0 45 53 45q30 0 42.5 -10.5t12.5 -34.5v-15q0 -24 -13 -34.5t-42 -10.5q-28 0 -40.5 10.5z" />
    <glyph glyph-name="i" unicode="i" horiz-adv-x="227" 
d="M147.5 14q-13.5 -14 -34.5 -14q-20 0 -33.5 14t-13.5 34v433q0 20 13.5 34t33.5 14q21 0 34.5 -14t13.5 -34v-433q0 -20 -13.5 -34zM71.5 605.5q-12.5 10.5 -12.5 33.5v16q0 24 13.5 34t41.5 10t40.5 -10.5t12.5 -33.5v-16q0 -24 -13 -34t-41 -10q-29 0 -41.5 10.5z" />
    <glyph glyph-name="dotlessi" unicode="&#x131;" horiz-adv-x="227" 
d="M147.5 14q-13.5 -14 -34.5 -14q-20 0 -33.5 14t-13.5 34v433q0 20 13.5 34t33.5 14q21 0 34.5 -14t13.5 -34v-433q0 -20 -13.5 -34z" />
    <glyph glyph-name="iacute" unicode="&#xed;" horiz-adv-x="227" 
d="M147.5 14q-13.5 -14 -34.5 -14q-20 0 -33.5 14t-13.5 34v433q0 20 13.5 34t33.5 14q21 0 34.5 -14t13.5 -34v-433q0 -20 -13.5 -34zM93 568q-9 7 -8 19q0 8 6 18l59 99q8 14 19.5 23t26.5 9q22 0 33.5 -11.5t10.5 -30.5q0 -18 -15 -35l-75 -82q-16 -16 -40 -16
q-8 0 -17 7z" />
    <glyph glyph-name="ibreve" unicode="&#x12d;" horiz-adv-x="227" 
d="M147.5 14q-13.5 -14 -34.5 -14q-20 0 -33.5 14t-13.5 34v433q0 20 13.5 34t33.5 14q21 0 34.5 -14t13.5 -34v-433q0 -20 -13.5 -34zM16 600q-40 29 -53 76q-3 8 -3 15q0 13 8 20.5t21 7.5q17 0 27 -7.5t21 -23.5q9 -23 28 -35t45 -12t44.5 12.5t28.5 34.5q11 16 21 23.5
t26 7.5q13 0 21.5 -7.5t8.5 -19.5q0 -7 -3 -15q-13 -48 -53 -77t-94 -29t-94 29z" />
    <glyph glyph-name="uni01D0" unicode="&#x1d0;" horiz-adv-x="227" 
d="M147.5 14q-13.5 -14 -34.5 -14q-20 0 -33.5 14t-13.5 34v433q0 20 13.5 34t33.5 14q21 0 34.5 -14t13.5 -34v-433q0 -20 -13.5 -34zM235 718.5q8 -6.5 8 -14.5q0 -14 -13 -28l-55 -65q-18 -24 -50 -24h-28q-16 0 -27.5 5.5t-21.5 18.5l-56 65q-10 13 -10 25
q0 11 8.5 17.5t23.5 6.5t37 -19l62 -52l60 52q12 10 21 14.5t23 4.5q10 0 18 -6.5z" />
    <glyph glyph-name="icircumflex" unicode="&#xee;" horiz-adv-x="227" 
d="M147.5 14q-13.5 -14 -34.5 -14q-20 0 -33.5 14t-13.5 34v433q0 20 13.5 34t33.5 14q21 0 34.5 -14t13.5 -34v-433q0 -20 -13.5 -34zM240 623q2 -5 2 -12q0 -9 -7 -15t-18 -6q-13 0 -19 3.5t-20 15.5l-64 54l-65 -54q-3 -3 -10.5 -9t-14 -8.5t-15.5 -2.5q-10 0 -17 6.5
t-7 14.5t2 13t8 12l59 70q18 24 50 24h27q16 0 26 -5t19 -19l56 -69q6 -8 8 -13z" />
    <glyph glyph-name="uni0209" unicode="&#x209;" horiz-adv-x="227" 
d="M147.5 14q-13.5 -14 -34.5 -14q-20 0 -33.5 14t-13.5 34v433q0 20 13.5 34t33.5 14q21 0 34.5 -14t13.5 -34v-433q0 -20 -13.5 -34zM22 606l-91 62q-28 16 -28 41q0 18 13.5 29.5t30.5 11.5q21 0 41 -20l79 -81q11 -11 11 -23q0 -13 -9 -20.5t-23 -7.5q-10 0 -24 8z
M190 606l-91 62q-28 16 -28 41q0 18 13.5 29.5t29.5 11.5q22 0 42 -20l79 -81q11 -11 11 -23q0 -13 -9 -20.5t-23 -7.5q-10 0 -24 8z" />
    <glyph glyph-name="idieresis" unicode="&#xef;" horiz-adv-x="227" 
d="M147.5 14q-13.5 -14 -34.5 -14q-20 0 -33.5 14t-13.5 34v433q0 20 13.5 34t33.5 14q21 0 34.5 -14t13.5 -34v-433q0 -20 -13.5 -34zM-25 608q-13 11 -13 35v15q0 45 52 45q29 0 42 -10.5t13 -34.5v-15q0 -25 -13.5 -35.5t-41.5 -10.5q-26 0 -39 11zM163 608
q-13 11 -13 35v15q0 45 53 45q28 0 40.5 -10.5t12.5 -34.5v-15q0 -25 -13 -35.5t-41 -10.5q-26 0 -39 11z" />
    <glyph glyph-name="uni1E2F" unicode="&#x1e2f;" horiz-adv-x="227" 
d="M147.5 14q-13.5 -14 -34.5 -14q-20 0 -33.5 14t-13.5 34v433q0 20 13.5 34t33.5 14q21 0 34.5 -14t13.5 -34v-433q0 -20 -13.5 -34zM-25 608q-13 11 -13 35v15q0 45 52 45q29 0 42 -10.5t13 -34.5v-15q0 -25 -13.5 -35.5t-41.5 -10.5q-26 0 -39 11zM163 608
q-13 11 -13 35v15q0 45 53 45q28 0 40.5 -10.5t12.5 -34.5v-15q0 -25 -13 -35.5t-41 -10.5q-26 0 -39 11zM93 746q-9 7 -8 19q0 8 6 18l59 99q8 14 19.5 23t26.5 9q22 0 33.5 -11.5t10.5 -30.5q0 -18 -15 -35l-75 -82q-16 -16 -40 -16q-8 0 -17 7z" />
    <glyph glyph-name="i.loclTRK" horiz-adv-x="227" 
d="M147.5 14q-13.5 -14 -34.5 -14q-20 0 -33.5 14t-13.5 34v433q0 20 13.5 34t33.5 14q21 0 34.5 -14t13.5 -34v-433q0 -20 -13.5 -34zM71.5 605.5q-12.5 10.5 -12.5 33.5v16q0 24 13.5 34t41.5 10t40.5 -10.5t12.5 -33.5v-16q0 -24 -13 -34t-41 -10q-29 0 -41.5 10.5z" />
    <glyph glyph-name="uni1ECB" unicode="&#x1ecb;" horiz-adv-x="227" 
d="M147.5 14q-13.5 -14 -34.5 -14q-20 0 -33.5 14t-13.5 34v433q0 20 13.5 34t33.5 14q21 0 34.5 -14t13.5 -34v-433q0 -20 -13.5 -34zM71.5 605.5q-12.5 10.5 -12.5 33.5v16q0 24 13.5 34t41.5 10t40.5 -10.5t12.5 -33.5v-16q0 -24 -13 -34t-41 -10q-29 0 -41.5 10.5z
M78.5 -140.5q-12.5 10.5 -12.5 34.5v15q0 45 53 45q30 0 42.5 -10.5t12.5 -34.5v-15q0 -24 -13 -34.5t-42 -10.5q-28 0 -40.5 10.5z" />
    <glyph glyph-name="igrave" unicode="&#xec;" horiz-adv-x="227" 
d="M147.5 14q-13.5 -14 -34.5 -14q-20 0 -33.5 14t-13.5 34v433q0 20 13.5 34t33.5 14q21 0 34.5 -14t13.5 -34v-433q0 -20 -13.5 -34zM91 573l-91 62q-27 15 -27 41q0 18 13.5 29.5t29.5 11.5q22 0 42 -20l78 -81q11 -11 11 -23q0 -13 -9 -20.5t-23 -7.5q-8 0 -24 8z" />
    <glyph glyph-name="uni1EC9" unicode="&#x1ec9;" horiz-adv-x="227" 
d="M147.5 14q-13.5 -14 -34.5 -14q-20 0 -33.5 14t-13.5 34v433q0 20 13.5 34t33.5 14q21 0 34.5 -14t13.5 -34v-433q0 -20 -13.5 -34zM101 758q51 0 72.5 -25t21.5 -57q0 -16 -6 -29t-19 -28q-7 -8 -13 -17t-6 -16q0 -10 -8.5 -17t-20.5 -7t-20 7t-8 18q0 21 15 39
q14 17 20 26t6 18q0 12 -10.5 20t-24.5 8q-12 0 -22 -4.5t-22 -12.5q-9 -7 -17 -7q-11 0 -21 11q-7 7 -7 17q0 13 13 26q35 30 77 30z" />
    <glyph glyph-name="uni020B" unicode="&#x20b;" horiz-adv-x="227" 
d="M147.5 14q-13.5 -14 -34.5 -14q-20 0 -33.5 14t-13.5 34v433q0 20 13.5 34t33.5 14q21 0 34.5 -14t13.5 -34v-433q0 -20 -13.5 -34zM210 708.5q40 -28.5 53 -76.5q3 -7 3 -15q0 -13 -8 -20.5t-21 -7.5q-17 0 -27 7.5t-21 23.5q-9 23 -28 35t-45 12t-44.5 -12.5
t-28.5 -34.5q-11 -16 -21 -23.5t-26 -7.5q-13 0 -21.5 7.5t-8.5 19.5q0 8 3 15q13 48 53 77t94 29t94 -28.5z" />
    <glyph glyph-name="ij" unicode="&#x133;" horiz-adv-x="503" 
d="M147.5 14q-13.5 -14 -34.5 -14q-20 0 -33.5 14t-13.5 34v433q0 20 13.5 34t33.5 14q21 0 34.5 -14t13.5 -34v-433q0 -20 -13.5 -34zM71.5 605.5q-12.5 10.5 -12.5 33.5v16q0 24 13.5 34t41.5 10t40.5 -10.5t12.5 -33.5v-16q0 -24 -13 -34t-41 -10q-29 0 -41.5 10.5z
M198.5 -184q-12.5 13 -12.5 31v9q0 33 41 43q64 18 64 100v477q0 20 13.5 34t34.5 14q20 0 33.5 -14t13.5 -34v-501q0 -52 -21.5 -91t-57.5 -60t-77 -21q-19 0 -31.5 13zM296.5 605.5q-12.5 10.5 -12.5 33.5v16q0 24 13.5 34t41.5 10t40.5 -10.5t12.5 -33.5v-16
q0 -24 -13 -34t-41 -10q-29 0 -41.5 10.5z" />
    <glyph glyph-name="imacron" unicode="&#x12b;" horiz-adv-x="227" 
d="M147.5 14q-13.5 -14 -34.5 -14q-20 0 -33.5 14t-13.5 34v433q0 20 13.5 34t33.5 14q21 0 34.5 -14t13.5 -34v-433q0 -20 -13.5 -34zM-38 611q-11 10 -11 28q0 17 10.5 26.5t30.5 9.5h241q20 0 30.5 -9.5t10.5 -26.5q0 -18 -10.5 -28t-30.5 -10h-241q-19 0 -30 10z" />
    <glyph glyph-name="iogonek" unicode="&#x12f;" horiz-adv-x="227" 
d="M71.5 605.5q-12.5 10.5 -12.5 33.5v16q0 24 13.5 34t41.5 10t40.5 -10.5t12.5 -33.5v-16q0 -24 -13 -34t-41 -10q-29 0 -41.5 10.5zM185 -106q10 -10 10 -27q0 -15 -14.5 -31t-38 -26t-49.5 -10q-47 0 -78.5 26.5t-31.5 75.5q0 43 22 70t61 44v465q0 20 13.5 34t33.5 14
q21 0 34.5 -14t13.5 -34v-428q0 -26 -12.5 -40t-37.5 -28q-24 -14 -36 -27t-12 -38q0 -21 11 -33t27 -12t23 11q14 18 36 18q15 0 25 -10z" />
    <glyph glyph-name="itilde" unicode="&#x129;" horiz-adv-x="227" 
d="M147.5 14q-13.5 -14 -34.5 -14q-20 0 -33.5 14t-13.5 34v433q0 20 13.5 34t33.5 14q21 0 34.5 -14t13.5 -34v-433q0 -20 -13.5 -34zM-50.5 601q-11.5 15 -10.5 43q3 34 32 57t78 23q22 0 42 -9.5t48 -27.5q18 -12 30 -18.5t22 -6.5q12 0 19 7.5t6 20.5q-1 3 -1 10
q0 13 9 21t22 8q20 0 31.5 -15t10.5 -41q-3 -33 -28.5 -57.5t-73.5 -24.5q-18 0 -37.5 8.5t-48.5 25.5q-22 13 -36.5 20t-25.5 7q-12 0 -19.5 -7t-7.5 -21q1 -3 1 -8q0 -14 -9 -22t-22 -8q-20 0 -31.5 15z" />
    <glyph glyph-name="j" unicode="j" horiz-adv-x="261" 
d="M-7.5 -184q-12.5 13 -12.5 31v9q0 33 41 43q64 18 64 100v477q0 20 13.5 34t34.5 14q20 0 33.5 -14t13.5 -34v-501q0 -52 -21.5 -91t-57.5 -60t-77 -21q-19 0 -31.5 13zM90.5 605.5q-12.5 10.5 -12.5 33.5v16q0 24 13.5 34t41.5 10t40.5 -10.5t12.5 -33.5v-16
q0 -24 -13 -34t-41 -10q-29 0 -41.5 10.5z" />
    <glyph glyph-name="uni0237" unicode="&#x237;" horiz-adv-x="261" 
d="M-7.5 -184q-12.5 13 -12.5 31v9q0 33 41 43q64 18 64 100v477q0 20 13.5 34t34.5 14q20 0 33.5 -14t13.5 -34v-501q0 -52 -21.5 -91t-57.5 -60t-77 -21q-19 0 -31.5 13z" />
    <glyph glyph-name="jcircumflex" unicode="&#x135;" horiz-adv-x="261" 
d="M-7.5 -184q-12.5 13 -12.5 31v9q0 33 41 43q64 18 64 100v477q0 20 13.5 34t34.5 14q20 0 33.5 -14t13.5 -34v-501q0 -52 -21.5 -91t-57.5 -60t-77 -21q-19 0 -31.5 13zM259 623q2 -5 2 -12q0 -9 -7 -15t-18 -6q-13 0 -19 3.5t-20 15.5l-64 54l-65 -54q-3 -3 -10.5 -9
t-14 -8.5t-15.5 -2.5q-10 0 -17 6.5t-7 14.5t2 13t8 12l59 70q18 24 50 24h27q16 0 26 -5t19 -19l56 -69q6 -8 8 -13z" />
    <glyph glyph-name="k" unicode="k" horiz-adv-x="555" 
d="M514 48q0 -20 -15.5 -33.5t-32.5 -13.5q-22 0 -35 16l-197 209l-60 -54v-124q0 -20 -13.5 -34t-33.5 -14q-21 0 -34.5 14t-13.5 34v644q0 20 13.5 34t34.5 14q20 0 33.5 -14t13.5 -34v-406l245 225q17 15 35 15q17 0 31 -14.5t14 -30.5q0 -20 -19 -36l-173 -154l192 -208
q15 -16 15 -35z" />
    <glyph glyph-name="kcommaaccent" unicode="&#x137;" horiz-adv-x="555" 
d="M514 48q0 -20 -15.5 -33.5t-32.5 -13.5q-22 0 -35 16l-197 209l-60 -54v-124q0 -20 -13.5 -34t-33.5 -14q-21 0 -34.5 14t-13.5 34v644q0 20 13.5 34t34.5 14q20 0 33.5 -14t13.5 -34v-406l245 225q17 15 35 15q17 0 31 -14.5t14 -30.5q0 -20 -19 -36l-173 -154l192 -208
q15 -16 15 -35zM330 -188.5q-16 -32.5 -40.5 -55.5t-50.5 -23q-17 0 -28 8.5t-11 24.5q0 14 7 19.5t16.5 8.5t14.5 5q14 7 21.5 18.5t7.5 25.5q0 11 -9 19t-23 8q-16 0 -27 -8q-10 5 -15 12.5t-5 20.5q1 24 26 42.5t53 18.5q37 0 58 -23t21 -64q0 -25 -16 -57.5z" />
    <glyph glyph-name="kgreenlandic" unicode="&#x138;" horiz-adv-x="555" 
d="M514 48q0 -20 -16 -33.5t-32 -13.5q-22 0 -35 16l-197 209l-60 -54v-124q0 -20 -13.5 -34t-33.5 -14q-21 0 -34.5 14t-13.5 34v428q0 20 13.5 34t34.5 14q20 0 33.5 -14t13.5 -34v-190l245 225q17 15 35 15q17 0 31 -14.5t14 -30.5q0 -20 -19 -36l-173 -154l192 -208
q15 -16 15 -35z" />
    <glyph glyph-name="l" unicode="l" horiz-adv-x="253" 
d="M160 14q-14 -14 -34 -14t-33.5 14t-13.5 34v644q0 20 14 34t34 14t33.5 -14t13.5 -34v-644q0 -20 -14 -34z" />
    <glyph glyph-name="lacute" unicode="&#x13a;" horiz-adv-x="253" 
d="M160 14q-14 -14 -34 -14t-33.5 14t-13.5 34v644q0 20 14 34t34 14t33.5 -14t13.5 -34v-644q0 -20 -14 -34zM104.5 788.5q-8.5 7.5 -8.5 20.5t12 23l88 74q21 17 40 17q17 0 30.5 -12t13.5 -29q0 -13 -8 -25t-22 -19l-99 -51q-12 -6 -23 -6q-15 0 -23.5 7.5z" />
    <glyph glyph-name="lcaron" unicode="&#x13e;" horiz-adv-x="378" 
d="M159 14q-14 -14 -35 -14q-20 0 -33 14t-13 34v644q0 20 13.5 34t34.5 14q20 0 33.5 -14t13.5 -34v-644q0 -20 -14 -34zM373 532.5q-16 -32.5 -40.5 -55.5t-50.5 -23q-17 0 -28 8.5t-11 24.5q0 14 7 19.5t16.5 8.5t14.5 5q14 7 21.5 18.5t7.5 25.5q0 11 -9 19t-23 8
q-16 0 -27 -8q-10 5 -15 12.5t-5 20.5q1 24 26 42.5t53 18.5q37 0 58 -23t21 -64q0 -25 -16 -57.5z" />
    <glyph glyph-name="lcommaaccent" unicode="&#x13c;" horiz-adv-x="253" 
d="M160 14q-14 -14 -34 -14t-33.5 14t-13.5 34v644q0 20 14 34t34 14t33.5 -14t13.5 -34v-644q0 -20 -14 -34zM179 -188.5q-16 -32.5 -40.5 -55.5t-50.5 -23q-17 0 -28 8.5t-11 24.5q0 14 7 19.5t16.5 8.5t14.5 5q14 7 21.5 18.5t7.5 25.5q0 11 -9 19t-23 8q-16 0 -27 -8
q-10 5 -15 12.5t-5 20.5q1 24 26 42.5t53 18.5q37 0 58 -23t21 -64q0 -25 -16 -57.5z" />
    <glyph glyph-name="ldot" unicode="&#x140;" horiz-adv-x="360" 
d="M160 14q-14 -14 -34 -14t-33.5 14t-13.5 34v644q0 20 14 34t34 14t33.5 -14t13.5 -34v-644q0 -20 -14 -34zM270.5 281.5q-13.5 13.5 -13.5 37.5v19q0 25 13.5 38t37.5 13h10q25 0 38 -13t13 -38v-19q0 -24 -13 -37.5t-38 -13.5h-10q-24 0 -37.5 13.5z" />
    <glyph glyph-name="uni1E37" unicode="&#x1e37;" horiz-adv-x="253" 
d="M160 14q-14 -14 -34 -14t-33.5 14t-13.5 34v644q0 20 14 34t34 14t33.5 -14t13.5 -34v-644q0 -20 -14 -34zM85.5 -140.5q-12.5 10.5 -12.5 34.5v15q0 45 53 45q30 0 42.5 -10.5t12.5 -34.5v-15q0 -24 -13 -34.5t-42 -10.5q-28 0 -40.5 10.5z" />
    <glyph glyph-name="uni01C9" unicode="&#x1c9;" horiz-adv-x="500" 
d="M160 14q-14 -14 -34 -14t-33.5 14t-13.5 34v644q0 20 14 34t34 14t33.5 -14t13.5 -34v-644q0 -20 -14 -34zM231.5 -184q-12.5 13 -12.5 31v9q0 33 41 43q64 18 64 100v477q0 20 13.5 34t34.5 14q20 0 33.5 -14t13.5 -34v-501q0 -52 -21.5 -91t-57.5 -60t-77 -21
q-19 0 -31.5 13zM329.5 605.5q-12.5 10.5 -12.5 33.5v16q0 24 13.5 34t41.5 10t40.5 -10.5t12.5 -33.5v-16q0 -24 -13 -34t-41 -10q-29 0 -41.5 10.5z" />
    <glyph glyph-name="uni1E3B" unicode="&#x1e3b;" horiz-adv-x="253" 
d="M160 14q-14 -14 -34 -14t-33.5 14t-13.5 34v644q0 20 14 34t34 14t33.5 -14t13.5 -34v-644q0 -20 -14 -34zM-24.5 -128.5q-10.5 9.5 -10.5 27.5q0 17 10.5 26.5t30.5 9.5h238q20 0 30.5 -9.5t10.5 -26.5q0 -37 -41 -37h-238q-20 0 -30.5 9.5z" />
    <glyph glyph-name="lslash" unicode="&#x142;" horiz-adv-x="254" 
d="M264 458q11 -13 11 -27q0 -12 -7 -22t-19 -15l-75 -35v-311q0 -20 -14 -34t-34 -14t-33.5 14t-13.5 34v268l-36 -17q-9 -4 -20 -4q-17 0 -27.5 13t-10.5 28q0 11 6.5 21t18.5 15l69 32v288q0 20 14 34t34 14t33.5 -14t13.5 -34v-244l42 19q12 4 20 4q17 0 28 -13z" />
    <glyph glyph-name="m" unicode="m" horiz-adv-x="918" 
d="M847 315v-267q0 -21 -13 -34.5t-34 -13.5t-34.5 14t-13.5 34v266q0 131 -110 131q-39 0 -70.5 -17.5t-49 -47.5t-17.5 -66v-266q0 -20 -13.5 -34t-34.5 -14t-34 13.5t-13 34.5v267q0 59 -25 94.5t-83 35.5q-59 0 -97.5 -37.5t-38.5 -92.5v-267q0 -20 -13.5 -34t-34.5 -14
t-34 13.5t-13 34.5v428q0 20 13.5 34t33.5 14q21 0 34.5 -14t13.5 -34v-35q26 39 69.5 65.5t94.5 26.5q124 0 161 -110q22 42 73 76t108 34q175 0 175 -218z" />
    <glyph glyph-name="uni1E43" unicode="&#x1e43;" horiz-adv-x="918" 
d="M847 315v-267q0 -21 -13 -34.5t-34 -13.5t-34.5 14t-13.5 34v266q0 131 -110 131q-39 0 -70.5 -17.5t-49 -47.5t-17.5 -66v-266q0 -20 -13.5 -34t-34.5 -14t-34 13.5t-13 34.5v267q0 59 -25 94.5t-83 35.5q-59 0 -97.5 -37.5t-38.5 -92.5v-267q0 -20 -13.5 -34t-34.5 -14
t-34 13.5t-13 34.5v428q0 20 13.5 34t33.5 14q21 0 34.5 -14t13.5 -34v-35q26 39 69.5 65.5t94.5 26.5q124 0 161 -110q22 42 73 76t108 34q175 0 175 -218zM417.5 -140.5q-12.5 10.5 -12.5 34.5v15q0 45 53 45q30 0 42.5 -10.5t12.5 -34.5v-15q0 -24 -13 -34.5t-42 -10.5
q-28 0 -40.5 10.5z" />
    <glyph glyph-name="n" unicode="n" horiz-adv-x="589" 
d="M518 320v-272q0 -20 -13.5 -34t-34.5 -14q-20 0 -33.5 14t-13.5 34v271q0 59 -27 94t-88 35q-40 0 -72.5 -17.5t-51 -47t-18.5 -64.5v-271q0 -20 -13.5 -34t-34.5 -14t-34 13.5t-13 34.5v428q0 20 13.5 34t33.5 14q21 0 34.5 -14t13.5 -34v-35q26 40 72.5 67.5t99.5 27.5
q180 0 180 -216z" />
    <glyph glyph-name="nacute" unicode="&#x144;" horiz-adv-x="589" 
d="M518 320v-272q0 -20 -13.5 -34t-34.5 -14q-20 0 -33.5 14t-13.5 34v271q0 59 -27 94t-88 35q-40 0 -72.5 -17.5t-51 -47t-18.5 -64.5v-271q0 -20 -13.5 -34t-34.5 -14t-34 13.5t-13 34.5v428q0 20 13.5 34t33.5 14q21 0 34.5 -14t13.5 -34v-35q26 40 72.5 67.5t99.5 27.5
q180 0 180 -216zM274 568q-9 7 -8 19q0 8 6 18l59 99q8 14 19.5 23t26.5 9q22 0 33.5 -11.5t10.5 -30.5q0 -18 -15 -35l-75 -82q-16 -16 -40 -16q-8 0 -17 7z" />
    <glyph glyph-name="napostrophe" unicode="&#x149;" horiz-adv-x="618" 
d="M27 700h31q16 0 25 -7.5t9 -20.5q0 -8 -3 -17l-66 -212q-9 -28 -36 -28q-13 0 -19 9t-4 26l20 211q5 39 43 39zM547 320v-272q0 -20 -13.5 -34t-34.5 -14q-20 0 -33.5 14t-13.5 34v271q0 59 -27 94t-88 35q-40 0 -72.5 -17.5t-51 -47t-18.5 -64.5v-271q0 -20 -13.5 -34
t-34.5 -14t-34 13.5t-13 34.5v428q0 20 13.5 34t33.5 14q21 0 34.5 -14t13.5 -34v-35q26 40 72.5 67.5t99.5 27.5q180 0 180 -216z" />
    <glyph glyph-name="ncaron" unicode="&#x148;" horiz-adv-x="589" 
d="M518 320v-272q0 -20 -13.5 -34t-34.5 -14q-20 0 -33.5 14t-13.5 34v271q0 59 -27 94t-88 35q-40 0 -72.5 -17.5t-51 -47t-18.5 -64.5v-271q0 -20 -13.5 -34t-34.5 -14t-34 13.5t-13 34.5v428q0 20 13.5 34t33.5 14q21 0 34.5 -14t13.5 -34v-35q26 40 72.5 67.5t99.5 27.5
q180 0 180 -216zM416 718.5q8 -6.5 8 -14.5q0 -14 -13 -28l-55 -65q-18 -24 -50 -24h-28q-16 0 -27.5 5.5t-21.5 18.5l-56 65q-10 13 -10 25q0 11 8.5 17.5t23.5 6.5t37 -19l62 -52l60 52q12 10 21 14.5t23 4.5q10 0 18 -6.5z" />
    <glyph glyph-name="ncommaaccent" unicode="&#x146;" horiz-adv-x="589" 
d="M518 320v-272q0 -20 -13.5 -34t-34.5 -14q-20 0 -33.5 14t-13.5 34v271q0 59 -27 94t-88 35q-40 0 -72.5 -17.5t-51 -47t-18.5 -64.5v-271q0 -20 -13.5 -34t-34.5 -14t-34 13.5t-13 34.5v428q0 20 13.5 34t33.5 14q21 0 34.5 -14t13.5 -34v-35q26 40 72.5 67.5t99.5 27.5
q180 0 180 -216zM346 -188.5q-16 -32.5 -40.5 -55.5t-50.5 -23q-17 0 -28 8.5t-11 24.5q0 14 7 19.5t16.5 8.5t14.5 5q14 7 21.5 18.5t7.5 25.5q0 11 -9 19t-23 8q-16 0 -27 -8q-10 5 -15 12.5t-5 20.5q1 24 26 42.5t53 18.5q37 0 58 -23t21 -64q0 -25 -16 -57.5z" />
    <glyph glyph-name="uni1E45" unicode="&#x1e45;" horiz-adv-x="589" 
d="M518 320v-272q0 -20 -13.5 -34t-34.5 -14q-20 0 -33.5 14t-13.5 34v271q0 59 -27 94t-88 35q-40 0 -72.5 -17.5t-51 -47t-18.5 -64.5v-271q0 -20 -13.5 -34t-34.5 -14t-34 13.5t-13 34.5v428q0 20 13.5 34t33.5 14q21 0 34.5 -14t13.5 -34v-35q26 40 72.5 67.5t99.5 27.5
q180 0 180 -216zM252.5 605.5q-12.5 10.5 -12.5 33.5v16q0 24 13.5 34t41.5 10t40.5 -10.5t12.5 -33.5v-16q0 -24 -13 -34t-41 -10q-29 0 -41.5 10.5z" />
    </font>
</defs>
</svg>
